SplineFontDB: 3.0
FontName: Vaigai-Bold
FullName: Vaigai Bold
FamilyName: Vaigai
Weight: Bold
Copyright: Copyright (c) 1995-2015, NLCI (http://www.nlci.in/fonts/) Derived from SAU Vaigai Bold by ttfbuilder v0.33
Version: 1.0 Sat Jul 20 09:50:26 1996
ItalicAngle: 0
UnderlinePosition: -532.48
UnderlineWidth: 40.96
Ascent: 1638
Descent: 410
InvalidEm: 0
sfntRevision: 0x00010000
LayerCount: 2
Layer: 0 1 "Back" 1
Layer: 1 1 "Fore" 0
XUID: [1021 522 -810754379 15506403]
StyleMap: 0x0020
FSType: 0
OS2Version: 1
OS2_WeightWidthSlopeOnly: 0
OS2_UseTypoMetrics: 0
CreationTime: 1522121141
ModificationTime: 1522121179
PfmFamily: 17
TTFWeight: 700
TTFWidth: 5
LineGap: 0
VLineGap: 0
Panose: 2 0 0 3 0 0 0 0 0 0
OS2TypoAscent: 2154
OS2TypoAOffset: 0
OS2TypoDescent: -752
OS2TypoDOffset: 0
OS2TypoLinegap: 0
OS2WinAscent: 2154
OS2WinAOffset: 0
OS2WinDescent: 752
OS2WinDOffset: 0
HheadAscent: 2154
HheadAOffset: 0
HheadDescent: -752
HheadDOffset: 0
OS2SubXSize: 1434
OS2SubYSize: 1331
OS2SubXOff: 0
OS2SubYOff: 293
OS2SupXSize: 1434
OS2SupYSize: 1331
OS2SupXOff: 0
OS2SupYOff: 928
OS2StrikeYSize: 102
OS2StrikeYPos: 530
OS2Vendor: 'Alts'
OS2CodePages: 00000001.00000000
OS2UnicodeRanges: 80108003.02002000.00000000.00000000
Lookup: 260 0 0 "_holdAnchorsbase" { "_someAnchorsbase"  } []
DEI: 91125
ShortTable: maxp 16
  1
  0
  339
  183
  12
  288
  16
  1
  0
  0
  0
  0
  3
  0
  3
  2
EndShort

StartChar: .notdef
Encoding: 0 -1 0
Width: 1024
Flags: W
LayerCount: 2
Fore
SplineSet
63 0 m 1,0,-1
 63 1536 l 1,1,-1
 961 1536 l 1,2,-1
 961 0 l 1,3,-1
 63 0 l 1,0,-1
897 63 m 1,4,-1
 897 1473 l 1,5,-1
 127 1473 l 1,6,-1
 127 63 l 1,7,-1
 897 63 l 1,4,-1
EndSplineSet
EndChar

StartChar: exclam
Encoding: 4 33 4
Width: 658
Flags: W
LayerCount: 2
Fore
SplineSet
394 419 m 0,0,1
 385 412 385 412 370.5 406.5 c 0,2,3
 356 401 356 401 340 396.5 c 0,4,5
 324 392 324 392 308 388 c 0,6,7
 292 384 292 384 280 380 c 0,8,-1
 251 401 l 0,9,-1
 164 1358 l 0,10,11
 187 1370 187 1370 223.5 1388 c 0,12,13
 260 1406 260 1406 299 1424 c 0,14,15
 338 1442 338 1442 373.5 1457.5 c 0,16,17
 409 1473 409 1473 430 1480 c 0,18,-1
 483 1445 l 0,19,-1
 394 419 l 0,0,1
504 133 m 0,20,21
 504 91 504 91 488 58.5 c 0,22,23
 472 26 472 26 445 4.5 c 0,24,25
 418 -17 418 -17 382 -28.5 c 0,26,27
 346 -40 346 -40 306 -40 c 0,28,29
 276 -40 276 -40 247 -32 c 0,30,31
 218 -24 218 -24 195.5 -7 c 0,32,33
 173 10 173 10 159.5 37 c 0,34,35
 146 64 146 64 146 102 c 0,36,37
 146 143 146 143 162.5 175.5 c 0,38,39
 179 208 179 208 206.5 230.5 c 0,40,41
 234 253 234 253 270 264.5 c 0,42,43
 306 276 306 276 345 276 c 0,44,45
 373 276 373 276 401.5 268 c 0,46,47
 430 260 430 260 453 242.5 c 0,48,49
 476 225 476 225 490 198 c 0,50,51
 504 171 504 171 504 133 c 0,20,21
EndSplineSet
EndChar

StartChar: quotedbl
Encoding: 5 34 5
Width: 990
Flags: W
LayerCount: 2
Fore
SplineSet
777 834 m 0,0,1
 769 830 769 830 751.5 826 c 0,2,3
 734 822 734 822 713 819 c 0,4,5
 692 816 692 816 672.5 814.5 c 0,6,7
 653 813 653 813 641 813 c 0,8,-1
 548 1386 l 0,9,10
 555 1390 555 1390 575.5 1398.5 c 0,11,12
 596 1407 596 1407 622.5 1417 c 0,13,14
 649 1427 649 1427 678.5 1437.5 c 0,15,16
 708 1448 708 1448 734 1457 c 0,17,18
 760 1466 760 1466 780 1472 c 0,19,20
 800 1478 800 1478 807 1480 c 0,21,-1
 860 1449 l 0,22,-1
 777 834 l 0,0,1
359 834 m 0,23,24
 351 830 351 830 333.5 826 c 0,25,26
 316 822 316 822 295 819 c 0,27,28
 274 816 274 816 254.5 814.5 c 0,29,30
 235 813 235 813 223 813 c 0,31,-1
 130 1386 l 0,32,33
 137 1390 137 1390 157.5 1398.5 c 0,34,35
 178 1407 178 1407 204.5 1417 c 0,36,37
 231 1427 231 1427 260.5 1437.5 c 0,38,39
 290 1448 290 1448 316 1457 c 0,40,41
 342 1466 342 1466 362 1472 c 0,42,43
 382 1478 382 1478 389 1480 c 0,44,-1
 442 1449 l 0,45,-1
 359 834 l 0,23,24
EndSplineSet
EndChar

StartChar: numbersign
Encoding: 6 35 6
Width: 1061
Flags: W
LayerCount: 2
Fore
SplineSet
455 610 m 0,0,-1
 624 610 l 0,1,-1
 685 826 l 0,2,-1
 517 826 l 0,3,-1
 455 610 l 0,0,-1
881 981 m 0,4,-1
 1037 981 l 0,5,-1
 1062 956 l 0,6,7
 1060 945 1060 945 1053 926.5 c 0,8,9
 1046 908 1046 908 1038 888.5 c 0,10,11
 1030 869 1030 869 1022.5 851.5 c 0,12,13
 1015 834 1015 834 1011 826 c 0,14,-1
 837 826 l 0,15,-1
 775 610 l 0,16,-1
 931 610 l 0,17,-1
 953 583 l 0,18,19
 951 573 951 573 944.5 555 c 0,20,21
 938 537 938 537 930.5 517.5 c 0,22,23
 923 498 923 498 916 481 c 0,24,25
 909 464 909 464 905 455 c 0,26,-1
 731 455 l 0,27,-1
 650 170 l 0,28,29
 641 163 641 163 624 157 c 0,30,31
 607 151 607 151 588 146 c 0,32,-1
 550 136 l 0,33,34
 531 131 531 131 518 127 c 0,35,-1
 492 147 l 0,36,-1
 580 455 l 0,37,-1
 411 455 l 0,38,-1
 329 170 l 0,39,40
 320 163 320 163 303.5 157 c 0,41,42
 287 151 287 151 268 146 c 0,43,44
 249 141 249 141 230.5 136 c 0,45,46
 212 131 212 131 199 127 c 0,47,-1
 173 147 l 0,48,-1
 261 455 l 0,49,-1
 89 455 l 0,50,-1
 67 480 l 0,51,52
 69 490 69 490 75.5 507.5 c 0,53,54
 82 525 82 525 89.5 544.5 c 0,55,56
 97 564 97 564 104.5 582 c 0,57,58
 112 600 112 600 117 610 c 0,59,-1
 305 610 l 0,60,-1
 366 826 l 0,61,-1
 198 826 l 0,62,-1
 173 850 l 0,63,64
 175 861 175 861 182 879 c 0,65,66
 189 897 189 897 197 916.5 c 0,67,68
 205 936 205 936 212.5 953.5 c 0,69,70
 220 971 220 971 224 981 c 0,71,-1
 411 981 l 0,72,-1
 488 1251 l 0,73,74
 499 1259 499 1259 516 1264.5 c 0,75,76
 533 1270 533 1270 552 1274.5 c 0,77,78
 571 1279 571 1279 588 1283 c 0,79,80
 605 1287 605 1287 616 1292 c 0,81,-1
 645 1270 l 0,82,-1
 562 981 l 0,83,-1
 730 981 l 0,84,-1
 807 1251 l 0,85,86
 818 1259 818 1259 835 1264.5 c 0,87,88
 852 1270 852 1270 871 1274.5 c 0,89,90
 890 1279 890 1279 907.5 1283 c 0,91,92
 925 1287 925 1287 937 1292 c 0,93,-1
 964 1270 l 0,94,-1
 881 981 l 0,4,-1
EndSplineSet
EndChar

StartChar: dollar
Encoding: 7 36 7
Width: 1061
Flags: W
LayerCount: 2
Fore
SplineSet
592 -123 m 0,0,1
 574 -139 574 -139 549 -153.5 c 0,2,3
 524 -168 524 -168 499 -174 c 0,4,-1
 462 -142 l 0,5,-1
 462 -9 l 0,6,7
 421 -7 421 -7 372.5 2.5 c 0,8,9
 324 12 324 12 274 28.5 c 0,10,11
 224 45 224 45 174.5 67 c 0,12,13
 125 89 125 89 82 116 c 0,14,15
 77 119 77 119 75 138.5 c 0,16,17
 73 158 73 158 72.5 186.5 c 0,18,19
 72 215 72 215 73 250 c 0,20,21
 74 285 74 285 76.5 318.5 c 0,22,23
 79 352 79 352 83 382 c 0,24,25
 87 412 87 412 92 430 c 0,26,-1
 175 426 l 0,27,28
 199 375 199 375 227 329.5 c 0,29,30
 255 284 255 284 290 247.5 c 0,31,32
 325 211 325 211 367.5 185 c 0,33,34
 410 159 410 159 462 148 c 0,35,-1
 462 561 l 0,36,37
 394 585 394 585 325.5 611 c 0,38,39
 257 637 257 637 202 674.5 c 0,40,41
 147 712 147 712 112.5 766 c 0,42,43
 78 820 78 820 78 901 c 0,44,45
 78 944 78 944 96.5 994 c 0,46,47
 115 1044 115 1044 159.5 1089 c 0,48,49
 204 1134 204 1134 278 1167 c 0,50,51
 352 1200 352 1200 462 1210 c 0,52,-1
 462 1336 l 0,53,54
 476 1344 476 1344 487 1351 c 0,55,56
 498 1358 498 1358 508.5 1364 c 0,57,58
 519 1370 519 1370 530 1375 c 0,59,60
 541 1380 541 1380 556 1384 c 0,61,-1
 592 1352 l 0,62,-1
 592 1212 l 0,63,64
 647 1208 647 1208 701.5 1197.5 c 0,65,66
 756 1187 756 1187 803 1172 c 0,67,68
 850 1157 850 1157 886.5 1139.5 c 0,69,70
 923 1122 923 1122 941 1104 c 0,71,72
 945 1099 945 1099 943 1082 c 0,73,74
 941 1065 941 1065 934.5 1040.5 c 0,75,76
 928 1016 928 1016 918.5 988.5 c 0,77,78
 909 961 909 961 898 935.5 c 0,79,80
 887 910 887 910 876.5 890.5 c 0,81,82
 866 871 866 871 857 863 c 0,83,-1
 778 871 l 0,84,85
 747 949 747 949 702.5 1000.5 c 0,86,87
 658 1052 658 1052 592 1073 c 0,88,-1
 592 739 l 0,89,90
 661 715 661 715 730.5 686.5 c 0,91,92
 800 658 800 658 856 616 c 0,93,94
 912 574 912 574 947 514 c 0,95,96
 982 454 982 454 982 367 c 0,97,98
 982 307 982 307 961 247 c 0,99,100
 940 187 940 187 893.5 136 c 0,101,102
 847 85 847 85 772.5 47.5 c 0,103,104
 698 10 698 10 592 -3 c 0,105,-1
 592 -123 l 0,0,1
747 314 m 0,106,107
 747 351 747 351 735.5 380 c 0,108,109
 724 409 724 409 703 433 c 0,110,111
 682 457 682 457 653.5 475.5 c 0,112,113
 625 494 625 494 592 510 c 0,114,-1
 592 145 l 0,115,116
 623 150 623 150 651 162.5 c 0,117,118
 679 175 679 175 700.5 195.5 c 0,119,120
 722 216 722 216 734.5 245.5 c 0,121,122
 747 275 747 275 747 314 c 0,106,107
305 948 m 0,123,124
 305 919 305 919 316.5 895.5 c 0,125,126
 328 872 328 872 349 852.5 c 0,127,128
 370 833 370 833 399 817 c 0,129,130
 428 801 428 801 462 787 c 0,131,-1
 462 1083 l 0,132,133
 391 1074 391 1074 348 1036.5 c 0,134,135
 305 999 305 999 305 948 c 0,123,124
EndSplineSet
EndChar

StartChar: percent
Encoding: 8 37 8
Width: 1517
Flags: W
LayerCount: 2
Fore
SplineSet
711 897 m 0,0,1
 711 827 711 827 686.5 765 c 0,2,3
 662 703 662 703 617.5 656.5 c 0,4,5
 573 610 573 610 510.5 583 c 0,6,7
 448 556 448 556 372 556 c 0,8,9
 296 556 296 556 235.5 583 c 0,10,11
 175 610 175 610 133 656.5 c 0,12,13
 91 703 91 703 68.5 765 c 0,14,15
 46 827 46 827 46 897 c 0,16,17
 46 967 46 967 68.5 1029 c 0,18,19
 91 1091 91 1091 134.5 1137.5 c 0,20,21
 178 1184 178 1184 241 1211.5 c 0,22,23
 304 1239 304 1239 385 1239 c 0,24,25
 464 1239 464 1239 524.5 1212 c 0,26,27
 585 1185 585 1185 626.5 1138.5 c 0,28,29
 668 1092 668 1092 689.5 1029.5 c 0,30,31
 711 967 711 967 711 897 c 0,0,1
486 877 m 0,32,33
 486 1025 486 1025 454.5 1095.5 c 0,34,35
 423 1166 423 1166 372 1166 c 0,36,37
 346 1166 346 1166 327 1153 c 0,38,39
 308 1140 308 1140 295.5 1111 c 0,40,41
 283 1082 283 1082 277 1035 c 0,42,43
 271 988 271 988 271 920 c 0,44,45
 271 771 271 771 299 700 c 0,46,47
 327 629 327 629 385 629 c 0,48,49
 412 629 412 629 431 642 c 0,50,51
 450 655 450 655 462 684.5 c 0,52,53
 474 714 474 714 480 761.5 c 0,54,55
 486 809 486 809 486 877 c 0,32,33
379 3 m 0,56,57
 367 -3 367 -3 347 -7.5 c 0,58,59
 327 -12 327 -12 304.5 -16 c 0,60,61
 282 -20 282 -20 260.5 -23.5 c 0,62,63
 239 -27 239 -27 226 -30 c 0,64,-1
 201 0 l 0,65,-1
 1133 1203 l 0,66,67
 1143 1207 1143 1207 1163.5 1211.5 c 0,68,69
 1184 1216 1184 1216 1206.5 1220.5 c 0,70,71
 1229 1225 1229 1225 1250 1229 c 0,72,73
 1271 1233 1271 1233 1282 1235 c 0,74,-1
 1307 1207 l 0,75,-1
 379 3 l 0,56,57
1471 310 m 0,76,77
 1471 240 1471 240 1446.5 178 c 0,78,79
 1422 116 1422 116 1377.5 69.5 c 0,80,81
 1333 23 1333 23 1270.5 -4 c 0,82,83
 1208 -31 1208 -31 1132 -31 c 0,84,85
 1056 -31 1056 -31 995.5 -4 c 0,86,87
 935 23 935 23 893 69.5 c 0,88,89
 851 116 851 116 828.5 178 c 0,90,91
 806 240 806 240 806 310 c 0,92,93
 806 380 806 380 828.5 442 c 0,94,95
 851 504 851 504 894.5 550.5 c 0,96,97
 938 597 938 597 1001 624.5 c 0,98,99
 1064 652 1064 652 1145 652 c 0,100,101
 1224 652 1224 652 1284.5 625 c 0,102,103
 1345 598 1345 598 1386.5 551.5 c 0,104,105
 1428 505 1428 505 1449.5 442.5 c 0,106,107
 1471 380 1471 380 1471 310 c 0,76,77
1246 290 m 0,108,109
 1246 438 1246 438 1214.5 508.5 c 0,110,111
 1183 579 1183 579 1132 579 c 0,112,113
 1106 579 1106 579 1087 566 c 0,114,115
 1068 553 1068 553 1055.5 524 c 0,116,117
 1043 495 1043 495 1037 448 c 0,118,119
 1031 401 1031 401 1031 333 c 0,120,121
 1031 184 1031 184 1059 113 c 0,122,123
 1087 42 1087 42 1145 42 c 0,124,125
 1172 42 1172 42 1191 55 c 0,126,127
 1210 68 1210 68 1222 97.5 c 0,128,129
 1234 127 1234 127 1240 174.5 c 0,130,131
 1246 222 1246 222 1246 290 c 0,108,109
EndSplineSet
EndChar

StartChar: ampersand
Encoding: 9 38 9
Width: 1436
Flags: W
LayerCount: 2
Fore
SplineSet
1436 748 m 0,0,1
 1424 733 1424 733 1408.5 712.5 c 0,2,3
 1393 692 1393 692 1376.5 672 c 0,4,5
 1360 652 1360 652 1344.5 635 c 0,6,7
 1329 618 1329 618 1317 609 c 0,8,9
 1280 626 1280 626 1239.5 642 c 0,10,11
 1199 658 1199 658 1165 660 c 0,12,13
 1186 634 1186 634 1192 603.5 c 0,14,15
 1198 573 1198 573 1198 543 c 0,16,17
 1198 477 1198 477 1168 404.5 c 0,18,19
 1138 332 1138 332 1084 261 c 0,20,21
 1116 232 1116 232 1148 206 c 0,22,23
 1204 159 1204 159 1263 148 c 0,24,25
 1322 137 1322 137 1370 148 c 0,26,-1
 1389 65 l 0,27,28
 1346 46 1346 46 1295 28.5 c 0,29,30
 1244 11 1244 11 1198 -2 c 0,31,32
 1152 -15 1152 -15 1117 -22.5 c 0,33,34
 1082 -30 1082 -30 1071 -30 c 0,35,36
 1045 -30 1045 -30 995.5 -1.5 c 0,37,38
 946 27 946 27 882 79 c 0,39,40
 803 29 803 29 711 -0.5 c 0,41,42
 619 -30 619 -30 518 -30 c 0,43,44
 409 -30 409 -30 323.5 -5.5 c 0,45,46
 238 19 238 19 179.5 67 c 0,47,48
 121 115 121 115 90.5 186.5 c 0,49,50
 60 258 60 258 60 352 c 0,51,52
 60 455 60 455 124 558 c 0,53,54
 188 661 188 661 331 768 c 0,55,56
 296 846 296 846 276.5 922.5 c 0,57,58
 257 999 257 999 257 1073 c 0,59,60
 257 1154 257 1154 289.5 1223 c 0,61,62
 322 1292 322 1292 378 1342.5 c 0,63,64
 434 1393 434 1393 509.5 1421.5 c 0,65,66
 585 1450 585 1450 671 1450 c 0,67,68
 751 1450 751 1450 809 1429.5 c 0,69,70
 867 1409 867 1409 904.5 1375 c 0,71,72
 942 1341 942 1341 960 1296.5 c 0,73,74
 978 1252 978 1252 978 1204 c 0,75,76
 978 1152 978 1152 948.5 1096.5 c 0,77,78
 919 1041 919 1041 872 988 c 0,79,80
 825 935 825 935 766 887 c 0,81,82
 707 839 707 839 648 802 c 0,83,-1
 631 791 l 0,84,85
 664 736 664 736 703 681.5 c 0,86,87
 742 627 742 627 785 574.5 c 0,88,89
 828 522 828 522 873.5 472 c 0,90,91
 919 422 919 422 964 376 c 0,92,93
 980 408 980 408 988.5 439.5 c 0,94,95
 997 471 997 471 997 502 c 0,96,97
 997 544 997 544 984.5 576.5 c 0,98,99
 972 609 972 609 951 630.5 c 0,100,101
 930 652 930 652 903 663.5 c 0,102,103
 876 675 876 675 847 675 c 0,104,-1
 815 713 l 0,105,106
 820 719 820 719 831.5 731 c 0,107,108
 843 743 843 743 857 756 c 0,109,110
 871 769 871 769 885 779.5 c 0,111,112
 899 790 899 790 909 794 c 0,113,-1
 1403 794 l 0,114,-1
 1436 748 l 0,0,1
588 124 m 0,115,116
 636 124 636 124 682 138 c 0,117,118
 728 152 728 152 771 176 c 0,119,120
 726 219 726 219 679.5 268 c 0,121,122
 633 317 633 317 587.5 371.5 c 0,123,124
 542 426 542 426 499 484 c 0,125,126
 456 542 456 542 419 603 c 0,127,128
 380 547 380 547 366 491.5 c 0,129,130
 352 436 352 436 352 373 c 0,131,132
 352 303 352 303 373.5 255.5 c 0,133,134
 395 208 395 208 429 178.5 c 0,135,136
 463 149 463 149 505 136.5 c 0,137,138
 547 124 547 124 588 124 c 0,115,116
514 1130 m 0,139,140
 514 1079 514 1079 527.5 1026 c 0,141,142
 541 973 541 973 565 916 c 0,143,144
 605 942 605 942 633 973.5 c 0,145,146
 661 1005 661 1005 677.5 1038.5 c 0,147,148
 694 1072 694 1072 701.5 1106 c 0,149,150
 709 1140 709 1140 709 1171 c 0,151,152
 709 1206 709 1206 700 1232.5 c 0,153,154
 691 1259 691 1259 677 1277 c 0,155,156
 663 1295 663 1295 645 1304 c 0,157,158
 627 1313 627 1313 608 1313 c 0,159,160
 583 1313 583 1313 565.5 1299 c 0,161,162
 548 1285 548 1285 536.5 1260.5 c 0,163,164
 525 1236 525 1236 519.5 1202.5 c 0,165,166
 514 1169 514 1169 514 1130 c 0,139,140
EndSplineSet
EndChar

StartChar: quotesingle
Encoding: 10 39 10
Width: 572
Flags: W
LayerCount: 2
Fore
SplineSet
359 834 m 0,0,1
 351 830 351 830 333.5 826 c 0,2,3
 316 822 316 822 295 819 c 0,4,5
 274 816 274 816 254.5 814.5 c 0,6,7
 235 813 235 813 223 813 c 0,8,-1
 130 1386 l 0,9,10
 137 1390 137 1390 157.5 1398.5 c 0,11,12
 178 1407 178 1407 204.5 1417 c 0,13,14
 231 1427 231 1427 260.5 1437.5 c 0,15,16
 290 1448 290 1448 316 1457 c 0,17,18
 342 1466 342 1466 362 1472 c 0,19,20
 382 1478 382 1478 389 1480 c 0,21,-1
 442 1449 l 0,22,-1
 359 834 l 0,0,1
EndSplineSet
EndChar

StartChar: parenleft
Encoding: 11 40 11
Width: 689
Flags: W
LayerCount: 2
Fore
SplineSet
608 -315 m 0,0,1
 351 -173 351 -173 226 66 c 0,2,3
 101 305 101 305 101 623 c 0,4,5
 101 787 101 787 136 933 c 0,6,7
 171 1079 171 1079 236.5 1203 c 0,8,9
 302 1327 302 1327 396 1427.5 c 0,10,11
 490 1528 490 1528 608 1600 c 0,12,-1
 670 1515 l 0,13,14
 612 1453 612 1453 561.5 1370.5 c 0,15,16
 511 1288 511 1288 473 1181.5 c 0,17,18
 435 1075 435 1075 413 943 c 0,19,20
 391 811 391 811 391 651 c 0,21,22
 391 357 391 357 461 134.5 c 0,23,24
 531 -88 531 -88 670 -230 c 0,25,-1
 608 -315 l 0,0,1
EndSplineSet
EndChar

StartChar: parenright
Encoding: 12 41 12
Width: 689
Flags: W
LayerCount: 2
Fore
SplineSet
590 661 m 0,0,1
 590 497 590 497 555 351 c 0,2,3
 520 205 520 205 454.5 81 c 0,4,5
 389 -43 389 -43 295 -143.5 c 0,6,7
 201 -244 201 -244 83 -316 c 0,8,-1
 21 -231 l 0,9,10
 79 -169 79 -169 129.5 -86.5 c 0,11,12
 180 -4 180 -4 218 102.5 c 0,13,14
 256 209 256 209 278 340.5 c 0,15,16
 300 472 300 472 300 633 c 0,17,18
 300 927 300 927 230 1149.5 c 0,19,20
 160 1372 160 1372 21 1514 c 0,21,-1
 83 1599 l 0,22,23
 339 1457 339 1457 464.5 1218 c 0,24,25
 590 979 590 979 590 661 c 0,0,1
EndSplineSet
EndChar

StartChar: asterisk
Encoding: 13 42 13
Width: 904
Flags: W
LayerCount: 2
Fore
SplineSet
505 1230 m 0,0,-1
 707 1410 l 0,1,2
 717 1404 717 1404 738.5 1387.5 c 0,3,4
 760 1371 760 1371 783 1352.5 c 0,5,6
 806 1334 806 1334 826 1316.5 c 0,7,8
 846 1299 846 1299 854 1291 c 0,9,-1
 842 1231 l 0,10,-1
 563 1136 l 0,11,-1
 819 1051 l 0,12,13
 818 1039 818 1039 814.5 1012.5 c 0,14,15
 811 986 811 986 806.5 956.5 c 0,16,17
 802 927 802 927 797 901 c 0,18,19
 792 875 792 875 789 864 c 0,20,-1
 731 845 l 0,21,-1
 510 1038 l 0,22,-1
 564 775 l 0,23,24
 553 769 553 769 528 759 c 0,25,-1
 475 738 l 0,26,27
 448 727 448 727 423 718.5 c 0,28,29
 398 710 398 710 387 707 c 0,30,-1
 341 748 l 0,31,-1
 398 1037 l 0,32,-1
 197 858 l 0,33,34
 187 864 187 864 165.5 880.5 c 0,35,36
 144 897 144 897 121 915.5 c 0,37,38
 98 934 98 934 77.5 951.5 c 0,39,40
 57 969 57 969 50 977 c 0,41,-1
 62 1037 l 0,42,-1
 342 1132 l 0,43,-1
 85 1217 l 0,44,45
 86 1229 86 1229 89.5 1255.5 c 0,46,47
 93 1282 93 1282 97.5 1311.5 c 0,48,49
 102 1341 102 1341 107 1367 c 0,50,51
 112 1393 112 1393 115 1404 c 0,52,-1
 173 1423 l 0,53,-1
 394 1229 l 0,54,-1
 340 1493 l 0,55,56
 351 1499 351 1499 376 1509 c 0,57,-1
 428 1530 l 0,58,59
 456 1541 456 1541 481 1549.5 c 0,60,61
 506 1558 506 1558 517 1561 c 0,62,-1
 563 1520 l 0,63,-1
 505 1230 l 0,0,-1
EndSplineSet
EndChar

StartChar: plus
Encoding: 14 43 14
Width: 870
Flags: W
LayerCount: 2
Fore
SplineSet
515 221 m 0,0,1
 505 216 505 216 489 210 c 0,2,3
 473 204 473 204 456 198 c 0,4,5
 439 192 439 192 422.5 187 c 0,6,7
 406 182 406 182 395 180 c 0,8,-1
 360 212 l 0,9,-1
 360 485 l 0,10,-1
 85 485 l 0,11,-1
 50 519 l 0,12,13
 53 530 53 530 59.5 546.5 c 0,14,15
 66 563 66 563 73.5 580.5 c 0,16,17
 81 598 81 598 88.5 614 c 0,18,19
 96 630 96 630 101 640 c 0,20,-1
 360 640 l 0,21,-1
 360 906 l 0,22,23
 369 909 369 909 385 914.5 c 0,24,25
 401 920 401 920 419 926 c 0,26,27
 437 932 437 932 453.5 937 c 0,28,29
 470 942 470 942 481 945 c 0,30,-1
 515 912 l 0,31,-1
 515 640 l 0,32,-1
 785 640 l 0,33,-1
 820 606 l 0,34,35
 817 595 817 595 810 578 c 0,36,37
 803 561 803 561 795 543 c 0,38,39
 787 525 787 525 780 509 c 0,40,41
 773 493 773 493 769 485 c 0,42,-1
 515 485 l 0,43,-1
 515 221 l 0,0,1
EndSplineSet
EndChar

StartChar: comma
Encoding: 15 44 15
Width: 579
Flags: W
LayerCount: 2
Fore
SplineSet
510 70 m 0,0,1
 510 12 510 12 484.5 -55 c 0,2,3
 459 -122 459 -122 416 -186.5 c 0,4,5
 373 -251 373 -251 316 -308.5 c 0,6,7
 259 -366 259 -366 196 -405 c 0,8,-1
 121 -350 l 0,9,10
 177 -285 177 -285 211.5 -211 c 0,11,12
 246 -137 246 -137 246 -50 c 0,13,14
 246 -28 246 -28 236 -5.5 c 0,15,16
 226 17 226 17 207.5 35 c 0,17,18
 189 53 189 53 162.5 63.5 c 0,19,20
 136 74 136 74 104 72 c 0,21,-1
 88 159 l 0,22,23
 94 167 94 167 114.5 178 c 0,24,25
 135 189 135 189 164.5 201.5 c 0,26,27
 194 214 194 214 228.5 226.5 c 0,28,29
 263 239 263 239 296.5 248.5 c 0,30,31
 330 258 330 258 360 264 c 0,32,33
 390 270 390 270 409 269 c 0,34,35
 433 258 433 258 452 241.5 c 0,36,37
 471 225 471 225 483.5 201.5 c 0,38,39
 496 178 496 178 503 145.5 c 0,40,41
 510 113 510 113 510 70 c 0,0,1
EndSplineSet
EndChar

StartChar: hyphen
Encoding: 16 45 16
Width: 740
Flags: W
LayerCount: 2
Fore
SplineSet
68 383 m 1,0,-1
 68 598 l 1,1,-1
 602 598 l 1,2,-1
 602 383 l 1,3,-1
 68 383 l 1,0,-1
EndSplineSet
Refer: 356 727 N 1 0 0 1 0 0 2
EndChar

StartChar: period
Encoding: 17 46 17
Width: 579
Flags: W
LayerCount: 2
Fore
SplineSet
489 133 m 0,0,1
 489 91 489 91 473 58.5 c 0,2,3
 457 26 457 26 430 4.5 c 0,4,5
 403 -17 403 -17 367 -28.5 c 0,6,7
 331 -40 331 -40 291 -40 c 0,8,9
 261 -40 261 -40 232 -32 c 0,10,11
 203 -24 203 -24 180.5 -7 c 0,12,13
 158 10 158 10 144.5 37 c 0,14,15
 131 64 131 64 131 102 c 0,16,17
 131 143 131 143 147.5 175.5 c 0,18,19
 164 208 164 208 191.5 230.5 c 0,20,21
 219 253 219 253 255 264.5 c 0,22,23
 291 276 291 276 330 276 c 0,24,25
 358 276 358 276 386.5 268 c 0,26,27
 415 260 415 260 438 242.5 c 0,28,29
 461 225 461 225 475 198 c 0,30,31
 489 171 489 171 489 133 c 0,0,1
EndSplineSet
EndChar

StartChar: slash
Encoding: 18 47 18
Width: 980
Flags: W
LayerCount: 2
Fore
SplineSet
252 -274 m 0,0,1
 242 -281 242 -281 218 -290 c 0,2,3
 194 -299 194 -299 167 -307.5 c 0,4,5
 140 -316 140 -316 114.5 -323.5 c 0,6,7
 89 -331 89 -331 77 -335 c 0,8,-1
 30 -300 l 0,9,-1
 731 1541 l 0,10,11
 744 1550 744 1550 767.5 1558.5 c 0,12,13
 791 1567 791 1567 816.5 1575 c 0,14,15
 842 1583 842 1583 865.5 1589.5 c 0,16,17
 889 1596 889 1596 903 1600 c 0,18,-1
 950 1568 l 0,19,-1
 252 -274 l 0,0,1
EndSplineSet
EndChar

StartChar: zero
Encoding: 19 48 19
Width: 1061
Flags: W
LayerCount: 2
Fore
SplineSet
1005 602 m 0,0,1
 1005 473 1005 473 969.5 358 c 0,2,3
 934 243 934 243 869.5 157 c 0,4,5
 805 71 805 71 716 20.5 c 0,6,7
 627 -30 627 -30 521 -30 c 0,8,9
 414 -30 414 -30 328.5 20.5 c 0,10,11
 243 71 243 71 182 157 c 0,12,13
 121 243 121 243 88.5 358 c 0,14,15
 56 473 56 473 56 602 c 0,16,17
 56 731 56 731 89 846 c 0,18,19
 122 961 122 961 184.5 1047.5 c 0,20,21
 247 1134 247 1134 337 1184.5 c 0,22,23
 427 1235 427 1235 540 1235 c 0,24,25
 650 1235 650 1235 736.5 1185 c 0,26,27
 823 1135 823 1135 882.5 1049 c 0,28,29
 942 963 942 963 973.5 847.5 c 0,30,31
 1005 732 1005 732 1005 602 c 0,0,1
711 565 m 0,32,33
 711 702 711 702 697.5 802.5 c 0,34,35
 684 903 684 903 659 969 c 0,36,37
 634 1035 634 1035 599 1067.5 c 0,38,39
 564 1100 564 1100 521 1100 c 0,40,41
 477 1100 477 1100 445 1076 c 0,42,43
 413 1052 413 1052 392 998 c 0,44,45
 371 944 371 944 360.5 857 c 0,46,47
 350 770 350 770 350 645 c 0,48,49
 350 370 350 370 397 237.5 c 0,50,51
 444 105 444 105 540 105 c 0,52,53
 585 105 585 105 617 129.5 c 0,54,55
 649 154 649 154 670 208.5 c 0,56,57
 691 263 691 263 701 350.5 c 0,58,59
 711 438 711 438 711 565 c 0,32,33
EndSplineSet
EndChar

StartChar: one
Encoding: 20 49 20
Width: 1061
Flags: W
LayerCount: 2
Fore
SplineSet
150 0 m 0,0,-1
 150 93 l 0,1,2
 228 102 228 102 280 113.5 c 0,3,4
 332 125 332 125 363 137 c 0,5,6
 394 149 394 149 407 160.5 c 0,7,8
 420 172 420 172 420 183 c 0,9,-1
 420 900 l 0,10,11
 420 940 420 940 417 962 c 0,12,13
 414 984 414 984 402 998 c 0,14,15
 396 1004 396 1004 380.5 1008 c 0,16,17
 365 1012 365 1012 336 1011 c 0,18,19
 307 1010 307 1010 261.5 1004 c 0,20,21
 216 998 216 998 150 984 c 0,22,-1
 119 1075 l 0,23,24
 148 1080 148 1080 191 1092 c 0,25,26
 234 1104 234 1104 284 1119.5 c 0,27,28
 334 1135 334 1135 387 1153 c 0,29,30
 440 1171 440 1171 488.5 1188 c 0,31,32
 537 1205 537 1205 577.5 1220 c 0,33,34
 618 1235 618 1235 643 1245 c 0,35,-1
 690 1200 l 0,36,-1
 690 183 l 0,37,38
 690 173 690 173 701 161.5 c 0,39,40
 712 150 712 150 740 138 c 0,41,42
 768 126 768 126 816.5 114 c 0,43,44
 865 102 865 102 940 93 c 0,45,-1
 940 0 l 0,46,-1
 150 0 l 0,0,-1
EndSplineSet
EndChar

StartChar: two
Encoding: 21 50 21
Width: 1061
Flags: W
LayerCount: 2
Fore
SplineSet
941 0 m 0,0,-1
 107 0 l 0,1,-1
 78 74 l 0,2,3
 194 211 194 211 282.5 317.5 c 0,4,5
 371 424 371 424 435.5 506.5 c 0,6,7
 500 589 500 589 543 651.5 c 0,8,9
 586 714 586 714 611.5 763 c 0,10,11
 637 812 637 812 647.5 850.5 c 0,12,13
 658 889 658 889 658 924 c 0,14,15
 658 965 658 965 650 1000 c 0,16,17
 642 1035 642 1035 625 1060.5 c 0,18,19
 608 1086 608 1086 581 1100.5 c 0,20,21
 554 1115 554 1115 517 1115 c 0,22,23
 476 1115 476 1115 448 1098 c 0,24,25
 420 1081 420 1081 404.5 1052.5 c 0,26,27
 389 1024 389 1024 385.5 988 c 0,28,29
 382 952 382 952 390 914 c 0,30,31
 373 905 373 905 341 893.5 c 0,32,33
 309 882 309 882 272 872 c 0,34,35
 235 862 235 862 200 854.5 c 0,36,37
 165 847 165 847 142 845 c 0,38,-1
 105 925 l 0,39,40
 105 959 105 959 122 995.5 c 0,41,42
 139 1032 139 1032 170.5 1066.5 c 0,43,44
 202 1101 202 1101 246 1131.5 c 0,45,46
 290 1162 290 1162 343.5 1185 c 0,47,48
 397 1208 397 1208 458 1221.5 c 0,49,50
 519 1235 519 1235 585 1235 c 0,51,52
 668 1235 668 1235 734 1219 c 0,53,54
 800 1203 800 1203 846.5 1172.5 c 0,55,56
 893 1142 893 1142 918 1096.5 c 0,57,58
 943 1051 943 1051 943 992 c 0,59,60
 943 947 943 947 930.5 902.5 c 0,61,62
 918 858 918 858 890.5 808 c 0,63,64
 863 758 863 758 819 699.5 c 0,65,66
 775 641 775 641 711.5 567 c 0,67,68
 648 493 648 493 563.5 401 c 0,69,70
 479 309 479 309 371 191 c 0,71,-1
 764 191 l 0,72,73
 781 191 781 191 794.5 200 c 0,74,75
 808 209 808 209 818.5 223.5 c 0,76,77
 829 238 829 238 836.5 256.5 c 0,78,79
 844 275 844 275 849 295 c 0,80,81
 861 341 861 341 866 399 c 0,82,-1
 956 377 l 0,83,-1
 941 0 l 0,0,-1
EndSplineSet
EndChar

StartChar: three
Encoding: 22 51 22
Width: 1061
Flags: W
LayerCount: 2
Fore
SplineSet
945 381 m 0,0,1
 945 297 945 297 910 222 c 0,2,3
 875 147 875 147 813 91 c 0,4,5
 751 35 751 35 665 2.5 c 0,6,7
 579 -30 579 -30 476 -30 c 0,8,9
 437 -30 437 -30 386.5 -20 c 0,10,11
 336 -10 336 -10 282.5 11 c 0,12,13
 229 32 229 32 176 64 c 0,14,15
 123 96 123 96 78 139 c 0,16,-1
 122 246 l 0,17,18
 213 178 213 178 290.5 149 c 0,19,20
 368 120 368 120 443 120 c 0,21,22
 486 120 486 120 524.5 133.5 c 0,23,24
 563 147 563 147 592 175.5 c 0,25,26
 621 204 621 204 638 249 c 0,27,28
 655 294 655 294 655 358 c 0,29,30
 655 425 655 425 634 470.5 c 0,31,32
 613 516 613 516 582 543 c 0,33,34
 551 570 551 570 515 581.5 c 0,35,36
 479 593 479 593 450 593 c 0,37,-1
 426 593 l 0,38,39
 417 593 417 593 407.5 592 c 0,40,41
 398 591 398 591 387.5 590 c 0,42,43
 377 589 377 589 362 586 c 0,44,-1
 343 686 l 0,45,46
 427 708 427 708 477 739 c 0,47,48
 527 770 527 770 554 804.5 c 0,49,50
 581 839 581 839 589.5 874 c 0,51,52
 598 909 598 909 598 940 c 0,53,54
 598 974 598 974 592 1006 c 0,55,56
 586 1038 586 1038 572 1062 c 0,57,58
 558 1086 558 1086 534.5 1100.5 c 0,59,60
 511 1115 511 1115 476 1115 c 0,61,62
 454 1115 454 1115 434 1102.5 c 0,63,64
 414 1090 414 1090 400.5 1068.5 c 0,65,66
 387 1047 387 1047 383 1017 c 0,67,68
 379 987 379 987 390 953 c 0,69,70
 368 940 368 940 337.5 927 c 0,71,72
 307 914 307 914 273.5 903 c 0,73,74
 240 892 240 892 205.5 884.5 c 0,75,76
 171 877 171 877 141 874 c 0,77,-1
 105 945 l 0,78,79
 105 987 105 987 135.5 1037.5 c 0,80,81
 166 1088 166 1088 222 1132 c 0,82,83
 278 1176 278 1176 357 1205.5 c 0,84,85
 436 1235 436 1235 533 1235 c 0,86,87
 630 1235 630 1235 697.5 1211 c 0,88,89
 765 1187 765 1187 807.5 1147.5 c 0,90,91
 850 1108 850 1108 869 1058.5 c 0,92,93
 888 1009 888 1009 888 958 c 0,94,95
 888 920 888 920 872.5 880.5 c 0,96,97
 857 841 857 841 828.5 805 c 0,98,99
 800 769 800 769 761 740.5 c 0,100,101
 722 712 722 712 675 698 c 0,102,103
 738 692 738 692 788 664.5 c 0,104,105
 838 637 838 637 873 594 c 0,106,107
 908 551 908 551 926.5 496.5 c 0,108,109
 945 442 945 442 945 381 c 0,0,1
EndSplineSet
EndChar

StartChar: four
Encoding: 23 52 23
Width: 1061
Flags: W
LayerCount: 2
Fore
SplineSet
984 450 m 0,0,1
 973 434 973 434 959 416.5 c 0,2,3
 945 399 945 399 930 382.5 c 0,4,5
 915 366 915 366 900.5 352.5 c 0,6,7
 886 339 886 339 875 330 c 0,8,-1
 825 330 l 0,9,-1
 825 144 l 0,10,11
 825 136 825 136 831 129.5 c 0,12,13
 837 123 837 123 853 115.5 c 0,14,15
 869 108 869 108 896 100 c 0,16,17
 923 92 923 92 964 83 c 0,18,-1
 964 0 l 0,19,-1
 355 0 l 0,20,-1
 355 83 l 0,21,22
 420 94 420 94 461 103.5 c 0,23,24
 502 113 502 113 525 121.5 c 0,25,26
 548 130 548 130 556.5 138 c 0,27,28
 565 146 565 146 565 155 c 0,29,-1
 565 330 l 0,30,-1
 98 330 l 0,31,-1
 55 373 l 0,32,-1
 531 1164 l 0,33,34
 556 1172 556 1172 588.5 1182.5 c 0,35,36
 621 1193 621 1193 655 1204 c 0,37,38
 689 1215 689 1215 721.5 1225.5 c 0,39,40
 754 1236 754 1236 778 1245 c 0,41,-1
 825 1200 l 0,42,-1
 825 480 l 0,43,-1
 958 480 l 0,44,-1
 984 450 l 0,0,1
565 960 m 0,45,-1
 263 480 l 0,46,-1
 565 480 l 0,47,-1
 565 960 l 0,45,-1
EndSplineSet
EndChar

StartChar: five
Encoding: 24 53 24
Width: 1061
Flags: W
LayerCount: 2
Fore
SplineSet
946 410 m 0,0,1
 946 323 946 323 919.5 243.5 c 0,2,3
 893 164 893 164 836 103 c 0,4,5
 779 42 779 42 691 6 c 0,6,7
 603 -30 603 -30 480 -30 c 0,8,9
 434 -30 434 -30 381.5 -19.5 c 0,10,11
 329 -9 329 -9 276 12 c 0,12,13
 223 33 223 33 172 63.5 c 0,14,15
 121 94 121 94 78 134 c 0,16,-1
 133 231 l 0,17,18
 186 194 186 194 232.5 170.5 c 0,19,20
 279 147 279 147 319.5 133.5 c 0,21,22
 360 120 360 120 394.5 115 c 0,23,24
 429 110 429 110 458 110 c 0,25,26
 503 110 503 110 542.5 129 c 0,27,28
 582 148 582 148 612 181.5 c 0,29,30
 642 215 642 215 659 262.5 c 0,31,32
 676 310 676 310 676 367 c 0,33,34
 676 435 676 435 658 486.5 c 0,35,36
 640 538 640 538 609 572 c 0,37,38
 578 606 578 606 535 623 c 0,39,40
 492 640 492 640 443 640 c 0,41,42
 397 640 397 640 360.5 633.5 c 0,43,44
 324 627 324 627 293.5 615 c 0,45,46
 263 603 263 603 236.5 586.5 c 0,47,48
 210 570 210 570 184 550 c 0,49,-1
 137 583 l 0,50,51
 143 619 143 619 151 669.5 c 0,52,53
 159 720 159 720 167.5 777.5 c 0,54,55
 176 835 176 835 184.5 895.5 c 0,56,57
 193 956 193 956 200 1013 c 0,58,59
 207 1070 207 1070 212 1120 c 0,60,61
 217 1170 217 1170 219 1205 c 0,62,-1
 775 1205 l 0,63,64
 804 1205 804 1205 826 1207.5 c 0,65,66
 848 1210 848 1210 864 1214 c 0,67,68
 882 1218 882 1218 896 1223 c 0,69,-1
 935 1184 l 0,70,71
 924 1168 924 1168 904.5 1141 c 0,72,73
 885 1114 885 1114 863.5 1087 c 0,74,75
 842 1060 842 1060 822.5 1037 c 0,76,77
 803 1014 803 1014 791 1005 c 0,78,-1
 344 1005 l 0,79,80
 342 976 342 976 338 941.5 c 0,81,82
 334 907 334 907 329 872.5 c 0,83,84
 324 838 324 838 318 807 c 0,85,86
 312 776 312 776 308 754 c 0,87,88
 354 776 354 776 409.5 788 c 0,89,90
 465 800 465 800 533 800 c 0,91,92
 637 800 637 800 714.5 766.5 c 0,93,94
 792 733 792 733 843.5 678.5 c 0,95,96
 895 624 895 624 920.5 553.5 c 0,97,98
 946 483 946 483 946 410 c 0,0,1
EndSplineSet
EndChar

StartChar: six
Encoding: 25 54 25
Width: 1061
Flags: W
LayerCount: 2
Fore
SplineSet
1001 412 m 0,0,1
 1001 365 1001 365 988.5 314 c 0,2,3
 976 263 976 263 952 214 c 0,4,5
 928 165 928 165 891.5 121 c 0,6,7
 855 77 855 77 806.5 43.5 c 0,8,9
 758 10 758 10 698 -10 c 0,10,11
 638 -30 638 -30 566 -30 c 0,12,13
 467 -30 467 -30 380 6.5 c 0,14,15
 293 43 293 43 228.5 109 c 0,16,17
 164 175 164 175 127 267.5 c 0,18,19
 90 360 90 360 90 473 c 0,20,21
 90 614 90 614 140 743.5 c 0,22,23
 190 873 190 873 288.5 976.5 c 0,24,25
 387 1080 387 1080 532 1151.5 c 0,26,27
 677 1223 677 1223 868 1249 c 0,28,-1
 897 1150 l 0,29,30
 775 1124 775 1124 687 1079 c 0,31,32
 599 1034 599 1034 539 974 c 0,33,34
 479 914 479 914 444 842 c 0,35,36
 409 770 409 770 394 691 c 0,37,38
 455 739 455 739 516.5 764.5 c 0,39,40
 578 790 578 790 631 790 c 0,41,42
 718 790 718 790 786.5 761.5 c 0,43,44
 855 733 855 733 902.5 683 c 0,45,46
 950 633 950 633 975.5 563.5 c 0,47,48
 1001 494 1001 494 1001 412 c 0,0,1
560 640 m 0,49,50
 520 640 520 640 473 612 c 0,51,52
 426 584 426 584 380 536 c 0,53,54
 380 418 380 418 396 336 c 0,55,56
 412 254 412 254 440 202.5 c 0,57,58
 468 151 468 151 505.5 128 c 0,59,60
 543 105 543 105 585 105 c 0,61,62
 625 105 625 105 651.5 125.5 c 0,63,64
 678 146 678 146 693.5 180 c 0,65,66
 709 214 709 214 715 258 c 0,67,68
 721 302 721 302 721 348 c 0,69,70
 721 442 721 442 707.5 499 c 0,71,72
 694 556 694 556 671.5 587.5 c 0,73,74
 649 619 649 619 620 629.5 c 0,75,76
 591 640 591 640 560 640 c 0,49,50
EndSplineSet
EndChar

StartChar: seven
Encoding: 26 55 26
Width: 1061
Flags: W
LayerCount: 2
Fore
SplineSet
985 1167 m 0,0,1
 939 1059 939 1059 894.5 950 c 0,2,3
 850 841 850 841 808.5 735 c 0,4,5
 767 629 767 629 730 529 c 0,6,7
 693 429 693 429 661.5 341.5 c 0,8,9
 630 254 630 254 604.5 180.5 c 0,10,11
 579 107 579 107 562 54 c 0,12,13
 544 42 544 42 513.5 29.5 c 0,14,15
 483 17 483 17 448 6 c 0,16,17
 413 -5 413 -5 379 -14.5 c 0,18,19
 345 -24 345 -24 320 -30 c 0,20,-1
 269 13 l 0,21,22
 327 115 327 115 376 204.5 c 0,23,24
 425 294 425 294 467.5 376 c 0,25,26
 510 458 510 458 548 534.5 c 0,27,28
 586 611 586 611 621.5 687.5 c 0,29,30
 657 764 657 764 691.5 842 c 0,31,32
 726 920 726 920 763 1005 c 0,33,-1
 319 1005 l 0,34,35
 304 1005 304 1005 287 1001 c 0,36,37
 270 997 270 997 251 980.5 c 0,38,39
 232 964 232 964 211.5 931 c 0,40,41
 191 898 191 898 170 840 c 0,42,-1
 94 868 l 0,43,44
 96 883 96 883 100 910 c 0,45,46
 104 937 104 937 108.5 969.5 c 0,47,48
 113 1002 113 1002 118 1037.5 c 0,49,50
 123 1073 123 1073 128 1105 c 0,51,52
 133 1137 133 1137 138 1163.5 c 0,53,54
 143 1190 143 1190 147 1205 c 0,55,-1
 952 1205 l 0,56,-1
 985 1167 l 0,0,1
EndSplineSet
EndChar

StartChar: eight
Encoding: 27 56 27
Width: 1061
Flags: W
LayerCount: 2
Fore
SplineSet
987 352 m 0,0,1
 987 274 987 274 950.5 205 c 0,2,3
 914 136 914 136 850 83.5 c 0,4,5
 786 31 786 31 699 0.5 c 0,6,7
 612 -30 612 -30 511 -30 c 0,8,9
 403 -30 403 -30 321 -4 c 0,10,11
 239 22 239 22 184.5 66 c 0,12,13
 130 110 130 110 102 166.5 c 0,14,15
 74 223 74 223 74 285 c 0,16,17
 74 336 74 336 94.5 384.5 c 0,18,19
 115 433 115 433 151.5 477 c 0,20,21
 188 521 188 521 239 559 c 0,22,23
 290 597 290 597 351 628 c 0,24,25
 306 649 306 649 265 673.5 c 0,26,27
 224 698 224 698 193 731.5 c 0,28,29
 162 765 162 765 143.5 809.5 c 0,30,31
 125 854 125 854 125 915 c 0,32,33
 125 984 125 984 157.5 1043 c 0,34,35
 190 1102 190 1102 246.5 1144.5 c 0,36,37
 303 1187 303 1187 379 1211 c 0,38,39
 455 1235 455 1235 542 1235 c 0,40,41
 643 1235 643 1235 717.5 1215 c 0,42,43
 792 1195 792 1195 840.5 1160 c 0,44,45
 889 1125 889 1125 913 1076 c 0,46,47
 937 1027 937 1027 937 969 c 0,48,49
 937 930 937 930 920 895 c 0,50,51
 903 860 903 860 873.5 827.5 c 0,52,53
 844 795 844 795 804 764.5 c 0,54,55
 764 734 764 734 717 705 c 0,56,57
 769 681 769 681 818 651 c 0,58,59
 867 621 867 621 904.5 579.5 c 0,60,61
 942 538 942 538 964.5 482.5 c 0,62,63
 987 427 987 427 987 352 c 0,0,1
697 309 m 0,64,65
 697 364 697 364 679.5 405 c 0,66,67
 662 446 662 446 632 476.5 c 0,68,69
 602 507 602 507 562 530 c 0,70,71
 522 553 522 553 478 573 c 0,72,73
 422 514 422 514 393 454 c 0,74,75
 364 394 364 394 364 315 c 0,76,77
 364 263 364 263 380 223 c 0,78,79
 396 183 396 183 421.5 155.5 c 0,80,81
 447 128 447 128 478 114 c 0,82,83
 509 100 509 100 540 100 c 0,84,85
 576 100 576 100 605.5 116.5 c 0,86,87
 635 133 635 133 655 161 c 0,88,89
 675 189 675 189 686 227 c 0,90,91
 697 265 697 265 697 309 c 0,64,65
385 950 m 0,92,93
 385 914 385 914 400.5 887 c 0,94,95
 416 860 416 860 443 838 c 0,96,97
 470 816 470 816 506 797.5 c 0,98,99
 542 779 542 779 583 762 c 0,100,101
 658 851 658 851 657 938 c 0,102,103
 657 990 657 990 644 1023.5 c 0,104,105
 631 1057 631 1057 610.5 1076.5 c 0,106,107
 590 1096 590 1096 564 1103.5 c 0,108,109
 538 1111 538 1111 511 1111 c 0,110,111
 481 1111 481 1111 458 1098.5 c 0,112,113
 435 1086 435 1086 418.5 1064 c 0,114,115
 402 1042 402 1042 393.5 1013 c 0,116,117
 385 984 385 984 385 950 c 0,92,93
EndSplineSet
EndChar

StartChar: nine
Encoding: 28 57 28
Width: 1061
Flags: W
LayerCount: 2
Fore
SplineSet
990 731 m 0,0,1
 990 579 990 579 940.5 447 c 0,2,3
 891 315 891 315 793.5 213.5 c 0,4,5
 696 112 696 112 549.5 45 c 0,6,7
 403 -22 403 -22 210 -43 c 0,8,-1
 182 56 l 0,9,10
 323 90 323 90 417 137 c 0,11,12
 511 184 511 184 569.5 242 c 0,13,14
 628 300 628 300 656.5 369 c 0,15,16
 685 438 685 438 694 516 c 0,17,18
 643 469 643 469 580.5 442 c 0,19,20
 518 415 518 415 448 415 c 0,21,22
 357 415 357 415 288.5 446.5 c 0,23,24
 220 478 220 478 173.5 530.5 c 0,25,26
 127 583 127 583 103.5 651.5 c 0,27,28
 80 720 80 720 80 795 c 0,29,30
 80 871 80 871 114 949 c 0,31,32
 148 1027 148 1027 209.5 1090.5 c 0,33,34
 271 1154 271 1154 356.5 1194.5 c 0,35,36
 442 1235 442 1235 546 1235 c 0,37,38
 646 1235 646 1235 727.5 1206 c 0,39,40
 809 1177 809 1177 867.5 1115.5 c 0,41,42
 926 1054 926 1054 958 959 c 0,43,44
 990 864 990 864 990 731 c 0,0,1
521 575 m 0,45,46
 574 575 574 575 618.5 600.5 c 0,47,48
 663 626 663 626 700 667 c 0,49,50
 698 806 698 806 682 891 c 0,51,52
 666 976 666 976 642 1022.5 c 0,53,54
 618 1069 618 1069 587.5 1084.5 c 0,55,56
 557 1100 557 1100 525 1100 c 0,57,58
 447 1100 447 1100 403.5 1037.5 c 0,59,60
 360 975 360 975 360 856 c 0,61,62
 360 775 360 775 377 720.5 c 0,63,64
 394 666 394 666 419 634 c 0,65,66
 444 602 444 602 472 588.5 c 0,67,68
 500 575 500 575 521 575 c 0,45,46
EndSplineSet
EndChar

StartChar: colon
Encoding: 29 58 29
Width: 579
Flags: W
LayerCount: 2
Fore
SplineSet
469 852 m 256,0,1
 469 817 469 817 456.5 786.5 c 128,-1,2
 444 756 444 756 421.5 733.5 c 128,-1,3
 399 711 399 711 368.5 698.5 c 128,-1,4
 338 686 338 686 303 686 c 256,5,6
 268 686 268 686 237.5 698.5 c 128,-1,7
 207 711 207 711 184.5 733.5 c 128,-1,8
 162 756 162 756 148.5 786.5 c 128,-1,9
 135 817 135 817 135 852 c 256,10,11
 135 887 135 887 148.5 917.5 c 128,-1,12
 162 948 162 948 184.5 970.5 c 128,-1,13
 207 993 207 993 237.5 1006.5 c 128,-1,14
 268 1020 268 1020 303 1020 c 256,15,16
 338 1020 338 1020 368.5 1006.5 c 128,-1,17
 399 993 399 993 421.5 970.5 c 128,-1,18
 444 948 444 948 456.5 917.5 c 128,-1,19
 469 887 469 887 469 852 c 256,0,1
469 145 m 256,20,21
 469 110 469 110 456.5 79.5 c 128,-1,22
 444 49 444 49 421.5 26.5 c 128,-1,23
 399 4 399 4 368.5 -9.5 c 128,-1,24
 338 -23 338 -23 303 -23 c 256,25,26
 268 -23 268 -23 237.5 -9.5 c 128,-1,27
 207 4 207 4 184.5 26.5 c 128,-1,28
 162 49 162 49 148.5 80 c 128,-1,29
 135 111 135 111 135 145 c 256,30,31
 135 180 135 180 148.5 211 c 128,-1,32
 162 242 162 242 184.5 264.5 c 128,-1,33
 207 287 207 287 237.5 300 c 128,-1,34
 268 313 268 313 303 313 c 256,35,36
 338 313 338 313 368.5 300 c 128,-1,37
 399 287 399 287 421.5 264.5 c 128,-1,38
 444 242 444 242 456.5 211 c 128,-1,39
 469 180 469 180 469 145 c 256,20,21
EndSplineSet
Refer: 17 46 N 1 0 0 1 0 684 2
Refer: 17 46 N 1 0 0 1 0 0 2
EndChar

StartChar: semicolon
Encoding: 30 59 30
Width: 579
Flags: W
LayerCount: 2
Fore
SplineSet
469 852 m 256,0,1
 469 817 469 817 456.5 786.5 c 128,-1,2
 444 756 444 756 421.5 733.5 c 128,-1,3
 399 711 399 711 368.5 698.5 c 128,-1,4
 338 686 338 686 303 686 c 256,5,6
 268 686 268 686 237.5 698.5 c 128,-1,7
 207 711 207 711 184.5 733.5 c 128,-1,8
 162 756 162 756 148.5 786.5 c 128,-1,9
 135 817 135 817 135 852 c 256,10,11
 135 887 135 887 148.5 917.5 c 128,-1,12
 162 948 162 948 184.5 970.5 c 128,-1,13
 207 993 207 993 237.5 1006.5 c 128,-1,14
 268 1020 268 1020 303 1020 c 256,15,16
 338 1020 338 1020 368.5 1006.5 c 128,-1,17
 399 993 399 993 421.5 970.5 c 128,-1,18
 444 948 444 948 456.5 917.5 c 128,-1,19
 469 887 469 887 469 852 c 256,0,1
494 121 m 0,20,21
 494 58 494 58 476.5 -0.5 c 128,-1,22
 459 -59 459 -59 429 -111.5 c 128,-1,23
 399 -164 399 -164 358 -207 c 128,-1,24
 317 -250 317 -250 271 -281.5 c 128,-1,25
 225 -313 225 -313 175 -332.5 c 128,-1,26
 125 -352 125 -352 78 -354 c 1,27,-1
 78 -256 l 1,28,29
 117 -252 117 -252 161 -235.5 c 128,-1,30
 205 -219 205 -219 242 -187.5 c 128,-1,31
 279 -156 279 -156 301.5 -106.5 c 128,-1,32
 324 -57 324 -57 322 14 c 1,33,-1
 199 14 l 1,34,35
 181 28 181 28 169.5 44.5 c 128,-1,36
 158 61 158 61 150.5 77.5 c 128,-1,37
 143 94 143 94 141 110.5 c 128,-1,38
 139 127 139 127 139 141 c 0,39,40
 139 180 139 180 153.5 211 c 128,-1,41
 168 242 168 242 191.5 263.5 c 128,-1,42
 215 285 215 285 245.5 297 c 128,-1,43
 276 309 276 309 309 309 c 0,44,45
 401 309 401 309 451.5 257 c 128,-1,46
 502 205 502 205 494 121 c 0,20,21
EndSplineSet
Refer: 17 46 N 1 0 0 1 0 684 2
Refer: 15 44 N 1 0 0 1 0 0 2
EndChar

StartChar: less
Encoding: 31 60 31
Width: 940
Flags: W
LayerCount: 2
Fore
SplineSet
890 336 m 0,0,1
 879 326 879 326 865.5 312.5 c 0,2,3
 852 299 852 299 837.5 285 c 0,4,5
 823 271 823 271 807 258 c 0,6,7
 791 245 791 245 776 236 c 0,8,-1
 85 480 l 0,9,-1
 50 525 l 0,10,11
 50 528 50 528 51 529 c 0,12,13
 51 531 51 531 51.5 531.5 c 0,14,15
 52 532 52 532 52 534 c 0,16,-1
 54 540 l 0,17,-1
 56 549 l 0,18,-1
 60 563 l 0,19,-1
 64 574 l 0,20,-1
 68 589 l 0,21,-1
 72 601 l 0,22,23
 73 606 73 606 77 616 c 0,24,25
 77 618 77 618 78 619 c 0,26,-1
 80 626 l 0,27,28
 81 627 81 627 81 629 c 0,29,-1
 86 642 l 0,30,-1
 91 654 l 0,31,-1
 855 927 l 0,32,-1
 890 892 l 0,33,34
 887 881 887 881 882 862 c 0,35,36
 877 843 877 843 871 822 c 0,37,38
 865 801 865 801 859.5 782 c 0,39,40
 854 763 854 763 851 754 c 0,41,-1
 333 568 l 0,42,-1
 863 382 l 0,43,-1
 890 336 l 0,0,1
EndSplineSet
EndChar

StartChar: equal
Encoding: 32 61 32
Width: 940
Flags: W
LayerCount: 2
Fore
SplineSet
890 756 m 0,0,1
 887 745 887 745 880 728 c 0,2,3
 873 711 873 711 865 693 c 0,4,5
 857 675 857 675 850 659 c 0,6,7
 843 643 843 643 839 635 c 0,8,-1
 85 635 l 0,9,-1
 50 669 l 0,10,11
 53 680 53 680 59.5 696.5 c 0,12,13
 66 713 66 713 73.5 730.5 c 0,14,15
 81 748 81 748 88.5 764 c 0,16,17
 96 780 96 780 101 790 c 0,18,-1
 855 790 l 0,19,-1
 890 756 l 0,0,1
890 456 m 0,20,21
 887 445 887 445 880 428 c 0,22,23
 873 411 873 411 865 393 c 0,24,25
 857 375 857 375 850 359 c 0,26,27
 843 343 843 343 839 335 c 0,28,-1
 85 335 l 0,29,-1
 50 369 l 0,30,31
 53 380 53 380 59.5 396.5 c 0,32,33
 66 413 66 413 73.5 430.5 c 0,34,35
 81 448 81 448 88.5 464 c 0,36,37
 96 480 96 480 101 490 c 0,38,-1
 855 490 l 0,39,-1
 890 456 l 0,20,21
EndSplineSet
EndChar

StartChar: greater
Encoding: 33 62 33
Width: 940
Flags: W
LayerCount: 2
Fore
SplineSet
890 638 m 0,0,1
 883 609 883 609 871 572 c 0,2,3
 859 535 859 535 849 509 c 0,4,-1
 85 236 l 0,5,-1
 50 271 l 0,6,7
 53 281 53 281 58 300.5 c 0,8,9
 63 320 63 320 69 341 c 0,10,11
 75 362 75 362 80.5 381 c 0,12,13
 86 400 86 400 89 409 c 0,14,-1
 607 594 l 0,15,-1
 77 781 l 0,16,-1
 50 827 l 0,17,18
 61 837 61 837 74.5 850.5 c 0,19,20
 88 864 88 864 102.5 878 c 0,21,22
 117 892 117 892 133 905 c 0,23,24
 149 918 149 918 164 927 c 0,25,-1
 855 683 l 0,26,-1
 890 638 l 0,0,1
EndSplineSet
EndChar

StartChar: question
Encoding: 34 63 34
Width: 947
Flags: W
LayerCount: 2
Fore
SplineSet
631 133 m 0,0,1
 631 91 631 91 615 58.5 c 0,2,3
 599 26 599 26 572 4.5 c 0,4,5
 545 -17 545 -17 509 -28.5 c 0,6,7
 473 -40 473 -40 433 -40 c 0,8,9
 403 -40 403 -40 374 -32 c 0,10,11
 345 -24 345 -24 322.5 -7 c 0,12,13
 300 10 300 10 286.5 37 c 0,14,15
 273 64 273 64 273 102 c 0,16,17
 273 143 273 143 289.5 175.5 c 0,18,19
 306 208 306 208 333.5 230.5 c 0,20,21
 361 253 361 253 397 264.5 c 0,22,23
 433 276 433 276 472 276 c 0,24,25
 500 276 500 276 528.5 268 c 0,26,27
 557 260 557 260 580 242.5 c 0,28,29
 603 225 603 225 617 198 c 0,30,31
 631 171 631 171 631 133 c 0,0,1
886 1165 m 0,32,33
 886 1090 886 1090 860 1027.5 c 0,34,35
 834 965 834 965 794 911.5 c 0,36,37
 754 858 754 858 707.5 810 c 0,38,39
 661 762 661 762 620.5 714.5 c 0,40,41
 580 667 580 667 551.5 618.5 c 0,42,43
 523 570 523 570 519 515 c 0,44,-1
 513 419 l 0,45,46
 494 405 494 405 464.5 395.5 c 0,47,48
 435 386 435 386 407 378 c 0,49,-1
 372 409 l 0,50,-1
 364 515 l 0,51,52
 361 572 361 572 376.5 626 c 0,53,54
 392 680 392 680 417.5 731.5 c 0,55,56
 443 783 443 783 473.5 832.5 c 0,57,58
 504 882 504 882 530.5 930 c 0,59,60
 557 978 557 978 574.5 1025 c 0,61,62
 592 1072 592 1072 592 1120 c 0,63,64
 592 1243 592 1243 557 1298.5 c 0,65,66
 522 1354 522 1354 464 1354 c 0,67,68
 443 1354 443 1354 423 1342.5 c 0,69,70
 403 1331 403 1331 387.5 1309 c 0,71,72
 372 1287 372 1287 363 1256 c 0,73,74
 354 1225 354 1225 354 1186 c 0,75,76
 354 1172 354 1172 357.5 1152 c 0,77,78
 361 1132 361 1132 366 1118 c 0,79,80
 350 1110 350 1110 314.5 1099 c 0,81,82
 279 1088 279 1088 238.5 1078 c 0,83,84
 198 1068 198 1068 159.5 1060 c 0,85,86
 121 1052 121 1052 99 1050 c 0,87,-1
 62 1090 l 0,88,89
 60 1098 60 1098 60 1116 c 0,90,-1
 60 1143 l 0,91,92
 60 1213 60 1213 98.5 1274.5 c 0,93,94
 137 1336 137 1336 202 1382 c 0,95,96
 267 1428 267 1428 352.5 1454 c 0,97,98
 438 1480 438 1480 532 1480 c 0,99,100
 617 1480 617 1480 683 1457 c 0,101,102
 749 1434 749 1434 794 1392.5 c 0,103,104
 839 1351 839 1351 862.5 1293 c 0,105,106
 886 1235 886 1235 886 1165 c 0,32,33
EndSplineSet
EndChar

StartChar: at
Encoding: 35 64 35
Width: 1843
Flags: W
LayerCount: 2
Fore
SplineSet
1753 579 m 0,0,1
 1753 495 1753 495 1733 417 c 0,2,3
 1713 339 1713 339 1677 271.5 c 0,4,5
 1641 204 1641 204 1592.5 148.5 c 0,6,7
 1544 93 1544 93 1486.5 53.5 c 0,8,9
 1429 14 1429 14 1365.5 -8 c 0,10,11
 1302 -30 1302 -30 1237 -30 c 0,12,13
 1205 -30 1205 -30 1177.5 -23 c 0,14,15
 1150 -16 1150 -16 1127.5 1.5 c 0,16,17
 1105 19 1105 19 1087.5 48 c 0,18,19
 1070 77 1070 77 1060 122 c 0,20,21
 1019 76 1019 76 989 46.5 c 0,22,23
 959 17 959 17 931 0 c 0,24,25
 903 -17 903 -17 873.5 -23.5 c 0,26,27
 844 -30 844 -30 804 -30 c 0,28,29
 753 -30 753 -30 700.5 -3.5 c 0,30,31
 648 23 648 23 606 79.5 c 0,32,33
 564 136 564 136 537 223.5 c 0,34,35
 510 311 510 311 510 434 c 0,36,37
 510 499 510 499 523 563 c 0,38,39
 536 627 536 627 561.5 685.5 c 0,40,41
 587 744 587 744 624.5 794.5 c 0,42,43
 662 845 662 845 711 881.5 c 0,44,45
 760 918 760 918 819.5 939 c 0,46,47
 879 960 879 960 949 960 c 0,48,49
 972 960 972 960 992.5 956.5 c 0,50,51
 1013 953 1013 953 1033.5 943.5 c 0,52,53
 1054 934 1054 934 1075 916 c 0,54,55
 1096 898 1096 898 1119 869 c 0,56,57
 1151 879 1151 879 1177.5 889 c 0,58,59
 1204 899 1204 899 1228 909.5 c 0,60,61
 1252 920 1252 920 1275 932.5 c 0,62,63
 1298 945 1298 945 1323 960 c 0,64,-1
 1354 930 l 0,65,66
 1345 893 1345 893 1339 853 c 0,67,68
 1333 819 1333 819 1328.5 777 c 0,69,70
 1324 735 1324 735 1324 693 c 0,71,-1
 1324 285 l 0,72,73
 1324 259 1324 259 1325.5 239.5 c 0,74,75
 1327 220 1327 220 1333 206.5 c 0,76,77
 1339 193 1339 193 1350.5 186 c 0,78,79
 1362 179 1362 179 1382 179 c 0,80,81
 1407 179 1407 179 1434 199.5 c 0,82,83
 1461 220 1461 220 1483 261 c 0,84,85
 1505 302 1505 302 1519 365 c 0,86,87
 1533 428 1533 428 1533 512 c 0,88,89
 1533 684 1533 684 1491.5 810.5 c 0,90,91
 1450 937 1450 937 1374.5 1019.5 c 0,92,93
 1299 1102 1299 1102 1192 1142.5 c 0,94,95
 1085 1183 1085 1183 955 1183 c 0,96,97
 802 1183 802 1183 687 1131 c 0,98,99
 572 1079 572 1079 494.5 989 c 0,100,101
 417 899 417 899 378.5 779 c 0,102,103
 340 659 340 659 340 524 c 0,104,105
 340 332 340 332 391.5 189 c 0,106,107
 443 46 443 46 532 -48 c 0,108,109
 621 -142 621 -142 742 -188.5 c 0,110,111
 863 -235 863 -235 1003 -235 c 0,112,113
 1102 -235 1102 -235 1187.5 -217.5 c 0,114,115
 1273 -200 1273 -200 1342 -174 c 0,116,117
 1411 -148 1411 -148 1462 -118 c 0,118,119
 1513 -88 1513 -88 1543 -62 c 0,120,-1
 1596 -159 l 0,121,122
 1560 -201 1560 -201 1502.5 -247.5 c 0,123,124
 1445 -294 1445 -294 1365.5 -333.5 c 0,125,126
 1286 -373 1286 -373 1183 -399 c 0,127,128
 1080 -425 1080 -425 954 -425 c 0,129,130
 763 -425 763 -425 604 -365 c 0,131,132
 445 -305 445 -305 331 -191 c 0,133,134
 217 -77 217 -77 153.5 88.5 c 0,135,136
 90 254 90 254 90 465 c 0,137,138
 90 588 90 588 121.5 703.5 c 0,139,140
 153 819 153 819 211 919.5 c 0,141,142
 269 1020 269 1020 351 1103.5 c 0,143,144
 433 1187 433 1187 533.5 1247 c 0,145,146
 634 1307 634 1307 750.5 1340 c 0,147,148
 867 1373 867 1373 994 1373 c 0,149,150
 1162 1373 1162 1373 1301.5 1325 c 0,151,152
 1441 1277 1441 1277 1541.5 1179 c 0,153,154
 1642 1081 1642 1081 1697.5 931.5 c 0,155,156
 1753 782 1753 782 1753 579 c 0,0,1
1054 731 m 0,157,158
 1034 772 1034 772 1008.5 796 c 0,159,160
 983 820 983 820 938 820 c 0,161,162
 858 820 858 820 819 736 c 0,163,164
 780 652 780 652 780 465 c 0,165,166
 780 380 780 380 792 325 c 0,167,168
 804 270 804 270 823.5 237.5 c 0,169,170
 843 205 843 205 867 192.5 c 0,171,172
 891 180 891 180 915 180 c 0,173,174
 934 180 934 180 950 184.5 c 0,175,176
 966 189 966 189 981.5 201.5 c 0,177,178
 997 214 997 214 1014 235.5 c 0,179,180
 1031 257 1031 257 1054 290 c 0,181,-1
 1054 731 l 0,157,158
EndSplineSet
EndChar

StartChar: A
Encoding: 36 65 36
Width: 1309
Flags: W
LayerCount: 2
Fore
SplineSet
396 425 m 0,0,-1
 305 151 l 0,1,2
 295 120 295 120 328.5 106 c 0,3,4
 362 92 362 92 444 83 c 0,5,-1
 444 0 l 0,6,-1
 0 0 l 0,7,-1
 0 83 l 0,8,9
 68 95 68 95 103 108 c 0,10,11
 138 121 138 121 148 151 c 0,12,-1
 490 1197 l 0,13,14
 517 1220 517 1220 549.5 1238.5 c 0,15,16
 582 1257 582 1257 616 1272 c 0,17,18
 650 1287 650 1287 683.5 1298 c 0,19,20
 717 1309 717 1309 747 1317 c 0,21,-1
 1167 151 l 0,22,23
 1172 137 1172 137 1179.5 126 c 0,24,25
 1187 115 1187 115 1200.5 107 c 0,26,27
 1214 99 1214 99 1235 93 c 0,28,29
 1256 87 1256 87 1288 83 c 0,30,-1
 1288 0 l 0,31,-1
 766 0 l 0,32,-1
 766 83 l 0,33,34
 843 87 843 87 870.5 102.5 c 0,35,36
 898 118 898 118 887 151 c 0,37,-1
 789 425 l 0,38,-1
 396 425 l 0,0,-1
743 555 m 0,39,-1
 582 1003 l 0,40,-1
 439 555 l 0,41,-1
 743 555 l 0,39,-1
EndSplineSet
EndChar

StartChar: B
Encoding: 37 66 37
Width: 1266
Flags: W
LayerCount: 2
Fore
SplineSet
1166 356 m 0,0,1
 1166 271 1166 271 1130 202.5 c 0,2,3
 1094 134 1094 134 1025 86 c 0,4,5
 956 38 956 38 856 12 c 0,6,7
 756 -14 756 -14 629 -14 c 0,8,9
 607 -14 607 -14 573.5 -13.5 c 0,10,11
 540 -13 540 -13 500.5 -12 c 0,12,13
 461 -11 461 -11 417.5 -10 c 0,14,15
 374 -9 374 -9 332 -7 c 0,16,17
 233 -4 233 -4 123 0 c 0,18,-1
 40 0 l 0,19,-1
 40 83 l 0,20,21
 108 97 108 97 141.5 113.5 c 0,22,23
 175 130 175 130 175 144 c 0,24,-1
 175 1156 l 0,25,26
 136 1152 136 1152 101.5 1147.5 c 0,27,28
 67 1143 67 1143 40 1138 c 0,29,-1
 26 1230 l 0,30,31
 72 1241 72 1241 136.5 1251.5 c 0,32,33
 201 1262 201 1262 272 1270.5 c 0,34,35
 343 1279 343 1279 415 1284.5 c 0,36,37
 487 1290 487 1290 549 1290 c 0,38,39
 668 1290 668 1290 762 1271.5 c 0,40,41
 856 1253 856 1253 921 1218 c 0,42,43
 986 1183 986 1183 1020.5 1133 c 0,44,45
 1055 1083 1055 1083 1055 1020 c 0,46,47
 1055 912 1055 912 995.5 835 c 0,48,49
 936 758 936 758 815 723 c 0,50,51
 894 711 894 711 958.5 678 c 0,52,53
 1023 645 1023 645 1069 596.5 c 0,54,55
 1115 548 1115 548 1140.5 486.5 c 0,56,57
 1166 425 1166 425 1166 356 c 0,0,1
580 635 m 0,58,59
 535 635 535 635 507.5 631 c 0,60,61
 480 627 480 627 455 622 c 0,62,-1
 455 134 l 0,63,64
 455 128 455 128 458 121 c 0,65,66
 486 109 486 109 516 104.5 c 0,67,68
 546 100 546 100 587 100 c 0,69,70
 731 100 731 100 801.5 164.5 c 0,71,72
 872 229 872 229 872 342 c 0,73,74
 872 397 872 397 859 449.5 c 0,75,76
 846 502 846 502 813 543.5 c 0,77,78
 780 585 780 585 723.5 610 c 0,79,80
 667 635 667 635 580 635 c 0,58,59
483 1176 m 0,81,82
 476 1176 476 1176 469.5 1175.5 c 0,83,84
 463 1175 463 1175 455 1175 c 0,85,-1
 455 745 l 0,86,-1
 469 745 l 0,87,88
 564 745 564 745 623 764 c 0,89,90
 682 783 682 783 714.5 814.5 c 0,91,92
 747 846 747 846 758.5 887 c 0,93,94
 770 928 770 928 770 971 c 0,95,96
 770 1021 770 1021 756 1059 c 0,97,98
 742 1097 742 1097 708.5 1123 c 0,99,100
 675 1149 675 1149 620 1162.5 c 0,101,102
 565 1176 565 1176 483 1176 c 0,81,82
EndSplineSet
EndChar

StartChar: C
Encoding: 38 67 38
Width: 1158
Flags: W
LayerCount: 2
Fore
SplineSet
1088 211 m 0,0,1
 960 82 960 82 834.5 26 c 0,2,3
 709 -30 709 -30 591 -30 c 0,4,5
 487 -30 487 -30 389.5 12 c 0,6,7
 292 54 292 54 216.5 133 c 0,8,9
 141 212 141 212 95.5 326.5 c 0,10,11
 50 441 50 441 50 586 c 0,12,13
 50 746 50 746 99.5 876 c 0,14,15
 149 1006 149 1006 235.5 1098.5 c 0,16,17
 322 1191 322 1191 440 1241 c 0,18,19
 558 1291 558 1291 696 1290 c 0,20,21
 750 1290 750 1290 805 1282 c 0,22,23
 860 1274 860 1274 910 1260.5 c 0,24,25
 960 1247 960 1247 1001.5 1229 c 0,26,27
 1043 1211 1043 1211 1069 1190 c 0,28,29
 1073 1187 1073 1187 1068.5 1170 c 0,30,31
 1064 1153 1064 1153 1054 1128.5 c 0,32,33
 1044 1104 1044 1104 1031 1075.5 c 0,34,35
 1018 1047 1018 1047 1004.5 1021 c 0,36,37
 991 995 991 995 979 975 c 0,38,39
 967 955 967 955 959 947 c 0,40,-1
 884 963 l 0,41,42
 834 1064 834 1064 769.5 1107.5 c 0,43,44
 705 1151 705 1151 632 1150 c 0,45,46
 581 1150 581 1150 528 1126 c 0,47,48
 475 1102 475 1102 432 1042 c 0,49,50
 389 982 389 982 362 880.5 c 0,51,52
 335 779 335 779 335 623 c 0,53,54
 335 497 335 497 367 407.5 c 0,55,56
 399 318 399 318 450 261 c 0,57,58
 501 204 501 204 565 177 c 0,59,60
 629 150 629 150 693 150 c 0,61,62
 720 150 720 150 757 155.5 c 0,63,64
 794 161 794 161 837.5 176 c 0,65,66
 881 191 881 191 930.5 217.5 c 0,67,68
 980 244 980 244 1031 286 c 0,69,70
 1036 282 1036 282 1044.5 271 c 0,71,72
 1053 260 1053 260 1061.5 247.5 c 0,73,74
 1070 235 1070 235 1077.5 224.5 c 0,75,76
 1085 214 1085 214 1088 211 c 0,0,1
EndSplineSet
EndChar

StartChar: D
Encoding: 39 68 39
Width: 1334
Flags: W
LayerCount: 2
Fore
SplineSet
523 1176 m 0,0,1
 507 1176 507 1176 489.5 1175.5 c 0,2,3
 472 1175 472 1175 455 1174 c 0,4,-1
 455 190 l 0,5,6
 455 173 455 173 457 159 c 0,7,8
 459 145 459 145 472.5 135 c 0,9,10
 486 125 486 125 515 119.5 c 0,11,12
 544 114 544 114 597 114 c 0,13,14
 651 114 651 114 713.5 143 c 0,15,16
 776 172 776 172 829 235 c 0,17,18
 882 298 882 298 917.5 397 c 0,19,20
 953 496 953 496 953 637 c 0,21,22
 953 904 953 904 844 1040 c 0,23,24
 735 1176 735 1176 523 1176 c 0,0,1
1253 676 m 0,25,26
 1253 551 1253 551 1227.5 452.5 c 0,27,28
 1202 354 1202 354 1157.5 278.5 c 0,29,30
 1113 203 1113 203 1053.5 150.5 c 0,31,32
 994 98 994 98 925.5 64.5 c 0,33,34
 857 31 857 31 783.5 15.5 c 0,35,36
 710 0 710 0 639 0 c 0,37,-1
 40 0 l 0,38,-1
 40 83 l 0,39,40
 108 97 108 97 141.5 113.5 c 0,41,42
 175 130 175 130 175 144 c 0,43,-1
 175 1147 l 0,44,-1
 40 1128 l 0,45,-1
 26 1230 l 0,46,47
 77 1242 77 1242 148 1253 c 0,48,49
 219 1264 219 1264 296.5 1272.5 c 0,50,51
 374 1281 374 1281 452.5 1285.5 c 0,52,53
 531 1290 531 1290 598 1290 c 0,54,55
 756 1290 756 1290 878 1248.5 c 0,56,57
 1000 1207 1000 1207 1083.5 1128 c 0,58,59
 1167 1049 1167 1049 1210 935 c 0,60,61
 1253 821 1253 821 1253 676 c 0,25,26
EndSplineSet
EndChar

StartChar: E
Encoding: 40 69 40
Width: 1096
Flags: W
LayerCount: 2
Fore
SplineSet
1054 324 m 0,0,1
 1050 281 1050 281 1045 230.5 c 0,2,3
 1040 180 1040 180 1034 133.5 c 0,4,5
 1028 87 1028 87 1022.5 51 c 0,6,7
 1017 15 1017 15 1013 0 c 0,8,-1
 40 0 l 0,9,-1
 40 83 l 0,10,11
 108 97 108 97 141.5 113.5 c 0,12,13
 175 130 175 130 175 144 c 0,14,-1
 175 1115 l 0,15,16
 175 1127 175 1127 143.5 1145 c 0,17,18
 112 1163 112 1163 40 1177 c 0,19,-1
 40 1260 l 0,20,-1
 946 1260 l 0,21,-1
 989 1225 l 0,22,23
 987 1199 987 1199 983 1157 c 0,24,25
 979 1115 979 1115 973 1071 c 0,26,27
 967 1027 967 1027 960.5 988 c 0,28,29
 954 949 954 949 948 930 c 0,30,-1
 863 930 l 0,31,32
 858 1023 858 1023 838 1076.5 c 0,33,34
 818 1130 818 1130 781 1130 c 0,35,-1
 455 1130 l 0,36,-1
 455 735 l 0,37,-1
 850 735 l 0,38,-1
 886 697 l 0,39,40
 878 683 878 683 866.5 664 c 0,41,42
 855 645 855 645 842.5 625.5 c 0,43,44
 830 606 830 606 817.5 590 c 0,45,46
 805 574 805 574 794 566 c 0,47,48
 779 581 779 581 761.5 591 c 0,49,50
 744 601 744 601 721.5 608 c 0,51,52
 699 615 699 615 668.5 618 c 0,53,54
 638 621 638 621 596 621 c 0,55,-1
 455 621 l 0,56,-1
 455 194 l 0,57,58
 455 179 455 179 462 167.5 c 0,59,60
 469 156 469 156 491 147.5 c 0,61,62
 513 139 513 139 553 134.5 c 0,63,64
 593 130 593 130 659 130 c 0,65,-1
 748 130 l 0,66,67
 794 130 794 130 826.5 142.5 c 0,68,69
 859 155 859 155 884 182 c 0,70,71
 909 209 909 209 929.5 251 c 0,72,73
 950 293 950 293 971 352 c 0,74,-1
 1054 324 l 0,0,1
EndSplineSet
EndChar

StartChar: F
Encoding: 41 70 41
Width: 1059
Flags: W
LayerCount: 2
Fore
SplineSet
40 0 m 0,0,-1
 40 83 l 0,1,2
 108 97 108 97 141.5 113.5 c 0,3,4
 175 130 175 130 175 144 c 0,5,-1
 175 1115 l 0,6,7
 175 1127 175 1127 143.5 1145 c 0,8,9
 112 1163 112 1163 40 1177 c 0,10,-1
 40 1260 l 0,11,-1
 956 1260 l 0,12,-1
 997 1225 l 0,13,14
 996 1199 996 1199 992 1157 c 0,15,16
 988 1115 988 1115 982.5 1071 c 0,17,18
 977 1027 977 1027 970.5 988 c 0,19,20
 964 949 964 949 958 930 c 0,21,-1
 871 930 l 0,22,23
 868 1023 868 1023 847.5 1076.5 c 0,24,25
 827 1130 827 1130 789 1130 c 0,26,-1
 455 1130 l 0,27,-1
 455 735 l 0,28,-1
 819 735 l 0,29,-1
 858 697 l 0,30,31
 849 679 849 679 837 659.5 c 0,32,33
 825 640 825 640 812 622 c 0,34,35
 799 604 799 604 786.5 589 c 0,36,37
 774 574 774 574 764 566 c 0,38,39
 749 581 749 581 732 591 c 0,40,41
 715 601 715 601 692.5 608 c 0,42,43
 670 615 670 615 639.5 618 c 0,44,45
 609 621 609 621 567 621 c 0,46,-1
 455 621 l 0,47,-1
 455 144 l 0,48,49
 455 138 455 138 462.5 131 c 0,50,51
 470 124 470 124 488.5 116.5 c 0,52,53
 507 109 507 109 539 100.5 c 0,54,55
 571 92 571 92 620 83 c 0,56,-1
 620 0 l 0,57,-1
 40 0 l 0,0,-1
EndSplineSet
EndChar

StartChar: G
Encoding: 42 71 42
Width: 1244
Flags: W
LayerCount: 2
Fore
SplineSet
1112 1188 m 0,0,1
 1117 1184 1117 1184 1112.5 1167.5 c 0,2,3
 1108 1151 1108 1151 1098 1127 c 0,4,5
 1088 1103 1088 1103 1074 1075.5 c 0,6,7
 1060 1048 1060 1048 1045.5 1023 c 0,8,9
 1031 998 1031 998 1018 978.5 c 0,10,11
 1005 959 1005 959 996 951 c 0,12,-1
 923 967 l 0,13,14
 890 1021 890 1021 857 1058 c 0,15,16
 824 1095 824 1095 789 1117.5 c 0,17,18
 754 1140 754 1140 717 1150 c 0,19,20
 680 1160 680 1160 638 1160 c 0,21,22
 613 1160 613 1160 581 1150 c 0,23,24
 549 1140 549 1140 515 1116.5 c 0,25,26
 481 1093 481 1093 449 1054.5 c 0,27,28
 417 1016 417 1016 391.5 957.5 c 0,29,30
 366 899 366 899 350.5 820 c 0,31,32
 335 741 335 741 335 637 c 0,33,34
 335 505 335 505 364 411 c 0,35,36
 393 317 393 317 442 257 c 0,37,38
 491 197 491 197 554 168.5 c 0,39,40
 617 140 617 140 686 140 c 0,41,42
 734 140 734 140 771.5 148 c 0,43,44
 809 156 809 156 840 170 c 0,45,-1
 840 465 l 0,46,47
 840 476 840 476 837.5 486.5 c 0,48,49
 835 497 835 497 821.5 507 c 0,50,51
 808 517 808 517 778.5 527 c 0,52,53
 749 537 749 537 694 547 c 0,54,-1
 694 630 l 0,55,-1
 1205 630 l 0,56,-1
 1205 547 l 0,57,58
 1176 540 1176 540 1158 531 c 0,59,60
 1140 522 1140 522 1129 511 c 0,61,62
 1118 500 1118 500 1114 488.5 c 0,63,64
 1110 477 1110 477 1110 465 c 0,65,-1
 1110 174 l 0,66,67
 1036 113 1036 113 970 73.5 c 0,68,69
 904 34 904 34 845.5 11 c 0,70,71
 787 -12 787 -12 735 -21 c 0,72,73
 683 -30 683 -30 638 -30 c 0,74,75
 564 -30 564 -30 491.5 -13.5 c 0,76,77
 419 3 419 3 353.5 36.5 c 0,78,79
 288 70 288 70 232.5 121 c 0,80,81
 177 172 177 172 136.5 240 c 0,82,83
 96 308 96 308 73 393.5 c 0,84,85
 50 479 50 479 50 582 c 0,86,87
 50 748 50 748 103.5 879.5 c 0,88,89
 157 1011 157 1011 251.5 1102.5 c 0,90,91
 346 1194 346 1194 475.5 1242 c 0,92,93
 605 1290 605 1290 757 1290 c 0,94,95
 790 1290 790 1290 837.5 1283 c 0,96,97
 885 1276 885 1276 935 1263 c 0,98,99
 985 1250 985 1250 1032.5 1231 c 0,100,101
 1080 1212 1080 1212 1112 1188 c 0,0,1
EndSplineSet
EndChar

StartChar: H
Encoding: 43 72 43
Width: 1419
Flags: W
LayerCount: 2
Fore
SplineSet
40 0 m 0,0,-1
 40 83 l 0,1,2
 108 97 108 97 141.5 113.5 c 0,3,4
 175 130 175 130 175 144 c 0,5,-1
 175 1115 l 0,6,7
 175 1127 175 1127 143.5 1145 c 0,8,9
 112 1163 112 1163 40 1177 c 0,10,-1
 40 1260 l 0,11,-1
 590 1260 l 0,12,-1
 590 1177 l 0,13,14
 522 1163 522 1163 488.5 1146 c 0,15,16
 455 1129 455 1129 455 1115 c 0,17,-1
 455 725 l 0,18,-1
 945 725 l 0,19,-1
 945 1115 l 0,20,21
 945 1127 945 1127 913.5 1145 c 0,22,23
 882 1163 882 1163 810 1177 c 0,24,-1
 810 1260 l 0,25,-1
 1360 1260 l 0,26,-1
 1360 1177 l 0,27,28
 1292 1163 1292 1163 1258.5 1146 c 0,29,30
 1225 1129 1225 1129 1225 1115 c 0,31,-1
 1225 144 l 0,32,33
 1225 132 1225 132 1256.5 114.5 c 0,34,35
 1288 97 1288 97 1360 83 c 0,36,-1
 1360 0 l 0,37,-1
 810 0 l 0,38,-1
 810 83 l 0,39,40
 878 97 878 97 911.5 113.5 c 0,41,42
 945 130 945 130 945 144 c 0,43,-1
 945 595 l 0,44,-1
 455 595 l 0,45,-1
 455 144 l 0,46,47
 455 132 455 132 486 114.5 c 0,48,49
 517 97 517 97 590 83 c 0,50,-1
 590 0 l 0,51,-1
 40 0 l 0,0,-1
EndSplineSet
EndChar

StartChar: I
Encoding: 44 73 44
Width: 690
Flags: W
LayerCount: 2
Fore
SplineSet
60 0 m 0,0,-1
 60 83 l 0,1,2
 128 97 128 97 161.5 113.5 c 0,3,4
 195 130 195 130 195 144 c 0,5,-1
 195 1115 l 0,6,7
 195 1127 195 1127 163.5 1145 c 0,8,9
 132 1163 132 1163 60 1177 c 0,10,-1
 60 1260 l 0,11,-1
 610 1260 l 0,12,-1
 610 1177 l 0,13,14
 542 1163 542 1163 508.5 1146 c 0,15,16
 475 1129 475 1129 475 1115 c 0,17,-1
 475 144 l 0,18,19
 475 132 475 132 506.5 114.5 c 0,20,21
 538 97 538 97 610 83 c 0,22,-1
 610 0 l 0,23,-1
 60 0 l 0,0,-1
EndSplineSet
EndChar

StartChar: J
Encoding: 45 74 45
Width: 705
Flags: W
LayerCount: 2
Fore
SplineSet
645 1177 m 0,0,1
 577 1163 577 1163 543.5 1146 c 0,2,3
 510 1129 510 1129 510 1115 c 0,4,-1
 510 175 l 0,5,6
 510 68 510 68 486 -10.5 c 0,7,8
 462 -89 462 -89 425 -147 c 0,9,10
 388 -205 388 -205 344 -245.5 c 0,11,12
 300 -286 300 -286 261 -318 c 0,13,14
 234 -340 234 -340 200.5 -360 c 0,15,16
 167 -380 167 -380 129.5 -395.5 c 0,17,18
 92 -411 92 -411 52.5 -420.5 c 0,19,20
 13 -430 13 -430 -25 -430 c 0,21,22
 -74 -430 -74 -430 -121.5 -419 c 0,23,24
 -169 -408 -169 -408 -206.5 -392.5 c 0,25,26
 -244 -377 -244 -377 -267 -359.5 c 0,27,28
 -290 -342 -290 -342 -290 -330 c 0,29,30
 -290 -322 -290 -322 -279 -306.5 c 0,31,32
 -268 -291 -268 -291 -250 -272 c 0,33,34
 -232 -253 -232 -253 -210.5 -233 c 0,35,36
 -189 -213 -189 -213 -168.5 -195.5 c 0,37,38
 -148 -178 -148 -178 -130.5 -165.5 c 0,39,40
 -113 -153 -113 -153 -104 -150 c 0,41,42
 -48 -202 -48 -202 4 -224.5 c 0,43,44
 56 -247 56 -247 94 -247 c 0,45,46
 120 -247 120 -247 144.5 -236.5 c 0,47,48
 169 -226 169 -226 188 -189.5 c 0,49,50
 207 -153 207 -153 218.5 -83.5 c 0,51,52
 230 -14 230 -14 230 103 c 0,53,-1
 230 1115 l 0,54,55
 230 1121 230 1121 223.5 1128 c 0,56,57
 217 1135 217 1135 197.5 1143 c 0,58,59
 178 1151 178 1151 141.5 1159.5 c 0,60,61
 105 1168 105 1168 45 1177 c 0,62,-1
 45 1260 l 0,63,-1
 645 1260 l 0,64,-1
 645 1177 l 0,0,1
EndSplineSet
EndChar

StartChar: K
Encoding: 46 75 46
Width: 1294
Flags: W
LayerCount: 2
Fore
SplineSet
40 0 m 0,0,-1
 40 83 l 0,1,2
 108 97 108 97 141.5 113.5 c 0,3,4
 175 130 175 130 175 144 c 0,5,-1
 175 1115 l 0,6,7
 175 1127 175 1127 143.5 1145 c 0,8,9
 112 1163 112 1163 40 1177 c 0,10,-1
 40 1260 l 0,11,-1
 590 1260 l 0,12,-1
 590 1177 l 0,13,14
 522 1163 522 1163 488.5 1146 c 0,15,16
 455 1129 455 1129 455 1115 c 0,17,-1
 455 664 l 0,18,-1
 814 1088 l 0,19,20
 837 1115 837 1115 847.5 1131 c 0,21,22
 858 1147 858 1147 854 1156 c 0,23,24
 850 1165 850 1165 829.5 1169.5 c 0,25,26
 809 1174 809 1174 770 1177 c 0,27,-1
 770 1260 l 0,28,-1
 1230 1260 l 0,29,-1
 1230 1177 l 0,30,31
 1198 1173 1198 1173 1176.5 1169 c 0,32,33
 1155 1165 1155 1165 1138.5 1158.5 c 0,34,35
 1122 1152 1122 1152 1109 1141.5 c 0,36,37
 1096 1131 1096 1131 1080 1115 c 0,38,-1
 654 677 l 0,39,-1
 1135 177 l 0,40,41
 1151 160 1151 160 1167 151.5 c 0,42,43
 1183 143 1183 143 1201 139 c 0,44,45
 1219 135 1219 135 1240 136 c 0,46,47
 1261 137 1261 137 1287 140 c 0,48,-1
 1294 57 l 0,49,50
 1265 48 1265 48 1227 35.5 c 0,51,52
 1189 23 1189 23 1150.5 12 c 0,53,54
 1112 1 1112 1 1077 -6.5 c 0,55,56
 1042 -14 1042 -14 1018 -14 c 0,57,58
 989 -14 989 -14 966.5 -5 c 0,59,60
 944 4 944 4 924 29 c 0,61,-1
 455 620 l 0,62,-1
 455 144 l 0,63,64
 455 132 455 132 486 114.5 c 0,65,66
 517 97 517 97 590 83 c 0,67,-1
 590 0 l 0,68,-1
 40 0 l 0,0,-1
EndSplineSet
EndChar

StartChar: L
Encoding: 47 76 47
Width: 1065
Flags: W
LayerCount: 2
Fore
SplineSet
1044 324 m 0,0,1
 1040 281 1040 281 1034.5 230.5 c 0,2,3
 1029 180 1029 180 1023.5 133.5 c 0,4,5
 1018 87 1018 87 1012.5 51 c 0,6,7
 1007 15 1007 15 1003 0 c 0,8,-1
 40 0 l 0,9,-1
 40 83 l 0,10,11
 108 97 108 97 141.5 113.5 c 0,12,13
 175 130 175 130 175 144 c 0,14,-1
 175 1115 l 0,15,16
 175 1127 175 1127 143.5 1145 c 0,17,18
 112 1163 112 1163 40 1177 c 0,19,-1
 40 1260 l 0,20,-1
 590 1260 l 0,21,-1
 590 1177 l 0,22,23
 522 1163 522 1163 488.5 1146 c 0,24,25
 455 1129 455 1129 455 1115 c 0,26,-1
 455 204 l 0,27,28
 455 186 455 186 463.5 172.5 c 0,29,30
 472 159 472 159 493 149.5 c 0,31,32
 514 140 514 140 550 135 c 0,33,34
 586 130 586 130 641 130 c 0,35,-1
 744 130 l 0,36,37
 790 130 790 130 821.5 142.5 c 0,38,39
 853 155 853 155 877 182 c 0,40,41
 901 209 901 209 920.5 251 c 0,42,43
 940 293 940 293 961 352 c 0,44,-1
 1044 324 l 0,0,1
EndSplineSet
EndChar

StartChar: M
Encoding: 48 77 48
Width: 1761
Flags: W
LayerCount: 2
Fore
SplineSet
1660 1177 m 0,0,1
 1636 1177 1636 1177 1603.5 1170.5 c 0,2,3
 1571 1164 1571 1164 1535 1152 c 0,4,-1
 1545 144 l 0,5,6
 1545 132 1545 132 1581.5 114.5 c 0,7,8
 1618 97 1618 97 1690 83 c 0,9,-1
 1690 0 l 0,10,-1
 1145 0 l 0,11,-1
 1145 83 l 0,12,13
 1213 97 1213 97 1251.5 113.5 c 0,14,15
 1290 130 1290 130 1290 144 c 0,16,-1
 1282 917 l 0,17,-1
 863 0 l 0,18,-1
 754 0 l 0,19,-1
 348 915 l 0,20,-1
 340 144 l 0,21,22
 340 132 340 132 371.5 114.5 c 0,23,24
 403 97 403 97 475 83 c 0,25,-1
 475 0 l 0,26,-1
 50 0 l 0,27,-1
 50 83 l 0,28,29
 119 97 119 97 152 113.5 c 0,30,31
 185 130 185 130 185 144 c 0,32,-1
 195 1144 l 0,33,34
 160 1163 160 1163 124.5 1170 c 0,35,36
 89 1177 89 1177 60 1177 c 0,37,-1
 60 1260 l 0,38,-1
 426 1260 l 0,39,40
 436 1260 436 1260 444.5 1257 c 0,41,42
 453 1254 453 1254 461 1245 c 0,43,44
 469 1236 469 1236 478.5 1219.5 c 0,45,46
 488 1203 488 1203 500 1176 c 0,47,-1
 859 363 l 0,48,-1
 1230 1176 l 0,49,50
 1243 1206 1243 1206 1252.5 1222.5 c 0,51,52
 1262 1239 1262 1239 1270.5 1247.5 c 0,53,54
 1279 1256 1279 1256 1287 1258 c 0,55,56
 1295 1260 1295 1260 1304 1260 c 0,57,-1
 1660 1260 l 0,58,-1
 1660 1177 l 0,0,1
EndSplineSet
EndChar

StartChar: N
Encoding: 49 78 49
Width: 1369
Flags: W
LayerCount: 2
Fore
SplineSet
40 0 m 0,0,-1
 40 83 l 0,1,2
 113 92 113 92 144 111 c 0,3,4
 175 130 175 130 175 144 c 0,5,-1
 175 1102 l 0,6,7
 143 1132 143 1132 108.5 1152 c 0,8,9
 74 1172 74 1172 40 1177 c 0,10,-1
 40 1260 l 0,11,-1
 342 1260 l 0,12,13
 357 1260 357 1260 366.5 1257.5 c 0,14,15
 376 1255 376 1255 386 1247 c 0,16,17
 396 1239 396 1239 407.5 1223.5 c 0,18,19
 419 1208 419 1208 438 1182 c 0,20,-1
 1035 353 l 0,21,-1
 1035 1115 l 0,22,23
 1035 1121 1035 1121 1029 1129.5 c 0,24,25
 1023 1138 1023 1138 1007.5 1146.5 c 0,26,27
 992 1155 992 1155 966 1163 c 0,28,29
 940 1171 940 1171 900 1177 c 0,30,-1
 900 1260 l 0,31,-1
 1330 1260 l 0,32,-1
 1330 1177 l 0,33,34
 1258 1167 1258 1167 1226.5 1148 c 0,35,36
 1195 1129 1195 1129 1195 1115 c 0,37,-1
 1195 -30 l 0,38,39
 1140 -26 1140 -26 1095.5 -14.5 c 0,40,41
 1051 -3 1051 -3 1016.5 13 c 0,42,43
 982 29 982 29 957 49 c 0,44,45
 932 69 932 69 916 91 c 0,46,-1
 335 895 l 0,47,-1
 335 144 l 0,48,49
 335 138 335 138 341.5 129.5 c 0,50,51
 348 121 348 121 364 112.5 c 0,52,53
 380 104 380 104 405.5 96 c 0,54,55
 431 88 431 88 470 83 c 0,56,-1
 470 0 l 0,57,-1
 40 0 l 0,0,-1
EndSplineSet
EndChar

StartChar: O
Encoding: 50 79 50
Width: 1289
Flags: W
LayerCount: 2
Fore
SplineSet
1218 647 m 0,0,1
 1218 556 1218 556 1195.5 471 c 0,2,3
 1173 386 1173 386 1132.5 310.5 c 0,4,5
 1092 235 1092 235 1036 172.5 c 0,6,7
 980 110 980 110 911.5 65 c 0,8,9
 843 20 843 20 765.5 -5 c 0,10,11
 688 -30 688 -30 605 -30 c 0,12,13
 477 -30 477 -30 374 23 c 0,14,15
 271 76 271 76 199 165 c 0,16,17
 127 254 127 254 88.5 370 c 0,18,19
 50 486 50 486 50 612 c 0,20,21
 50 748 50 748 94.5 871 c 0,22,23
 139 994 139 994 220 1087 c 0,24,25
 301 1180 301 1180 413.5 1235 c 0,26,27
 526 1290 526 1290 663 1290 c 0,28,29
 798 1290 798 1290 901.5 1235.5 c 0,30,31
 1005 1181 1005 1181 1075.5 1091 c 0,32,33
 1146 1001 1146 1001 1182 885 c 0,34,35
 1218 769 1218 769 1218 647 c 0,0,1
933 629 m 0,36,37
 933 732 933 732 909.5 827.5 c 0,38,39
 886 923 886 923 842.5 995.5 c 0,40,41
 799 1068 799 1068 738.5 1111.5 c 0,42,43
 678 1155 678 1155 604 1155 c 0,44,45
 538 1155 538 1155 487.5 1120.5 c 0,46,47
 437 1086 437 1086 403 1020 c 0,48,49
 369 954 369 954 352 858.5 c 0,50,51
 335 763 335 763 335 641 c 0,52,53
 335 529 335 529 360 432 c 0,54,55
 385 335 385 335 428.5 263.5 c 0,56,57
 472 192 472 192 530 151 c 0,58,59
 588 110 588 110 654 110 c 0,60,61
 714 110 714 110 765.5 141.5 c 0,62,63
 817 173 817 173 854 237 c 0,64,65
 891 301 891 301 912 399 c 0,66,67
 933 497 933 497 933 629 c 0,36,37
EndSplineSet
EndChar

StartChar: P
Encoding: 51 80 51
Width: 1191
Flags: W
LayerCount: 2
Fore
SplineSet
40 0 m 0,0,-1
 40 83 l 0,1,2
 108 97 108 97 141.5 113.5 c 0,3,4
 175 130 175 130 175 144 c 0,5,-1
 175 1148 l 0,6,7
 99 1139 99 1139 40 1128 c 0,8,-1
 26 1230 l 0,9,10
 82 1243 82 1243 151.5 1254 c 0,11,12
 221 1265 221 1265 295.5 1273 c 0,13,14
 370 1281 370 1281 446 1285.5 c 0,15,16
 522 1290 522 1290 590 1290 c 0,17,18
 709 1290 709 1290 807 1267 c 0,19,20
 905 1244 905 1244 975 1199 c 0,21,22
 1045 1154 1045 1154 1083.5 1088 c 0,23,24
 1122 1022 1122 1022 1122 936 c 0,25,26
 1122 832 1122 832 1081 753 c 0,27,28
 1040 674 1040 674 976.5 621 c 0,29,30
 913 568 913 568 837.5 541.5 c 0,31,32
 762 515 762 515 693 515 c 0,33,34
 647 515 647 515 601.5 522.5 c 0,35,36
 556 530 556 530 522 545 c 0,37,-1
 489 660 l 0,38,39
 530 641 530 641 559 635.5 c 0,40,41
 588 630 588 630 623 630 c 0,42,43
 665 630 665 630 704 645 c 0,44,45
 743 660 743 660 772.5 692 c 0,46,47
 802 724 802 724 819.5 774 c 0,48,49
 837 824 837 824 837 895 c 0,50,51
 837 962 837 962 815.5 1014.5 c 0,52,53
 794 1067 794 1067 754.5 1103 c 0,54,55
 715 1139 715 1139 659 1157.5 c 0,56,57
 603 1176 603 1176 533 1176 c 0,58,59
 515 1176 515 1176 495 1175.5 c 0,60,61
 475 1175 475 1175 455 1174 c 0,62,-1
 455 144 l 0,63,64
 455 138 455 138 461 131 c 0,65,66
 467 124 467 124 485 116 c 0,67,68
 503 108 503 108 535.5 100 c 0,69,70
 568 92 568 92 620 83 c 0,71,-1
 620 0 l 0,72,-1
 40 0 l 0,0,-1
EndSplineSet
EndChar

StartChar: Q
Encoding: 52 81 52
Width: 1289
Flags: W
LayerCount: 2
Fore
SplineSet
1462 -127 m 0,0,1
 1438 -171 1438 -171 1409.5 -208.5 c 0,2,3
 1381 -246 1381 -246 1353.5 -274.5 c 0,4,5
 1326 -303 1326 -303 1301.5 -319 c 0,6,7
 1277 -335 1277 -335 1262 -335 c 0,8,9
 1214 -335 1214 -335 1165 -319 c 0,10,11
 1116 -303 1116 -303 1066.5 -277 c 0,12,13
 1017 -251 1017 -251 967 -217.5 c 0,14,15
 917 -184 917 -184 867 -149.5 c 0,16,17
 817 -115 817 -115 767 -82.5 c 0,18,19
 717 -50 717 -50 667 -26 c 0,20,21
 652 -28 652 -28 636.5 -29 c 0,22,23
 621 -30 621 -30 605 -30 c 0,24,25
 477 -30 477 -30 374 23 c 0,26,27
 271 76 271 76 199 165 c 0,28,29
 127 254 127 254 88.5 370 c 0,30,31
 50 486 50 486 50 612 c 0,32,33
 50 748 50 748 94.5 871 c 0,34,35
 139 994 139 994 220 1087 c 0,36,37
 301 1180 301 1180 413.5 1235 c 0,38,39
 526 1290 526 1290 663 1290 c 0,40,41
 798 1290 798 1290 901.5 1235.5 c 0,42,43
 1005 1181 1005 1181 1075.5 1091 c 0,44,45
 1146 1001 1146 1001 1182 885 c 0,46,47
 1218 769 1218 769 1218 647 c 0,48,49
 1218 547 1218 547 1191 453.5 c 0,50,51
 1164 360 1164 360 1115 279.5 c 0,52,53
 1066 199 1066 199 999 135 c 0,54,55
 932 71 932 71 852 30 c 0,56,57
 912 11 912 11 967 -15 c 0,58,59
 1022 -41 1022 -41 1073 -64 c 0,60,61
 1124 -87 1124 -87 1172.5 -103.5 c 0,62,63
 1221 -120 1221 -120 1268 -120 c 0,64,65
 1280 -120 1280 -120 1292 -117.5 c 0,66,67
 1304 -115 1304 -115 1319 -108 c 0,68,69
 1334 -101 1334 -101 1354.5 -87.5 c 0,70,71
 1375 -74 1375 -74 1405 -52 c 0,72,-1
 1462 -127 l 0,0,1
933 629 m 0,73,74
 933 732 933 732 909.5 827.5 c 0,75,76
 886 923 886 923 842.5 995.5 c 0,77,78
 799 1068 799 1068 738.5 1111.5 c 0,79,80
 678 1155 678 1155 604 1155 c 0,81,82
 538 1155 538 1155 487.5 1120.5 c 0,83,84
 437 1086 437 1086 403 1020 c 0,85,86
 369 954 369 954 352 858.5 c 0,87,88
 335 763 335 763 335 641 c 0,89,90
 335 529 335 529 360 432 c 0,91,92
 385 335 385 335 428.5 263.5 c 0,93,94
 472 192 472 192 530 151 c 0,95,96
 588 110 588 110 654 110 c 0,97,98
 714 110 714 110 765.5 141.5 c 0,99,100
 817 173 817 173 854 237 c 0,101,102
 891 301 891 301 912 399 c 0,103,104
 933 497 933 497 933 629 c 0,73,74
EndSplineSet
EndChar

StartChar: R
Encoding: 53 82 53
Width: 1269
Flags: W
LayerCount: 2
Fore
SplineSet
502 1176 m 0,0,1
 491 1176 491 1176 479.5 1175.5 c 0,2,3
 468 1175 468 1175 455 1175 c 0,4,-1
 455 711 l 0,5,6
 482 706 482 706 502 705 c 0,7,8
 522 704 522 704 544 704 c 0,9,10
 608 704 608 704 653 721.5 c 0,11,12
 698 739 698 739 726.5 771.5 c 0,13,14
 755 804 755 804 768.5 850.5 c 0,15,16
 782 897 782 897 782 956 c 0,17,18
 782 999 782 999 770.5 1039 c 0,19,20
 759 1079 759 1079 727.5 1109.5 c 0,21,22
 696 1140 696 1140 641.5 1158 c 0,23,24
 587 1176 587 1176 502 1176 c 0,0,1
40 0 m 0,25,-1
 40 83 l 0,26,27
 108 97 108 97 141.5 113.5 c 0,28,29
 175 130 175 130 175 144 c 0,30,-1
 175 1147 l 0,31,-1
 40 1128 l 0,32,-1
 26 1230 l 0,33,34
 135 1253 135 1253 268 1271.5 c 0,35,36
 401 1290 401 1290 549 1290 c 0,37,38
 691 1290 691 1290 790 1267 c 0,39,40
 889 1244 889 1244 950.5 1203 c 0,41,42
 1012 1162 1012 1162 1039.5 1106.5 c 0,43,44
 1067 1051 1067 1051 1067 987 c 0,45,46
 1067 919 1067 919 1046.5 861.5 c 0,47,48
 1026 804 1026 804 989.5 757.5 c 0,49,50
 953 711 953 711 901.5 675.5 c 0,51,52
 850 640 850 640 788 618 c 0,53,-1
 1108 199 l 0,54,55
 1124 178 1124 178 1137.5 165 c 0,56,57
 1151 152 1151 152 1167.5 145.5 c 0,58,59
 1184 139 1184 139 1206.5 138 c 0,60,61
 1229 137 1229 137 1263 140 c 0,62,-1
 1279 57 l 0,63,64
 1246 46 1246 46 1201.5 33.5 c 0,65,66
 1157 21 1157 21 1113.5 10.5 c 0,67,68
 1070 0 1070 0 1032 -7 c 0,69,70
 994 -14 994 -14 975 -14 c 0,71,72
 946 -14 946 -14 918.5 2 c 0,73,74
 891 18 891 18 877 41 c 0,75,-1
 595 581 l 0,76,77
 587 580 587 580 578 580 c 0,78,-1
 561 580 l 0,79,80
 535 580 535 580 509 582.5 c 0,81,82
 483 585 483 585 455 591 c 0,83,-1
 455 144 l 0,84,85
 455 132 455 132 486 114.5 c 0,86,87
 517 97 517 97 590 83 c 0,88,-1
 590 0 l 0,89,-1
 40 0 l 0,25,-1
EndSplineSet
EndChar

StartChar: S
Encoding: 54 83 54
Width: 1075
Flags: W
LayerCount: 2
Fore
SplineSet
995 377 m 0,0,1
 995 332 995 332 981 285 c 0,2,3
 967 238 967 238 939.5 192.5 c 0,4,5
 912 147 912 147 869.5 106.5 c 0,6,7
 827 66 827 66 769.5 36 c 0,8,9
 712 6 712 6 640 -12 c 0,10,11
 568 -30 568 -30 480 -30 c 0,12,13
 443 -30 443 -30 394 -23 c 0,14,15
 345 -16 345 -16 294 -3.5 c 0,16,17
 243 9 243 9 194.5 27 c 0,18,19
 146 45 146 45 111 68 c 0,20,21
 106 70 106 70 103 88.5 c 0,22,23
 100 107 100 107 99 135 c 0,24,25
 98 163 98 163 98 198 c 0,26,27
 98 233 98 233 101 269.5 c 0,28,29
 104 306 104 306 109 341 c 0,30,31
 114 376 114 376 121 404 c 0,32,-1
 202 399 l 0,33,34
 225 340 225 340 257.5 289 c 0,35,36
 290 238 290 238 330.5 200.5 c 0,37,38
 371 163 371 163 418 141.5 c 0,39,40
 465 120 465 120 516 120 c 0,41,42
 561 120 561 120 601.5 131 c 0,43,44
 642 142 642 142 673 164.5 c 0,45,46
 704 187 704 187 722 221.5 c 0,47,48
 740 256 740 256 740 304 c 0,49,50
 740 365 740 365 713 409.5 c 0,51,52
 686 454 686 454 641.5 488.5 c 0,53,54
 597 523 597 523 540 551 c 0,55,56
 483 579 483 579 423.5 607 c 0,57,58
 364 635 364 635 307 666 c 0,59,60
 250 697 250 697 205.5 737.5 c 0,61,62
 161 778 161 778 134 831 c 0,63,64
 107 884 107 884 107 957 c 0,65,66
 107 988 107 988 119.5 1025 c 0,67,68
 132 1062 132 1062 157.5 1099 c 0,69,70
 183 1136 183 1136 222 1170.5 c 0,71,72
 261 1205 261 1205 314 1231.5 c 0,73,74
 367 1258 367 1258 435 1274 c 0,75,76
 503 1290 503 1290 586 1290 c 0,77,78
 643 1290 643 1290 697 1283 c 0,79,80
 751 1276 751 1276 797.5 1264 c 0,81,82
 844 1252 844 1252 879.5 1235 c 0,83,84
 915 1218 915 1218 933 1198 c 0,85,86
 938 1194 938 1194 935.5 1178.5 c 0,87,88
 933 1163 933 1163 926 1142 c 0,89,90
 919 1121 919 1121 908.5 1096.5 c 0,91,92
 898 1072 898 1072 886.5 1049.5 c 0,93,94
 875 1027 875 1027 864 1009.5 c 0,95,96
 853 992 853 992 845 985 c 0,97,-1
 769 991 l 0,98,99
 749 1042 749 1042 721 1076.5 c 0,100,101
 693 1111 693 1111 661.5 1132 c 0,102,103
 630 1153 630 1153 597.5 1161.5 c 0,104,105
 565 1170 565 1170 537 1170 c 0,106,107
 489 1170 489 1170 455 1158 c 0,108,109
 421 1146 421 1146 399 1125.5 c 0,110,111
 377 1105 377 1105 367 1078.5 c 0,112,113
 357 1052 357 1052 357 1024 c 0,114,115
 357 977 357 977 384.5 940 c 0,116,117
 412 903 412 903 457 872 c 0,118,119
 502 841 502 841 559 812 c 0,120,-1
 676 754 l 0,121,122
 736 724 736 724 793 689 c 0,123,124
 850 654 850 654 895 609.5 c 0,125,126
 940 565 940 565 967.5 508 c 0,127,128
 995 451 995 451 995 377 c 0,0,1
EndSplineSet
EndChar

StartChar: T
Encoding: 55 84 55
Width: 1208
Flags: W
LayerCount: 2
Fore
SplineSet
297 0 m 0,0,-1
 297 83 l 0,1,2
 343 92 343 92 373 102 c 0,3,4
 403 112 403 112 420 121.5 c 0,5,6
 437 131 437 131 444 139.5 c 0,7,8
 451 148 451 148 451 155 c 0,9,-1
 451 1130 l 0,10,-1
 212 1130 l 0,11,12
 197 1130 197 1130 183 1117.5 c 0,13,14
 169 1105 169 1105 154.5 1078.5 c 0,15,16
 140 1052 140 1052 122.5 1010 c 0,17,18
 105 968 105 968 83 910 c 0,19,-1
 0 939 l 0,20,21
 2 968 2 968 7 1012 c 0,22,23
 12 1056 12 1056 18.5 1102.5 c 0,24,25
 25 1149 25 1149 31.5 1191.5 c 0,26,27
 38 1234 38 1234 43 1260 c 0,28,-1
 1133 1260 l 0,29,-1
 1173 1225 l 0,30,31
 1172 1199 1172 1199 1168 1160 c 0,32,33
 1164 1121 1164 1121 1158 1078.5 c 0,34,35
 1152 1036 1152 1036 1145.5 993.5 c 0,36,37
 1139 951 1139 951 1133 920 c 0,38,-1
 1048 920 l 0,39,40
 1038 966 1038 966 1032 1005 c 0,41,42
 1026 1044 1026 1044 1018 1071.5 c 0,43,44
 1010 1099 1010 1099 998 1114.5 c 0,45,46
 986 1130 986 1130 965 1130 c 0,47,-1
 731 1130 l 0,48,-1
 731 155 l 0,49,50
 731 149 731 149 738 140.5 c 0,51,52
 745 132 745 132 762 122 c 0,53,54
 779 112 779 112 809 102 c 0,55,56
 839 92 839 92 885 83 c 0,57,-1
 885 0 l 0,58,-1
 297 0 l 0,0,-1
EndSplineSet
EndChar

StartChar: U
Encoding: 56 85 56
Width: 1379
Flags: W
LayerCount: 2
Fore
SplineSet
1325 1177 m 0,0,1
 1257 1163 1257 1163 1223.5 1146 c 0,2,3
 1190 1129 1190 1129 1190 1115 c 0,4,-1
 1190 524 l 0,5,6
 1190 393 1190 393 1151.5 290 c 0,7,8
 1113 187 1113 187 1045.5 116 c 0,9,10
 978 45 978 45 886 7.5 c 0,11,12
 794 -30 794 -30 686 -30 c 0,13,14
 583 -30 583 -30 490 -1.5 c 0,15,16
 397 27 397 27 327 85.5 c 0,17,18
 257 144 257 144 216 233 c 0,19,20
 175 322 175 322 175 444 c 0,21,-1
 175 1115 l 0,22,23
 175 1127 175 1127 143.5 1145 c 0,24,25
 112 1163 112 1163 40 1177 c 0,26,-1
 40 1260 l 0,27,-1
 590 1260 l 0,28,-1
 590 1177 l 0,29,30
 522 1163 522 1163 488.5 1146 c 0,31,32
 455 1129 455 1129 455 1115 c 0,33,-1
 455 514 l 0,34,35
 455 418 455 418 470 345 c 0,36,37
 485 272 485 272 519.5 223.5 c 0,38,39
 554 175 554 175 611.5 150 c 0,40,41
 669 125 669 125 755 125 c 0,42,43
 826 125 826 125 873.5 156 c 0,44,45
 921 187 921 187 949 239.5 c 0,46,47
 977 292 977 292 988.5 360.5 c 0,48,49
 1000 429 1000 429 1000 503 c 0,50,-1
 1000 1115 l 0,51,52
 1000 1127 1000 1127 968.5 1145 c 0,53,54
 937 1163 937 1163 865 1177 c 0,55,-1
 865 1260 l 0,56,-1
 1325 1260 l 0,57,-1
 1325 1177 l 0,0,1
EndSplineSet
EndChar

StartChar: V
Encoding: 57 86 57
Width: 1371
Flags: W
LayerCount: 2
Fore
SplineSet
1340 1177 m 0,0,1
 1272 1164 1272 1164 1233.5 1151.5 c 0,2,3
 1195 1139 1195 1139 1185 1111 c 0,4,-1
 812 89 l 0,5,6
 804 67 804 67 781 48 c 0,7,8
 758 29 758 29 727.5 14 c 0,9,10
 697 -1 697 -1 663.5 -12 c 0,11,12
 630 -23 630 -23 602 -30 c 0,13,-1
 142 1111 l 0,14,15
 131 1137 131 1137 102 1153 c 0,16,17
 73 1169 73 1169 10 1177 c 0,18,-1
 10 1260 l 0,19,-1
 545 1260 l 0,20,-1
 545 1177 l 0,21,22
 505 1174 505 1174 479.5 1169 c 0,23,24
 454 1164 454 1164 440.5 1156.5 c 0,25,26
 427 1149 427 1149 424 1138 c 0,27,28
 421 1127 421 1127 427 1113 c 0,29,-1
 742 313 l 0,30,-1
 1026 1111 l 0,31,32
 1031 1126 1031 1126 1028 1136 c 0,33,34
 1025 1146 1025 1146 1011 1153.5 c 0,35,36
 997 1161 997 1161 971 1166.5 c 0,37,38
 945 1172 945 1172 904 1177 c 0,39,-1
 904 1260 l 0,40,-1
 1340 1260 l 0,41,-1
 1340 1177 l 0,0,1
EndSplineSet
EndChar

StartChar: W
Encoding: 58 87 58
Width: 1741
Flags: W
LayerCount: 2
Fore
SplineSet
1742 1177 m 0,0,1
 1698 1168 1698 1168 1669 1160 c 0,2,3
 1640 1152 1640 1152 1623 1144.5 c 0,4,5
 1606 1137 1606 1137 1598.5 1130 c 0,6,7
 1591 1123 1591 1123 1590 1115 c 0,8,-1
 1361 59 l 0,9,10
 1356 38 1356 38 1338 22.5 c 0,11,12
 1320 7 1320 7 1297 -3.5 c 0,13,14
 1274 -14 1274 -14 1250.5 -20.5 c 0,15,16
 1227 -27 1227 -27 1212 -30 c 0,17,-1
 866 854 l 0,18,-1
 579 59 l 0,19,20
 572 38 572 38 553.5 23 c 0,21,22
 535 8 535 8 511.5 -2.5 c 0,23,24
 488 -13 488 -13 463 -19.5 c 0,25,26
 438 -26 438 -26 418 -30 c 0,27,-1
 158 1107 l 0,28,29
 153 1132 153 1132 122 1148 c 0,30,31
 91 1164 91 1164 20 1177 c 0,32,-1
 20 1260 l 0,33,-1
 529 1260 l 0,34,-1
 529 1177 l 0,35,36
 480 1172 480 1172 453.5 1164.5 c 0,37,38
 427 1157 427 1157 415 1148 c 0,39,40
 403 1139 403 1139 402 1128.5 c 0,41,42
 401 1118 401 1118 403 1107 c 0,43,-1
 565 430 l 0,44,-1
 846 1260 l 0,45,-1
 961 1260 l 0,46,-1
 1290 430 l 0,47,-1
 1442 1115 l 0,48,49
 1444 1127 1444 1127 1433 1136 c 0,50,51
 1422 1145 1422 1145 1401 1152 c 0,52,53
 1380 1159 1380 1159 1351 1165 c 0,54,55
 1322 1171 1322 1171 1288 1177 c 0,56,-1
 1288 1260 l 0,57,-1
 1742 1260 l 0,58,-1
 1742 1177 l 0,0,1
EndSplineSet
EndChar

StartChar: X
Encoding: 59 88 59
Width: 1300
Flags: W
LayerCount: 2
Fore
SplineSet
718 0 m 0,0,-1
 718 83 l 0,1,2
 762 87 762 87 789 93.5 c 0,3,4
 816 100 816 100 828 109.5 c 0,5,6
 840 119 840 119 838.5 133 c 0,7,8
 837 147 837 147 823 167 c 0,9,-1
 601 490 l 0,10,-1
 382 167 l 0,11,12
 367 145 367 145 362 130.5 c 0,13,14
 357 116 357 116 366 106.5 c 0,15,16
 375 97 375 97 400 91.5 c 0,17,18
 425 86 425 86 471 83 c 0,19,-1
 471 0 l 0,20,-1
 21 0 l 0,21,-1
 21 83 l 0,22,23
 86 88 86 88 131 107.5 c 0,24,25
 176 127 176 127 203 167 c 0,26,-1
 509 623 l 0,27,-1
 187 1093 l 0,28,29
 172 1115 172 1115 158 1129 c 0,30,31
 144 1143 144 1143 126.5 1152 c 0,32,33
 109 1161 109 1161 86.5 1166.5 c 0,34,35
 64 1172 64 1172 31 1177 c 0,36,-1
 31 1260 l 0,37,-1
 602 1260 l 0,38,-1
 602 1177 l 0,39,40
 517 1169 517 1169 491 1152.5 c 0,41,42
 465 1136 465 1136 495 1093 c 0,43,-1
 689 810 l 0,44,-1
 868 1093 l 0,45,46
 882 1116 882 1116 886.5 1130.5 c 0,47,48
 891 1145 891 1145 881.5 1154.5 c 0,49,50
 872 1164 872 1164 847 1169 c 0,51,52
 822 1174 822 1174 777 1177 c 0,53,-1
 777 1260 l 0,54,-1
 1230 1260 l 0,55,-1
 1230 1177 l 0,56,57
 1194 1173 1194 1173 1165.5 1167 c 0,58,59
 1137 1161 1137 1161 1115.5 1151.5 c 0,60,61
 1094 1142 1094 1142 1077 1128 c 0,62,63
 1060 1114 1060 1114 1047 1093 c 0,64,-1
 780 678 l 0,65,-1
 1131 167 l 0,66,67
 1146 146 1146 146 1160 131.5 c 0,68,69
 1174 117 1174 117 1190.5 107.5 c 0,70,71
 1207 98 1207 98 1228.5 92.5 c 0,72,73
 1250 87 1250 87 1279 83 c 0,74,-1
 1279 0 l 0,75,-1
 718 0 l 0,0,-1
EndSplineSet
EndChar

StartChar: Y
Encoding: 60 89 60
Width: 1267
Flags: W
LayerCount: 2
Fore
SplineSet
340 0 m 0,0,-1
 340 83 l 0,1,2
 385 92 385 92 415 102 c 0,3,4
 445 112 445 112 462.5 121.5 c 0,5,6
 480 131 480 131 487 139.5 c 0,7,8
 494 148 494 148 494 155 c 0,9,-1
 494 527 l 0,10,11
 458 606 458 606 414 690 c 0,12,13
 370 774 370 774 325 852 c 0,14,15
 280 930 280 930 236.5 997 c 0,16,17
 193 1064 193 1064 158 1111 c 0,18,19
 149 1122 149 1122 139.5 1130.5 c 0,20,21
 130 1139 130 1139 114 1144.5 c 0,22,23
 98 1150 98 1150 72 1153 c 0,24,25
 46 1156 46 1156 4 1156 c 0,26,-1
 0 1239 l 0,27,28
 29 1243 29 1243 68.5 1248.5 c 0,29,30
 108 1254 108 1254 148 1258.5 c 0,31,32
 188 1263 188 1263 223 1266.5 c 0,33,34
 258 1270 258 1270 279 1270 c 0,35,36
 308 1270 308 1270 339 1257 c 0,37,38
 370 1244 370 1244 387 1221 c 0,39,40
 424 1171 424 1171 464 1107 c 0,41,42
 504 1043 504 1043 544.5 972 c 0,43,44
 585 901 585 901 624.5 825.5 c 0,45,46
 664 750 664 750 699 678 c 0,47,-1
 921 1111 l 0,48,49
 936 1137 936 1137 911.5 1152 c 0,50,51
 887 1167 887 1167 810 1177 c 0,52,-1
 810 1260 l 0,53,-1
 1236 1260 l 0,54,-1
 1236 1177 l 0,55,56
 1202 1171 1202 1171 1177.5 1164.5 c 0,57,58
 1153 1158 1153 1158 1136 1150.5 c 0,59,60
 1119 1143 1119 1143 1108 1133.5 c 0,61,62
 1097 1124 1097 1124 1090 1111 c 0,63,-1
 774 515 l 0,64,-1
 774 155 l 0,65,66
 774 149 774 149 781 140.5 c 0,67,68
 788 132 788 132 805.5 122 c 0,69,70
 823 112 823 112 853 102 c 0,71,72
 883 92 883 92 930 83 c 0,73,-1
 930 0 l 0,74,-1
 340 0 l 0,0,-1
EndSplineSet
EndChar

StartChar: Z
Encoding: 61 90 61
Width: 1131
Flags: W
LayerCount: 2
Fore
SplineSet
1061 373 m 0,0,1
 1059 341 1059 341 1057.5 289.5 c 0,2,3
 1056 238 1056 238 1054.5 183.5 c 0,4,5
 1053 129 1053 129 1051.5 79 c 0,6,7
 1050 29 1050 29 1049 0 c 0,8,-1
 88 0 l 0,9,-1
 49 55 l 0,10,-1
 710 1120 l 0,11,-1
 341 1120 l 0,12,13
 325 1120 325 1120 304.5 1101 c 0,14,15
 284 1082 284 1082 264 1048.5 c 0,16,17
 244 1015 244 1015 226.5 970 c 0,18,19
 209 925 209 925 198 873 c 0,20,-1
 101 895 l 0,21,-1
 140 1276 l 0,22,23
 167 1270 167 1270 189.5 1266.5 c 0,24,25
 212 1263 212 1263 233.5 1261.5 c 0,26,27
 255 1260 255 1260 278 1260 c 0,28,-1
 1016 1260 l 0,29,-1
 1051 1207 l 0,30,-1
 396 140 l 0,31,-1
 829 140 l 0,32,33
 850 140 850 140 867 157 c 0,34,35
 884 174 884 174 899.5 207 c 0,36,37
 915 240 915 240 931 287.5 c 0,38,39
 947 335 947 335 966 397 c 0,40,-1
 1061 373 l 0,0,1
EndSplineSet
EndChar

StartChar: bracketleft
Encoding: 62 91 62
Width: 711
Flags: W
LayerCount: 2
Fore
SplineSet
691 -219 m 0,0,1
 689 -229 689 -229 684 -245 c 0,2,3
 679 -261 679 -261 673 -278 c 0,4,5
 667 -295 667 -295 661.5 -310.5 c 0,6,7
 656 -326 656 -326 652 -335 c 0,8,-1
 120 -335 l 0,9,-1
 120 1600 l 0,10,-1
 646 1600 l 0,11,-1
 689 1564 l 0,12,13
 687 1552 687 1552 682 1534 c 0,14,15
 677 1516 677 1516 671.5 1498 c 0,16,17
 666 1480 666 1480 660.5 1465.5 c 0,18,19
 655 1451 655 1451 652 1445 c 0,20,-1
 380 1445 l 0,21,-1
 380 -180 l 0,22,-1
 646 -180 l 0,23,-1
 691 -219 l 0,0,1
EndSplineSet
EndChar

StartChar: backslash
Encoding: 63 92 63
Width: 960
Flags: W
LayerCount: 2
Fore
SplineSet
880 -335 m 0,0,1
 868 -331 868 -331 844 -323.5 c 0,2,3
 820 -316 820 -316 794.5 -307.5 c 0,4,5
 769 -299 769 -299 747 -290 c 0,6,7
 725 -281 725 -281 716 -274 c 0,8,-1
 35 1568 l 0,9,-1
 82 1600 l 0,10,11
 97 1596 97 1596 119 1589.5 c 0,12,13
 141 1583 141 1583 164.5 1575 c 0,14,15
 188 1567 188 1567 209.5 1558.5 c 0,16,17
 231 1550 231 1550 245 1541 c 0,18,-1
 925 -300 l 0,19,-1
 880 -335 l 0,0,1
EndSplineSet
EndChar

StartChar: bracketright
Encoding: 64 93 64
Width: 711
Flags: W
LayerCount: 2
Fore
SplineSet
65 -335 m 0,0,-1
 22 -299 l 0,1,2
 24 -287 24 -287 29 -269 c 0,3,4
 34 -251 34 -251 39.5 -233 c 0,5,6
 45 -215 45 -215 50.5 -200.5 c 0,7,8
 56 -186 56 -186 59 -180 c 0,9,-1
 330 -180 l 0,10,-1
 330 1445 l 0,11,-1
 65 1445 l 0,12,-1
 20 1484 l 0,13,14
 22 1494 22 1494 27 1510 c 0,15,16
 32 1526 32 1526 38 1543 c 0,17,18
 44 1560 44 1560 49.5 1575.5 c 0,19,20
 55 1591 55 1591 59 1600 c 0,21,-1
 590 1600 l 0,22,-1
 590 -335 l 0,23,-1
 65 -335 l 0,0,-1
EndSplineSet
EndChar

StartChar: asciicircum
Encoding: 65 94 65
Width: 1008
Flags: W
LayerCount: 2
Fore
SplineSet
907 635 m 0,0,1
 882 612 882 612 858.5 596.5 c 0,2,3
 835 581 835 581 801 565 c 0,4,-1
 764 592 l 0,5,-1
 481 1315 l 0,6,-1
 231 635 l 0,7,8
 220 625 220 625 206 614.5 c 0,9,10
 192 604 192 604 177 594.5 c 0,11,12
 162 585 162 585 147.5 577.5 c 0,13,14
 133 570 133 570 123 565 c 0,15,-1
 100 592 l 0,16,-1
 422 1462 l 0,17,18
 434 1474 434 1474 451.5 1486.5 c 0,19,20
 469 1499 469 1499 487 1511 c 0,21,22
 505 1523 505 1523 523 1533 c 0,23,24
 541 1543 541 1543 555 1550 c 0,25,-1
 907 635 l 0,0,1
EndSplineSet
EndChar

StartChar: underscore
Encoding: 66 95 66
Width: 1000
Flags: W
LayerCount: 2
Fore
SplineSet
950 -164 m 0,0,1
 947 -175 947 -175 940 -192 c 0,2,3
 933 -209 933 -209 925 -227 c 0,4,5
 917 -245 917 -245 910 -261 c 0,6,7
 903 -277 903 -277 899 -285 c 0,8,-1
 85 -285 l 0,9,-1
 50 -251 l 0,10,11
 53 -240 53 -240 59.5 -223.5 c 0,12,13
 66 -207 66 -207 73.5 -189.5 c 0,14,15
 81 -172 81 -172 88.5 -156 c 0,16,17
 96 -140 96 -140 101 -130 c 0,18,-1
 915 -130 l 0,19,-1
 950 -164 l 0,0,1
EndSplineSet
EndChar

StartChar: grave
Encoding: 67 96 67
Width: 653
Flags: W
LayerCount: 2
Fore
SplineSet
456 1088 m 0,0,1
 450 1082 450 1082 437 1074.5 c 0,2,3
 424 1067 424 1067 410 1059.5 c 0,4,5
 396 1052 396 1052 382.5 1046 c 0,6,7
 369 1040 369 1040 360 1037 c 0,8,-1
 -32 1414 l 0,9,-1
 0 1475 l 0,10,11
 6 1477 6 1477 24.5 1480.5 c 0,12,13
 43 1484 43 1484 68 1489 c 0,14,15
 93 1494 93 1494 120.5 1499 c 0,16,17
 148 1504 148 1504 173 1508.5 c 0,18,19
 198 1513 198 1513 218 1515 c 0,20,-1
 246 1519 l 0,21,-1
 456 1088 l 0,0,1
EndSplineSet
EndChar

StartChar: a
Encoding: 68 97 68
Width: 1050
Flags: W
LayerCount: 2
Fore
SplineSet
1046 122 m 0,0,1
 1004 93 1004 93 955.5 65.5 c 0,2,3
 907 38 907 38 861.5 17 c 0,4,5
 816 -4 816 -4 779 -17 c 0,6,7
 742 -30 742 -30 722 -30 c 0,8,9
 684 -30 684 -30 657 11.5 c 0,10,11
 630 53 630 53 624 125 c 0,12,13
 579 80 579 80 533.5 50 c 0,14,15
 488 20 488 20 445.5 2 c 0,16,17
 403 -16 403 -16 364 -23 c 0,18,19
 325 -30 325 -30 293 -30 c 0,20,21
 249 -30 249 -30 207.5 -15 c 0,22,23
 166 0 166 0 133 30 c 0,24,25
 100 60 100 60 80 104 c 0,26,27
 60 148 60 148 60 206 c 0,28,29
 60 271 60 271 84 317.5 c 0,30,31
 108 364 108 364 145 401 c 0,32,33
 169 425 169 425 200.5 447.5 c 0,34,35
 232 470 232 470 285 491 c 0,36,37
 338 512 338 512 419 532 c 0,38,39
 500 552 500 552 623 571 c 0,40,-1
 623 682 l 0,41,42
 623 712 623 712 617.5 737.5 c 0,43,44
 612 763 612 763 598.5 781 c 0,45,46
 585 799 585 799 562 809.5 c 0,47,48
 539 820 539 820 505 820 c 0,49,50
 484 820 484 820 462.5 811.5 c 0,51,52
 441 803 441 803 424.5 787 c 0,53,54
 408 771 408 771 398.5 747.5 c 0,55,56
 389 724 389 724 392 694 c 0,57,58
 393 688 393 688 374 678.5 c 0,59,60
 355 669 355 669 325.5 658.5 c 0,61,62
 296 648 296 648 260.5 638 c 0,63,64
 225 628 225 628 192.5 620.5 c 0,65,66
 160 613 160 613 135 609 c 0,67,68
 110 605 110 605 102 607 c 0,69,-1
 78 666 l 0,70,71
 103 729 103 729 156 782.5 c 0,72,73
 209 836 209 836 281 875.5 c 0,74,75
 353 915 353 915 438.5 937.5 c 0,76,77
 524 960 524 960 614 960 c 0,78,79
 687 960 687 960 740 940.5 c 0,80,81
 793 921 793 921 827 887.5 c 0,82,83
 861 854 861 854 877 808.5 c 0,84,85
 893 763 893 763 893 712 c 0,86,-1
 893 258 l 0,87,88
 893 216 893 216 904 198 c 0,89,90
 915 180 915 180 933 180 c 0,91,92
 940 180 940 180 947 181 c 0,93,94
 954 182 954 182 964 185 c 0,95,96
 974 188 974 188 987.5 193.5 c 0,97,98
 1001 199 1001 199 1021 207 c 0,99,-1
 1046 122 l 0,0,1
432 160 m 0,100,101
 447 160 447 160 465 163 c 0,102,103
 483 166 483 166 505.5 176.5 c 0,104,105
 528 187 528 187 557 206 c 0,106,107
 586 225 586 225 623 257 c 0,108,-1
 623 466 l 0,109,110
 570 457 570 457 533.5 449 c 0,111,112
 497 441 497 441 472 432.5 c 0,113,114
 447 424 447 424 430.5 414 c 0,115,116
 414 404 414 404 402 392 c 0,117,118
 376 366 376 366 360 338 c 0,119,120
 344 310 344 310 344 269 c 0,121,122
 344 237 344 237 353 216 c 0,123,124
 362 195 362 195 375 182.5 c 0,125,126
 388 170 388 170 403.5 165 c 0,127,128
 419 160 419 160 432 160 c 0,100,101
EndSplineSet
EndChar

StartChar: b
Encoding: 69 98 69
Width: 1120
Flags: W
LayerCount: 2
Fore
SplineSet
1050 512 m 0,0,1
 1050 454 1050 454 1027 391.5 c 0,2,3
 1004 329 1004 329 964 268.5 c 0,4,5
 924 208 924 208 871 154 c 0,6,7
 818 100 818 100 758 59 c 0,8,9
 698 18 698 18 634 -6 c 0,10,11
 570 -30 570 -30 509 -30 c 0,12,13
 479 -30 479 -30 434.5 -20 c 0,14,15
 390 -10 390 -10 338 7 c 0,16,17
 286 24 286 24 230 47 c 0,18,19
 174 70 174 70 120 96 c 0,20,-1
 120 1256 l 0,21,22
 120 1302 120 1302 116.5 1327 c 0,23,24
 113 1352 113 1352 101 1364.5 c 0,25,26
 89 1377 89 1377 65 1381 c 0,27,28
 41 1385 41 1385 0 1390 c 0,29,-1
 0 1470 l 0,30,31
 52 1478 52 1478 97 1485.5 c 0,32,33
 142 1493 142 1493 183.5 1502.5 c 0,34,35
 225 1512 225 1512 264 1523.5 c 0,36,37
 303 1535 303 1535 343 1550 c 0,38,39
 347 1546 347 1546 354.5 1539 c 0,40,41
 362 1532 362 1532 370 1524 c 0,42,43
 379 1515 379 1515 390 1506 c 0,44,-1
 390 827 l 0,45,46
 440 864 440 864 488 889.5 c 0,47,48
 536 915 536 915 579.5 931 c 0,49,50
 623 947 623 947 660.5 953.5 c 0,51,52
 698 960 698 960 727 960 c 0,53,54
 803 960 803 960 863 928 c 0,55,56
 923 896 923 896 964.5 837.5 c 0,57,58
 1006 779 1006 779 1028 696.5 c 0,59,60
 1050 614 1050 614 1050 512 c 0,0,1
800 418 m 0,61,62
 800 518 800 518 783.5 586 c 0,63,64
 767 654 767 654 738 696 c 0,65,66
 709 738 709 738 670.5 756.5 c 0,67,68
 632 775 632 775 587 775 c 0,69,70
 552 775 552 775 505.5 758.5 c 0,71,72
 459 742 459 742 390 700 c 0,73,-1
 390 223 l 0,74,75
 470 185 470 185 524.5 167.5 c 0,76,77
 579 150 579 150 607 150 c 0,78,79
 656 150 656 150 692.5 170 c 0,80,81
 729 190 729 190 753 226 c 0,82,83
 777 262 777 262 788.5 311 c 0,84,85
 800 360 800 360 800 418 c 0,61,62
EndSplineSet
EndChar

StartChar: c
Encoding: 70 99 70
Width: 945
Flags: W
LayerCount: 2
Fore
SplineSet
910 190 m 0,0,1
 845 117 845 117 788 73.5 c 0,2,3
 731 30 731 30 679 7 c 0,4,5
 627 -16 627 -16 579.5 -23 c 0,6,7
 532 -30 532 -30 485 -30 c 0,8,9
 401 -30 401 -30 324 2.5 c 0,10,11
 247 35 247 35 188.5 96 c 0,12,13
 130 157 130 157 95 245 c 0,14,15
 60 333 60 333 60 444 c 0,16,17
 60 552 60 552 100 646 c 0,18,19
 140 740 140 740 212.5 809.5 c 0,20,21
 285 879 285 879 386 919.5 c 0,22,23
 487 960 487 960 610 960 c 0,24,25
 643 960 643 960 687 954.5 c 0,26,27
 731 949 731 949 773.5 938.5 c 0,28,29
 816 928 816 928 852 913.5 c 0,30,31
 888 899 888 899 905 881 c 0,32,33
 906 873 906 873 902 850.5 c 0,34,35
 898 828 898 828 890.5 798.5 c 0,36,37
 883 769 883 769 873 735.5 c 0,38,39
 863 702 863 702 853 672 c 0,40,41
 843 642 843 642 833.5 619 c 0,42,43
 824 596 824 596 818 587 c 0,44,-1
 741 597 l 0,45,46
 722 657 722 657 702 700.5 c 0,47,48
 682 744 682 744 658 773 c 0,49,50
 634 802 634 802 605 816 c 0,51,52
 576 830 576 830 540 830 c 0,53,54
 499 830 499 830 461 811 c 0,55,56
 423 792 423 792 394 750 c 0,57,58
 365 708 365 708 347.5 640.5 c 0,59,60
 330 573 330 573 330 475 c 0,61,62
 330 397 330 397 348.5 336.5 c 0,63,64
 367 276 367 276 400.5 234.5 c 0,65,66
 434 193 434 193 479 171.5 c 0,67,68
 524 150 524 150 577 150 c 0,69,70
 605 150 605 150 632 153.5 c 0,71,72
 659 157 659 157 690.5 169 c 0,73,74
 722 181 722 181 760.5 203 c 0,75,76
 799 225 799 225 851 261 c 0,77,-1
 910 190 l 0,0,1
EndSplineSet
EndChar

StartChar: d
Encoding: 71 100 71
Width: 1175
Flags: W
LayerCount: 2
Fore
SplineSet
745 272 m 0,0,-1
 745 698 l 0,1,2
 707 756 707 756 656.5 788 c 0,3,4
 606 820 606 820 540 820 c 0,5,6
 495 820 495 820 456.5 802.5 c 0,7,8
 418 785 418 785 390 747 c 0,9,10
 362 709 362 709 346 649 c 0,11,12
 330 589 330 589 330 505 c 0,13,14
 330 428 330 428 348.5 367.5 c 0,15,16
 367 307 367 307 397.5 265.5 c 0,17,18
 428 224 428 224 467 202 c 0,19,20
 506 180 506 180 547 180 c 0,21,22
 572 180 572 180 595 184.5 c 0,23,24
 618 189 618 189 641.5 199.5 c 0,25,26
 665 210 665 210 690.5 228 c 0,27,28
 716 246 716 246 745 272 c 0,0,-1
1171 124 m 0,29,30
 1125 93 1125 93 1074 65 c 0,31,32
 1023 37 1023 37 977.5 16 c 0,33,34
 932 -5 932 -5 897.5 -17.5 c 0,35,36
 863 -30 863 -30 849 -30 c 0,37,38
 811 -30 811 -30 788 12.5 c 0,39,40
 765 55 765 55 754 136 c 0,41,42
 705 89 705 89 666 57 c 0,43,44
 627 25 627 25 591 5.5 c 0,45,46
 555 -14 555 -14 518 -22 c 0,47,48
 481 -30 481 -30 436 -30 c 0,49,50
 365 -30 365 -30 297.5 2.5 c 0,51,52
 230 35 230 35 177.5 96 c 0,53,54
 125 157 125 157 92.5 245 c 0,55,56
 60 333 60 333 60 444 c 0,57,58
 60 549 60 549 96 642.5 c 0,59,60
 132 736 132 736 197 806.5 c 0,61,62
 262 877 262 877 352.5 918.5 c 0,63,64
 443 960 443 960 551 960 c 0,65,66
 598 960 598 960 644.5 949 c 0,67,68
 691 938 691 938 745 902 c 0,69,-1
 745 1234 l 0,70,71
 745 1289 745 1289 743.5 1321.5 c 0,72,73
 742 1354 742 1354 730 1371.5 c 0,74,75
 718 1389 718 1389 690.5 1395.5 c 0,76,77
 663 1402 663 1402 610 1406 c 0,78,-1
 610 1485 l 0,79,80
 670 1490 670 1490 724.5 1498 c 0,81,82
 779 1506 779 1506 826 1514.5 c 0,83,84
 873 1523 873 1523 910.5 1532.5 c 0,85,86
 948 1542 948 1542 974 1550 c 0,87,-1
 1015 1510 l 0,88,-1
 1015 314 l 0,89,90
 1015 279 1015 279 1016.5 255.5 c 0,91,92
 1018 232 1018 232 1020.5 217.5 c 0,93,94
 1023 203 1023 203 1027.5 196 c 0,95,96
 1032 189 1032 189 1038 186 c 0,97,98
 1044 183 1044 183 1050.5 181.5 c 0,99,100
 1057 180 1057 180 1067.5 182 c 0,101,102
 1078 184 1078 184 1095 189.5 c 0,103,104
 1112 195 1112 195 1138 207 c 0,105,-1
 1171 124 l 0,29,30
EndSplineSet
EndChar

StartChar: e
Encoding: 72 101 72
Width: 1006
Flags: W
LayerCount: 2
Fore
SplineSet
946 547 m 0,0,1
 937 537 937 537 918.5 524.5 c 0,2,3
 900 512 900 512 878 500 c 0,4,5
 856 488 856 488 834 477 c 0,6,7
 812 466 812 466 796 460 c 0,8,-1
 340 460 l 0,9,10
 343 391 343 391 359.5 333.5 c 0,11,12
 376 276 376 276 405.5 235.5 c 0,13,14
 435 195 435 195 478 172.5 c 0,15,16
 521 150 521 150 576 150 c 0,17,18
 607 150 607 150 637 153.5 c 0,19,20
 667 157 667 157 701.5 169 c 0,21,22
 736 181 736 181 779.5 204 c 0,23,24
 823 227 823 227 883 266 c 0,25,26
 889 263 889 263 898 252.5 c 0,27,28
 907 242 907 242 915.5 230.5 c 0,29,30
 924 219 924 219 931 209 c 0,31,32
 938 199 938 199 940 195 c 0,33,34
 869 126 869 126 813 82 c 0,35,36
 757 38 757 38 705 13 c 0,37,38
 653 -12 653 -12 600.5 -21 c 0,39,40
 548 -30 548 -30 485 -30 c 0,41,42
 397 -30 397 -30 319.5 4.5 c 0,43,44
 242 39 242 39 184.5 101.5 c 0,45,46
 127 164 127 164 93.5 251 c 0,47,48
 60 338 60 338 60 444 c 0,49,50
 60 580 60 580 109.5 682.5 c 0,51,52
 159 785 159 785 261 861 c 0,53,54
 317 903 317 903 393.5 931.5 c 0,55,56
 470 960 470 960 554 960 c 0,57,58
 652 960 652 960 725.5 928 c 0,59,60
 799 896 799 896 848 840 c 0,61,62
 897 784 897 784 921.5 708.5 c 0,63,64
 946 633 946 633 946 547 c 0,0,1
516 835 m 0,65,66
 471 835 471 835 440 817.5 c 0,67,68
 409 800 409 800 388.5 767 c 0,69,70
 368 734 368 734 357 687 c 0,71,72
 346 640 346 640 342 580 c 0,73,-1
 644 580 l 0,74,75
 667 580 667 580 674.5 587.5 c 0,76,77
 682 595 682 595 682 616 c 0,78,79
 682 647 682 647 673.5 685 c 0,80,81
 665 723 665 723 645.5 756.5 c 0,82,83
 626 790 626 790 594 812.5 c 0,84,85
 562 835 562 835 516 835 c 0,65,66
EndSplineSet
EndChar

StartChar: f
Encoding: 73 102 73
Width: 715
Flags: W
LayerCount: 2
Fore
SplineSet
915 1454 m 0,0,1
 915 1441 915 1441 904.5 1423 c 0,2,3
 894 1405 894 1405 877.5 1385.5 c 0,4,5
 861 1366 861 1366 841 1346 c 0,6,7
 821 1326 821 1326 801.5 1309.5 c 0,8,9
 782 1293 782 1293 765 1280.5 c 0,10,11
 748 1268 748 1268 738 1263 c 0,12,13
 690 1328 690 1328 646 1356.5 c 0,14,15
 602 1385 602 1385 568 1385 c 0,16,17
 542 1385 542 1385 520.5 1369.5 c 0,18,19
 499 1354 499 1354 483 1313 c 0,20,21
 467 1272 467 1272 458.5 1200 c 0,22,23
 450 1128 450 1128 450 1016 c 0,24,-1
 450 930 l 0,25,-1
 696 930 l 0,26,-1
 735 891 l 0,27,28
 726 873 726 873 712.5 853.5 c 0,29,30
 699 834 699 834 685.5 816 c 0,31,32
 672 798 672 798 659 783 c 0,33,34
 646 768 646 768 637 760 c 0,35,36
 614 772 614 772 572 783.5 c 0,37,38
 530 795 530 795 450 795 c 0,39,-1
 450 142 l 0,40,41
 450 136 450 136 459 130 c 0,42,43
 468 124 468 124 491 117.5 c 0,44,45
 514 111 514 111 552 102.5 c 0,46,47
 590 94 590 94 649 83 c 0,48,-1
 649 0 l 0,49,-1
 50 0 l 0,50,-1
 50 83 l 0,51,52
 119 95 119 95 149.5 112.5 c 0,53,54
 180 130 180 130 180 142 c 0,55,-1
 180 795 l 0,56,-1
 66 795 l 0,57,-1
 35 833 l 0,58,-1
 113 930 l 0,59,-1
 180 930 l 0,60,-1
 180 961 l 0,61,62
 180 1103 180 1103 219 1210 c 0,63,64
 258 1317 258 1317 339 1398 c 0,65,66
 379 1438 379 1438 421 1467 c 0,67,68
 463 1496 463 1496 504 1514.5 c 0,69,70
 545 1533 545 1533 584 1541.5 c 0,71,72
 623 1550 623 1550 657 1550 c 0,73,74
 706 1550 706 1550 752.5 1538 c 0,75,76
 799 1526 799 1526 835 1510.5 c 0,77,78
 871 1495 871 1495 893 1479 c 0,79,80
 915 1463 915 1463 915 1454 c 0,0,1
EndSplineSet
EndChar

StartChar: g
Encoding: 74 103 74
Width: 1079
Flags: W
LayerCount: 2
Fore
SplineSet
920 641 m 0,0,1
 920 564 920 564 886.5 500.5 c 0,2,3
 853 437 853 437 795.5 391.5 c 0,4,5
 738 346 738 346 661.5 320.5 c 0,6,7
 585 295 585 295 499 295 c 0,8,-1
 487 295 l 0,9,10
 452 261 452 261 444 241.5 c 0,11,12
 436 222 436 222 436 216 c 0,13,14
 436 208 436 208 440.5 200.5 c 0,15,16
 445 193 445 193 466 185 c 0,17,18
 487 177 487 177 530.5 168.5 c 0,19,20
 574 160 574 160 652 150 c 0,21,22
 772 134 772 134 851 113.5 c 0,23,24
 930 93 930 93 976.5 63.5 c 0,25,26
 1023 34 1023 34 1041.5 -6 c 0,27,28
 1060 -46 1060 -46 1060 -100 c 0,29,30
 1060 -145 1060 -145 1038 -191 c 0,31,32
 1016 -237 1016 -237 978 -280.5 c 0,33,34
 940 -324 940 -324 888 -362 c 0,35,36
 836 -400 836 -400 775.5 -428.5 c 0,37,38
 715 -457 715 -457 649 -473.5 c 0,39,40
 583 -490 583 -490 517 -490 c 0,41,42
 463 -490 463 -490 404.5 -483.5 c 0,43,44
 346 -477 346 -477 289.5 -463 c 0,45,46
 233 -449 233 -449 182.5 -427.5 c 0,47,48
 132 -406 132 -406 93.5 -375.5 c 0,49,50
 55 -345 55 -345 32.5 -306.5 c 0,51,52
 10 -268 10 -268 10 -219 c 0,53,54
 10 -195 10 -195 21 -170 c 0,55,56
 32 -145 32 -145 59.5 -116.5 c 0,57,58
 87 -88 87 -88 134.5 -55 c 0,59,60
 182 -22 182 -22 255 19 c 0,61,62
 200 41 200 41 171 65 c 0,63,64
 142 89 142 89 142 113 c 0,65,66
 142 137 142 137 188 191.5 c 0,67,68
 234 246 234 246 336 316 c 0,69,70
 279 332 279 332 231.5 358.5 c 0,71,72
 184 385 184 385 150.5 421.5 c 0,73,74
 117 458 117 458 98.5 503.5 c 0,75,76
 80 549 80 549 80 602 c 0,77,78
 80 675 80 675 117 740.5 c 0,79,80
 154 806 154 806 216 854.5 c 0,81,82
 278 903 278 903 360.5 931.5 c 0,83,84
 443 960 443 960 535 960 c 0,85,86
 608 960 608 960 670.5 940.5 c 0,87,88
 733 921 733 921 783 887 c 0,89,90
 823 893 823 893 862 902.5 c 0,91,92
 901 912 901 912 936 922.5 c 0,93,94
 971 933 971 933 1000 942.5 c 0,95,96
 1029 952 1029 952 1049 960 c 0,97,-1
 1079 920 l 0,98,99
 1077 910 1077 910 1070.5 894.5 c 0,100,101
 1064 879 1064 879 1056 862 c 0,102,103
 1048 845 1048 845 1039 828.5 c 0,104,105
 1030 812 1030 812 1022 800 c 0,106,107
 989 795 989 795 955 790.5 c 0,108,109
 921 786 921 786 880 784 c 0,110,111
 920 718 920 718 920 641 c 0,0,1
568 -54 m 0,112,113
 470 -41 470 -41 389 -21 c 0,114,115
 350 -50 350 -50 328.5 -73.5 c 0,116,117
 307 -97 307 -97 296 -115.5 c 0,118,119
 285 -134 285 -134 282.5 -150 c 0,120,121
 280 -166 280 -166 280 -180 c 0,122,123
 280 -211 280 -211 303 -239 c 0,124,125
 326 -267 326 -267 367.5 -288.5 c 0,126,127
 409 -310 409 -310 466.5 -322.5 c 0,128,129
 524 -335 524 -335 592 -335 c 0,130,131
 648 -335 648 -335 687.5 -321.5 c 0,132,133
 727 -308 727 -308 752 -285.5 c 0,134,135
 777 -263 777 -263 788.5 -234.5 c 0,136,137
 800 -206 800 -206 800 -177 c 0,138,139
 800 -161 800 -161 792 -143.5 c 0,140,141
 784 -126 784 -126 759.5 -109.5 c 0,142,143
 735 -93 735 -93 689.5 -78.5 c 0,144,145
 644 -64 644 -64 568 -54 c 0,112,113
660 600 m 0,146,147
 660 649 660 649 648 693 c 0,148,149
 636 737 636 737 613 769.5 c 0,150,151
 590 802 590 802 555.5 821 c 0,152,153
 521 840 521 840 476 840 c 0,154,155
 451 840 451 840 427 829 c 0,156,157
 403 818 403 818 383.5 795.5 c 0,158,159
 364 773 364 773 352 739 c 0,160,161
 340 705 340 705 340 659 c 0,162,163
 340 609 340 609 350.5 565.5 c 0,164,165
 361 522 361 522 383.5 490 c 0,166,167
 406 458 406 458 441 439 c 0,168,169
 476 420 476 420 524 420 c 0,170,171
 553 420 553 420 578 431 c 0,172,173
 603 442 603 442 621 464 c 0,174,175
 639 486 639 486 649.5 520 c 0,176,177
 660 554 660 554 660 600 c 0,146,147
EndSplineSet
EndChar

StartChar: h
Encoding: 75 104 75
Width: 1210
Flags: W
LayerCount: 2
Fore
SplineSet
660 0 m 0,0,-1
 660 83 l 0,1,2
 732 102 732 102 761 116 c 0,3,4
 790 130 790 130 790 144 c 0,5,-1
 790 553 l 0,6,7
 790 614 790 614 784 654 c 0,8,9
 778 694 778 694 765 717.5 c 0,10,11
 752 741 752 741 731.5 750.5 c 0,12,13
 711 760 711 760 682 760 c 0,14,15
 655 760 655 760 629.5 753.5 c 0,16,17
 604 747 604 747 576 735.5 c 0,18,19
 548 724 548 724 516 707 c 0,20,21
 484 690 484 690 445 669 c 0,22,-1
 445 144 l 0,23,24
 445 129 445 129 477.5 113 c 0,25,26
 510 97 510 97 575 83 c 0,27,-1
 575 0 l 0,28,-1
 45 0 l 0,29,-1
 45 83 l 0,30,31
 111 100 111 100 143 113.5 c 0,32,33
 175 127 175 127 175 144 c 0,34,-1
 175 1258 l 0,35,36
 175 1300 175 1300 173 1323.5 c 0,37,38
 171 1347 171 1347 158.5 1360 c 0,39,40
 146 1373 146 1373 119.5 1378.5 c 0,41,42
 93 1384 93 1384 45 1390 c 0,43,-1
 45 1470 l 0,44,45
 106 1478 106 1478 154 1486 c 0,46,47
 202 1494 202 1494 243 1503.5 c 0,48,49
 284 1513 284 1513 321 1524 c 0,50,51
 358 1535 358 1535 398 1550 c 0,52,-1
 445 1506 l 0,53,-1
 445 814 l 0,54,55
 507 855 507 855 561.5 883 c 0,56,57
 616 911 616 911 665 928 c 0,58,59
 714 945 714 945 757 952.5 c 0,60,61
 800 960 800 960 839 960 c 0,62,63
 882 960 882 960 922 946 c 0,64,65
 962 932 962 932 992.5 900.5 c 0,66,67
 1023 869 1023 869 1041.5 817.5 c 0,68,69
 1060 766 1060 766 1060 691 c 0,70,-1
 1060 144 l 0,71,72
 1060 137 1060 137 1065.5 130.5 c 0,73,74
 1071 124 1071 124 1085.5 117 c 0,75,76
 1100 110 1100 110 1125.5 101.5 c 0,77,78
 1151 93 1151 93 1190 83 c 0,79,-1
 1190 0 l 0,80,-1
 660 0 l 0,0,-1
EndSplineSet
EndChar

StartChar: i
Encoding: 76 105 76
Width: 635
Flags: W
LayerCount: 2
Fore
SplineSet
500 1261 m 0,0,1
 500 1225 500 1225 486 1196 c 0,2,3
 472 1167 472 1167 447 1146.5 c 0,4,5
 422 1126 422 1126 388.5 1115 c 0,6,7
 355 1104 355 1104 315 1104 c 0,8,9
 285 1104 285 1104 257.5 1110.5 c 0,10,11
 230 1117 230 1117 208 1131.5 c 0,12,13
 186 1146 186 1146 173 1168 c 0,14,15
 160 1190 160 1190 160 1220 c 0,16,17
 160 1256 160 1256 174.5 1285 c 0,18,19
 189 1314 189 1314 214 1334 c 0,20,21
 239 1354 239 1354 272.5 1365 c 0,22,23
 306 1376 306 1376 345 1376 c 0,24,25
 374 1376 374 1376 402 1369.5 c 0,26,27
 430 1363 430 1363 451.5 1349 c 0,28,29
 473 1335 473 1335 486.5 1313.5 c 0,30,31
 500 1292 500 1292 500 1261 c 0,0,1
60 0 m 0,32,-1
 60 83 l 0,33,34
 128 97 128 97 159 113.5 c 0,35,36
 190 130 190 130 190 144 c 0,37,-1
 190 640 l 0,38,39
 190 691 190 691 189.5 722.5 c 0,40,41
 189 754 189 754 178 771.5 c 0,42,43
 167 789 167 789 140 797 c 0,44,45
 113 805 113 805 60 810 c 0,46,-1
 60 890 l 0,47,48
 154 902 154 902 233 918.5 c 0,49,50
 312 935 312 935 386 960 c 0,51,-1
 460 960 l 0,52,-1
 460 144 l 0,53,54
 460 132 460 132 488.5 114.5 c 0,55,56
 517 97 517 97 590 83 c 0,57,-1
 590 0 l 0,58,-1
 60 0 l 0,32,-1
EndSplineSet
EndChar

StartChar: j
Encoding: 77 106 77
Width: 610
Flags: W
LayerCount: 2
Fore
SplineSet
500 1261 m 0,0,1
 500 1225 500 1225 486 1196 c 0,2,3
 472 1167 472 1167 447 1146.5 c 0,4,5
 422 1126 422 1126 388.5 1115 c 0,6,7
 355 1104 355 1104 315 1104 c 0,8,9
 285 1104 285 1104 257.5 1110.5 c 0,10,11
 230 1117 230 1117 208 1131.5 c 0,12,13
 186 1146 186 1146 173 1168 c 0,14,15
 160 1190 160 1190 160 1220 c 0,16,17
 160 1256 160 1256 174.5 1285 c 0,18,19
 189 1314 189 1314 214 1334 c 0,20,21
 239 1354 239 1354 272.5 1365 c 0,22,23
 306 1376 306 1376 345 1376 c 0,24,25
 374 1376 374 1376 402 1369.5 c 0,26,27
 430 1363 430 1363 451.5 1349 c 0,28,29
 473 1335 473 1335 486.5 1313.5 c 0,30,31
 500 1292 500 1292 500 1261 c 0,0,1
455 109 m 0,32,33
 455 -6 455 -6 432.5 -85 c 0,34,35
 410 -164 410 -164 375 -218.5 c 0,36,37
 340 -273 340 -273 297.5 -310.5 c 0,38,39
 255 -348 255 -348 215 -380 c 0,40,41
 188 -401 188 -401 154 -421 c 0,42,43
 120 -441 120 -441 84 -456.5 c 0,44,45
 48 -472 48 -472 12 -481 c 0,46,47
 -24 -490 -24 -490 -54 -490 c 0,48,49
 -96 -490 -96 -490 -141.5 -479 c 0,50,51
 -187 -468 -187 -468 -224.5 -452.5 c 0,52,53
 -262 -437 -262 -437 -286 -420 c 0,54,55
 -310 -403 -310 -403 -310 -391 c 0,56,57
 -310 -380 -310 -380 -299 -364 c 0,58,59
 -288 -348 -288 -348 -270.5 -329 c 0,60,61
 -253 -310 -253 -310 -231.5 -291 c 0,62,63
 -210 -272 -210 -272 -189 -255.5 c 0,64,65
 -168 -239 -168 -239 -150.5 -226.5 c 0,66,67
 -133 -214 -133 -214 -123 -210 c 0,68,69
 -107 -231 -107 -231 -82.5 -248.5 c 0,70,71
 -58 -266 -58 -266 -31.5 -278.5 c 0,72,73
 -5 -291 -5 -291 20.5 -298 c 0,74,75
 46 -305 46 -305 65 -305 c 0,76,77
 90 -305 90 -305 112 -292 c 0,78,79
 134 -279 134 -279 150 -241 c 0,80,81
 166 -203 166 -203 175.5 -135 c 0,82,83
 185 -67 185 -67 185 43 c 0,84,-1
 185 640 l 0,85,86
 185 691 185 691 184 722 c 0,87,88
 183 753 183 753 172 770.5 c 0,89,90
 161 788 161 788 134 796 c 0,91,92
 107 804 107 804 55 810 c 0,93,-1
 55 890 l 0,94,95
 112 897 112 897 153.5 904 c 0,96,97
 195 911 195 911 230.5 919 c 0,98,99
 266 927 266 927 300.5 937 c 0,100,101
 335 947 335 947 378 960 c 0,102,-1
 455 960 l 0,103,-1
 455 109 l 0,32,33
EndSplineSet
EndChar

StartChar: k
Encoding: 78 107 78
Width: 1164
Flags: W
LayerCount: 2
Fore
SplineSet
45 0 m 0,0,-1
 45 83 l 0,1,2
 111 100 111 100 143 113 c 0,3,4
 175 126 175 126 175 144 c 0,5,-1
 175 1256 l 0,6,7
 175 1302 175 1302 171 1327 c 0,8,9
 167 1352 167 1352 153.5 1364.5 c 0,10,11
 140 1377 140 1377 114 1381 c 0,12,13
 88 1385 88 1385 45 1390 c 0,14,-1
 45 1470 l 0,15,16
 152 1484 152 1484 238.5 1501.5 c 0,17,18
 325 1519 325 1519 398 1550 c 0,19,-1
 445 1506 l 0,20,-1
 445 535 l 0,21,-1
 693 759 l 0,22,23
 726 789 726 789 736 806.5 c 0,24,25
 746 824 746 824 740 833 c 0,26,27
 734 842 734 842 715 844.5 c 0,28,29
 696 847 696 847 670 847 c 0,30,-1
 670 930 l 0,31,-1
 1139 930 l 0,32,-1
 1139 847 l 0,33,34
 1094 842 1094 842 1048.5 824.5 c 0,35,36
 1003 807 1003 807 959 775 c 0,37,-1
 668 560 l 0,38,-1
 1024 161 l 0,39,40
 1038 145 1038 145 1051 136 c 0,41,42
 1064 127 1064 127 1080.5 123 c 0,43,44
 1097 119 1097 119 1118 119 c 0,45,46
 1139 119 1139 119 1168 121 c 0,47,-1
 1174 38 l 0,48,49
 1145 31 1145 31 1105.5 23 c 0,50,51
 1066 15 1066 15 1028.5 7.5 c 0,52,53
 991 0 991 0 960.5 -5 c 0,54,55
 930 -10 930 -10 920 -10 c 0,56,57
 878 -10 878 -10 847.5 2 c 0,58,59
 817 14 817 14 795 43 c 0,60,-1
 445 515 l 0,61,-1
 445 144 l 0,62,63
 445 136 445 136 448.5 130 c 0,64,65
 452 124 452 124 463 117.5 c 0,66,67
 474 111 474 111 496 103 c 0,68,69
 518 95 518 95 555 83 c 0,70,-1
 555 0 l 0,71,-1
 45 0 l 0,0,-1
EndSplineSet
EndChar

StartChar: l
Encoding: 79 108 79
Width: 635
Flags: W
LayerCount: 2
Fore
SplineSet
50 0 m 0,0,-1
 50 83 l 0,1,2
 93 90 93 90 120.5 97.5 c 0,3,4
 148 105 148 105 163.5 112.5 c 0,5,6
 179 120 179 120 184.5 128 c 0,7,8
 190 136 190 136 190 144 c 0,9,-1
 190 1256 l 0,10,11
 190 1301 190 1301 185.5 1326 c 0,12,13
 181 1351 181 1351 167 1363.5 c 0,14,15
 153 1376 153 1376 127.5 1380.5 c 0,16,17
 102 1385 102 1385 60 1390 c 0,18,-1
 60 1470 l 0,19,20
 115 1477 115 1477 161.5 1484.5 c 0,21,22
 208 1492 208 1492 250 1501 c 0,23,24
 292 1510 292 1510 332 1522 c 0,25,26
 372 1534 372 1534 414 1550 c 0,27,-1
 460 1506 l 0,28,-1
 460 144 l 0,29,30
 460 136 460 136 466.5 128.5 c 0,31,32
 473 121 473 121 489 113 c 0,33,34
 505 105 505 105 532 97.5 c 0,35,36
 559 90 559 90 600 83 c 0,37,-1
 600 0 l 0,38,-1
 50 0 l 0,0,-1
EndSplineSet
EndChar

StartChar: m
Encoding: 80 109 80
Width: 1755
Flags: W
LayerCount: 2
Fore
SplineSet
1216 0 m 0,0,-1
 1216 83 l 0,1,2
 1252 92 1252 92 1273.5 100.5 c 0,3,4
 1295 109 1295 109 1306.5 116.5 c 0,5,6
 1318 124 1318 124 1321.5 130.5 c 0,7,8
 1325 137 1325 137 1325 144 c 0,9,-1
 1325 593 l 0,10,11
 1325 654 1325 654 1318.5 689.5 c 0,12,13
 1312 725 1312 725 1299.5 743 c 0,14,15
 1287 761 1287 761 1267.5 765.5 c 0,16,17
 1248 770 1248 770 1222 770 c 0,18,19
 1186 770 1186 770 1133.5 752.5 c 0,20,21
 1081 735 1081 735 1020 693 c 0,22,-1
 1020 144 l 0,23,24
 1020 137 1020 137 1024 130.5 c 0,25,26
 1028 124 1028 124 1041 117 c 0,27,28
 1054 110 1054 110 1078 101.5 c 0,29,30
 1102 93 1102 93 1141 83 c 0,31,-1
 1141 0 l 0,32,-1
 641 0 l 0,33,-1
 641 83 l 0,34,35
 677 92 677 92 698.5 100.5 c 0,36,37
 720 109 720 109 731.5 116.5 c 0,38,39
 743 124 743 124 746.5 130.5 c 0,40,41
 750 137 750 137 750 144 c 0,42,-1
 750 593 l 0,43,44
 750 654 750 654 745.5 689.5 c 0,45,46
 741 725 741 725 730.5 743 c 0,47,48
 720 761 720 761 702 765.5 c 0,49,50
 684 770 684 770 657 770 c 0,51,52
 619 770 619 770 567 753.5 c 0,53,54
 515 737 515 737 445 693 c 0,55,-1
 445 144 l 0,56,57
 445 129 445 129 472.5 113 c 0,58,59
 500 97 500 97 565 83 c 0,60,-1
 565 0 l 0,61,-1
 45 0 l 0,62,-1
 45 83 l 0,63,64
 111 100 111 100 143 113.5 c 0,65,66
 175 127 175 127 175 144 c 0,67,-1
 175 681 l 0,68,69
 175 721 175 721 173 744 c 0,70,71
 171 767 171 767 158.5 779.5 c 0,72,73
 146 792 146 792 119.5 798 c 0,74,75
 93 804 93 804 45 810 c 0,76,-1
 45 890 l 0,77,78
 102 896 102 896 147.5 903 c 0,79,80
 193 910 193 910 233 918 c 0,81,82
 273 926 273 926 310 936.5 c 0,83,84
 347 947 347 947 385 960 c 0,85,-1
 430 915 l 0,86,-1
 441 826 l 0,87,88
 501 870 501 870 549 896.5 c 0,89,90
 597 923 597 923 638 937 c 0,91,92
 679 951 679 951 715.5 955.5 c 0,93,94
 752 960 752 960 788 960 c 0,95,96
 836 960 836 960 871.5 948 c 0,97,98
 907 936 907 936 932 918 c 0,99,100
 957 900 957 900 972.5 878 c 0,101,102
 988 856 988 856 996 835 c 0,103,-1
 1000 824 l 0,104,105
 1061 868 1061 868 1110 894.5 c 0,106,107
 1159 921 1159 921 1200.5 935.5 c 0,108,109
 1242 950 1242 950 1279 955 c 0,110,111
 1316 960 1316 960 1353 960 c 0,112,113
 1401 960 1401 960 1444.5 946 c 0,114,115
 1488 932 1488 932 1521.5 900.5 c 0,116,117
 1555 869 1555 869 1575 817.5 c 0,118,119
 1595 766 1595 766 1595 691 c 0,120,-1
 1595 144 l 0,121,122
 1595 130 1595 130 1626 116.5 c 0,123,124
 1657 103 1657 103 1736 83 c 0,125,-1
 1736 0 l 0,126,-1
 1216 0 l 0,0,-1
EndSplineSet
EndChar

StartChar: n
Encoding: 81 110 81
Width: 1210
Flags: W
LayerCount: 2
Fore
SplineSet
660 0 m 0,0,-1
 660 83 l 0,1,2
 732 102 732 102 761 116 c 0,3,4
 790 130 790 130 790 144 c 0,5,-1
 790 573 l 0,6,7
 790 626 790 626 785 662 c 0,8,9
 780 698 780 698 768.5 719.5 c 0,10,11
 757 741 757 741 738.5 750.5 c 0,12,13
 720 760 720 760 692 760 c 0,14,15
 671 760 671 760 647.5 756.5 c 0,16,17
 624 753 624 753 595.5 743.5 c 0,18,19
 567 734 567 734 530 716 c 0,20,21
 493 698 493 698 445 669 c 0,22,-1
 445 144 l 0,23,24
 445 129 445 129 477.5 113 c 0,25,26
 510 97 510 97 575 83 c 0,27,-1
 575 0 l 0,28,-1
 45 0 l 0,29,-1
 45 83 l 0,30,31
 111 100 111 100 143 113.5 c 0,32,33
 175 127 175 127 175 144 c 0,34,-1
 175 681 l 0,35,36
 175 720 175 720 173.5 743 c 0,37,38
 172 766 172 766 160.5 779 c 0,39,40
 149 792 149 792 122.5 798 c 0,41,42
 96 804 96 804 45 810 c 0,43,-1
 45 890 l 0,44,45
 97 895 97 895 142.5 901.5 c 0,46,47
 188 908 188 908 228.5 916.5 c 0,48,49
 269 925 269 925 307.5 935.5 c 0,50,51
 346 946 346 946 385 960 c 0,52,-1
 430 915 l 0,53,-1
 441 806 l 0,54,55
 504 850 504 850 559 879.5 c 0,56,57
 614 909 614 909 663.5 927 c 0,58,59
 713 945 713 945 756.5 952.5 c 0,60,61
 800 960 800 960 839 960 c 0,62,63
 882 960 882 960 922 946 c 0,64,65
 962 932 962 932 992.5 900.5 c 0,66,67
 1023 869 1023 869 1041.5 817.5 c 0,68,69
 1060 766 1060 766 1060 691 c 0,70,-1
 1060 144 l 0,71,72
 1060 137 1060 137 1065.5 130.5 c 0,73,74
 1071 124 1071 124 1085.5 117 c 0,75,76
 1100 110 1100 110 1125.5 101.5 c 0,77,78
 1151 93 1151 93 1190 83 c 0,79,-1
 1190 0 l 0,80,-1
 660 0 l 0,0,-1
EndSplineSet
EndChar

StartChar: o
Encoding: 82 111 82
Width: 1090
Flags: W
LayerCount: 2
Fore
SplineSet
1030 485 m 0,0,1
 1030 418 1030 418 1011.5 354 c 0,2,3
 993 290 993 290 960 233 c 0,4,5
 927 176 927 176 880.5 127.5 c 0,6,7
 834 79 834 79 778 44 c 0,8,9
 722 9 722 9 658 -10.5 c 0,10,11
 594 -30 594 -30 526 -30 c 0,12,13
 420 -30 420 -30 334 6 c 0,14,15
 248 42 248 42 187 105 c 0,16,17
 126 168 126 168 93 255 c 0,18,19
 60 342 60 342 60 444 c 0,20,21
 60 510 60 510 76.5 574 c 0,22,23
 93 638 93 638 124 695.5 c 0,24,25
 155 753 155 753 200 801.5 c 0,26,27
 245 850 245 850 301 885 c 0,28,29
 357 920 357 920 423.5 940 c 0,30,31
 490 960 490 960 565 960 c 0,32,33
 670 960 670 960 756 924 c 0,34,35
 842 888 842 888 903 824.5 c 0,36,37
 964 761 964 761 997 674 c 0,38,39
 1030 587 1030 587 1030 485 c 0,0,1
745 435 m 0,40,41
 745 514 745 514 731.5 585.5 c 0,42,43
 718 657 718 657 692 711.5 c 0,44,45
 666 766 666 766 626.5 798 c 0,46,47
 587 830 587 830 536 830 c 0,48,49
 479 830 479 830 442 803 c 0,50,51
 405 776 405 776 383.5 728 c 0,52,53
 362 680 362 680 353.5 614.5 c 0,54,55
 345 549 345 549 345 473 c 0,56,57
 345 394 345 394 360.5 326 c 0,58,59
 376 258 376 258 403.5 207.5 c 0,60,61
 431 157 431 157 469.5 128.5 c 0,62,63
 508 100 508 100 554 100 c 0,64,65
 610 100 610 100 647 121.5 c 0,66,67
 684 143 684 143 705.5 185.5 c 0,68,69
 727 228 727 228 736 290.5 c 0,70,71
 745 353 745 353 745 435 c 0,40,41
EndSplineSet
EndChar

StartChar: p
Encoding: 83 112 83
Width: 1165
Flags: W
LayerCount: 2
Fore
SplineSet
1105 502 m 0,0,1
 1105 434 1105 434 1086.5 368 c 0,2,3
 1068 302 1068 302 1037.5 243 c 0,4,5
 1007 184 1007 184 967 134 c 0,6,7
 927 84 927 84 883.5 47.5 c 0,8,9
 840 11 840 11 796 -9.5 c 0,10,11
 752 -30 752 -30 713 -30 c 0,12,13
 684 -30 684 -30 656 -24.5 c 0,14,15
 628 -19 628 -19 596.5 -6.5 c 0,16,17
 565 6 565 6 528 26.5 c 0,18,19
 491 47 491 47 445 78 c 0,20,-1
 445 -335 l 0,21,22
 445 -351 445 -351 482.5 -367 c 0,23,24
 520 -383 520 -383 614 -397 c 0,25,-1
 614 -480 l 0,26,-1
 45 -480 l 0,27,-1
 45 -397 l 0,28,29
 111 -381 111 -381 143 -366.5 c 0,30,31
 175 -352 175 -352 175 -335 c 0,32,-1
 175 681 l 0,33,34
 175 718 175 718 172.5 742 c 0,35,36
 170 766 170 766 157.5 780.5 c 0,37,38
 145 795 145 795 119 801.5 c 0,39,40
 93 808 93 808 45 810 c 0,41,-1
 45 890 l 0,42,43
 109 897 109 897 155 904 c 0,44,45
 201 911 201 911 238.5 918.5 c 0,46,47
 276 926 276 926 310 936 c 0,48,49
 344 946 344 946 385 960 c 0,50,-1
 430 915 l 0,51,-1
 439 817 l 0,52,53
 496 862 496 862 543 890 c 0,54,55
 590 918 590 918 628.5 933.5 c 0,56,57
 667 949 667 949 699 954.5 c 0,58,59
 731 960 731 960 760 960 c 0,60,61
 828 960 828 960 890.5 933.5 c 0,62,63
 953 907 953 907 1000.5 851.5 c 0,64,65
 1048 796 1048 796 1076.5 709.5 c 0,66,67
 1105 623 1105 623 1105 502 c 0,0,1
850 426 m 0,68,69
 850 525 850 525 830 591.5 c 0,70,71
 810 658 810 658 777.5 699 c 0,72,73
 745 740 745 740 704.5 757.5 c 0,74,75
 664 775 664 775 623 775 c 0,76,77
 605 775 605 775 591.5 773.5 c 0,78,79
 578 772 578 772 560 764.5 c 0,80,81
 542 757 542 757 515.5 742 c 0,82,83
 489 727 489 727 445 700 c 0,84,-1
 445 233 l 0,85,86
 501 203 501 203 539 186 c 0,87,88
 577 169 577 169 605.5 161 c 0,89,90
 634 153 634 153 656 151.5 c 0,91,92
 678 150 678 150 701 150 c 0,93,94
 769 151 769 151 810 222 c 0,95,96
 851 293 851 293 850 426 c 0,68,69
EndSplineSet
EndChar

StartChar: q
Encoding: 84 113 84
Width: 1145
Flags: W
LayerCount: 2
Fore
SplineSet
565 -480 m 0,0,-1
 565 -397 l 0,1,2
 659 -383 659 -383 697 -367.5 c 0,3,4
 735 -352 735 -352 735 -335 c 0,5,-1
 735 128 l 0,6,7
 687 83 687 83 647.5 53 c 0,8,9
 608 23 608 23 570 4.5 c 0,10,11
 532 -14 532 -14 492.5 -22 c 0,12,13
 453 -30 453 -30 406 -30 c 0,14,15
 347 -30 347 -30 285.5 2.5 c 0,16,17
 224 35 224 35 174 96 c 0,18,19
 124 157 124 157 92 245 c 0,20,21
 60 333 60 333 60 444 c 0,22,23
 60 532 60 532 80 599.5 c 0,24,25
 100 667 100 667 131.5 718 c 0,26,27
 163 769 163 769 201 805 c 0,28,29
 239 841 239 841 274 865 c 0,30,31
 302 884 302 884 336 901.5 c 0,32,33
 370 919 370 919 406.5 932 c 0,34,35
 443 945 443 945 480 952.5 c 0,36,37
 517 960 517 960 551 960 c 0,38,39
 580 960 580 960 608 956 c 0,40,41
 636 952 636 952 665 939.5 c 0,42,43
 694 927 694 927 726 904.5 c 0,44,45
 758 882 758 882 796 845 c 0,46,47
 823 858 823 858 854 874 c 0,48,49
 885 890 885 890 913.5 906 c 0,50,51
 942 922 942 922 964 936.5 c 0,52,53
 986 951 986 951 995 960 c 0,54,-1
 1036 920 l 0,55,56
 1027 887 1027 887 1020 849 c 0,57,58
 1014 817 1014 817 1009.5 774.5 c 0,59,60
 1005 732 1005 732 1005 687 c 0,61,-1
 1005 -335 l 0,62,63
 1005 -343 1005 -343 1011 -351 c 0,64,65
 1017 -359 1017 -359 1031.5 -367 c 0,66,67
 1046 -375 1046 -375 1071 -382.5 c 0,68,69
 1096 -390 1096 -390 1134 -397 c 0,70,-1
 1134 -480 l 0,71,-1
 565 -480 l 0,0,-1
537 180 m 0,72,73
 562 180 562 180 585 184.5 c 0,74,75
 608 189 608 189 631.5 199.5 c 0,76,77
 655 210 655 210 680 228 c 0,78,79
 705 246 705 246 735 272 c 0,80,-1
 735 690 l 0,81,82
 718 719 718 719 693.5 743 c 0,83,84
 669 767 669 767 641 784 c 0,85,86
 613 801 613 801 584 810.5 c 0,87,88
 555 820 555 820 530 820 c 0,89,90
 485 820 485 820 448.5 803.5 c 0,91,92
 412 787 412 787 385.5 750 c 0,93,94
 359 713 359 713 344.5 655 c 0,95,96
 330 597 330 597 330 515 c 0,97,98
 330 430 330 430 347 367 c 0,99,100
 364 304 364 304 392.5 262.5 c 0,101,102
 421 221 421 221 458.5 200.5 c 0,103,104
 496 180 496 180 537 180 c 0,72,73
EndSplineSet
EndChar

StartChar: r
Encoding: 85 114 85
Width: 941
Flags: W
LayerCount: 2
Fore
SplineSet
910 913 m 0,0,1
 916 909 916 909 915.5 885.5 c 0,2,3
 915 862 915 862 909.5 827 c 0,4,5
 904 792 904 792 895 750.5 c 0,6,7
 886 709 886 709 876 669.5 c 0,8,9
 866 630 866 630 855.5 597 c 0,10,11
 845 564 845 564 837 546 c 0,12,-1
 754 546 l 0,13,14
 752 586 752 586 744 624.5 c 0,15,16
 736 663 736 663 722.5 693 c 0,17,18
 709 723 709 723 689 741.5 c 0,19,20
 669 760 669 760 643 760 c 0,21,22
 625 760 625 760 603.5 756.5 c 0,23,24
 582 753 582 753 557 737 c 0,25,26
 532 721 532 721 504 688 c 0,27,28
 476 655 476 655 445 596 c 0,29,-1
 445 144 l 0,30,31
 445 129 445 129 487.5 113 c 0,32,33
 530 97 530 97 624 83 c 0,34,-1
 624 0 l 0,35,-1
 45 0 l 0,36,-1
 45 83 l 0,37,38
 175 113 175 113 175 144 c 0,39,-1
 175 656 l 0,40,41
 175 689 175 689 173 711.5 c 0,42,43
 171 734 171 734 168 748 c 0,44,45
 165 762 165 762 160.5 770 c 0,46,47
 156 778 156 778 152 783 c 0,48,49
 145 790 145 790 138 794.5 c 0,50,51
 131 799 131 799 119.5 802 c 0,52,53
 108 805 108 805 90.5 806.5 c 0,54,55
 73 808 73 808 45 810 c 0,56,-1
 45 890 l 0,57,58
 107 898 107 898 150.5 905 c 0,59,60
 194 912 194 912 230 919.5 c 0,61,62
 266 927 266 927 302 936.5 c 0,63,64
 338 946 338 946 385 960 c 0,65,-1
 430 915 l 0,66,-1
 443 798 l 0,67,68
 470 831 470 831 504.5 860.5 c 0,69,70
 539 890 539 890 578.5 912 c 0,71,72
 618 934 618 934 661 947 c 0,73,74
 704 960 704 960 747 960 c 0,75,76
 787 960 787 960 830 947 c 0,77,78
 873 934 873 934 910 913 c 0,0,1
EndSplineSet
EndChar

StartChar: s
Encoding: 86 115 86
Width: 880
Flags: W
LayerCount: 2
Fore
SplineSet
809 283 m 0,0,1
 809 212 809 212 787 161.5 c 0,2,3
 765 111 765 111 730 76 c 0,4,5
 695 41 695 41 650 20 c 0,6,7
 605 -1 605 -1 559 -12 c 0,8,9
 513 -23 513 -23 470 -26.5 c 0,10,11
 427 -30 427 -30 395 -30 c 0,12,13
 360 -30 360 -30 320 -25.5 c 0,14,15
 280 -21 280 -21 238.5 -12 c 0,16,17
 197 -3 197 -3 157.5 11 c 0,18,19
 118 25 118 25 85 43 c 0,20,21
 78 46 78 46 74.5 79.5 c 0,22,23
 71 113 71 113 71 160 c 0,24,25
 71 207 71 207 76 259.5 c 0,26,27
 81 312 81 312 92 353 c 0,28,-1
 185 342 l 0,29,30
 198 285 198 285 222 240 c 0,31,32
 246 195 246 195 277.5 164 c 0,33,34
 309 133 309 133 346.5 116.5 c 0,35,36
 384 100 384 100 425 100 c 0,37,38
 497 100 497 100 528 120.5 c 0,39,40
 559 141 559 141 559 197 c 0,41,42
 559 237 559 237 539 269.5 c 0,43,44
 519 302 519 302 486 329.5 c 0,45,46
 453 357 453 357 410 381 c 0,47,48
 367 405 367 405 321 429 c 0,49,50
 279 450 279 450 237 476 c 0,51,52
 195 502 195 502 160.5 533.5 c 0,53,54
 126 565 126 565 104.5 603.5 c 0,55,56
 83 642 83 642 83 690 c 0,57,58
 83 752 83 752 115 802 c 0,59,60
 147 852 147 852 200 887 c 0,61,62
 253 922 253 922 320.5 941 c 0,63,64
 388 960 388 960 460 960 c 0,65,66
 506 960 506 960 552 954.5 c 0,67,68
 598 949 598 949 639 939 c 0,69,70
 680 929 680 929 714.5 915 c 0,71,72
 749 901 749 901 773 883 c 0,73,74
 779 878 779 878 776 847 c 0,75,76
 773 816 773 816 763.5 777 c 0,77,78
 754 738 754 738 740.5 700 c 0,79,80
 727 662 727 662 713 643 c 0,81,-1
 634 651 l 0,82,83
 617 745 617 745 571.5 797.5 c 0,84,85
 526 850 526 850 454 850 c 0,86,87
 395 850 395 850 364 826 c 0,88,89
 333 802 333 802 333 760 c 0,90,91
 333 728 333 728 348 703.5 c 0,92,93
 363 679 363 679 392 657 c 0,94,95
 421 635 421 635 464 612 c 0,96,97
 507 589 507 589 564 559 c 0,98,99
 607 537 607 537 651 512 c 0,100,101
 695 487 695 487 730 454.5 c 0,102,103
 765 422 765 422 787 380.5 c 0,104,105
 809 339 809 339 809 283 c 0,0,1
EndSplineSet
EndChar

StartChar: t
Encoding: 87 116 87
Width: 775
Flags: W
LayerCount: 2
Fore
SplineSet
756 167 m 0,0,1
 612 64 612 64 519 17 c 0,2,3
 426 -30 426 -30 373 -30 c 0,4,5
 327 -30 327 -30 286.5 -12.5 c 0,6,7
 246 5 246 5 215.5 40.5 c 0,8,9
 185 76 185 76 167.5 128.5 c 0,10,11
 150 181 150 181 150 251 c 0,12,-1
 150 795 l 0,13,-1
 31 795 l 0,14,-1
 0 833 l 0,15,-1
 78 930 l 0,16,-1
 150 930 l 0,17,-1
 150 1126 l 0,18,-1
 379 1290 l 0,19,-1
 420 1255 l 0,20,-1
 420 930 l 0,21,-1
 717 930 l 0,22,-1
 756 891 l 0,23,24
 747 873 747 873 733.5 853.5 c 0,25,26
 720 834 720 834 706 816 c 0,27,28
 692 798 692 798 678.5 783 c 0,29,30
 665 768 665 768 655 760 c 0,31,32
 643 766 643 766 624.5 772 c 0,33,34
 606 778 606 778 584 783.5 c 0,35,36
 562 789 562 789 538 792 c 0,37,38
 514 795 514 795 492 795 c 0,39,-1
 420 795 l 0,40,-1
 420 347 l 0,41,42
 420 298 420 298 426.5 264.5 c 0,43,44
 433 231 433 231 443.5 210 c 0,45,46
 454 189 454 189 468 179.5 c 0,47,48
 482 170 482 170 497 170 c 0,49,50
 515 170 515 170 534 173.5 c 0,51,52
 553 177 553 177 577 185.5 c 0,53,54
 601 194 601 194 632.5 209 c 0,55,56
 664 224 664 224 707 248 c 0,57,-1
 756 167 l 0,0,1
EndSplineSet
EndChar

StartChar: u
Encoding: 88 117 88
Width: 1175
Flags: W
LayerCount: 2
Fore
SplineSet
1169 122 m 0,0,1
 1132 98 1132 98 1084 71 c 0,2,3
 1036 44 1036 44 990 21.5 c 0,4,5
 944 -1 944 -1 908 -15.5 c 0,6,7
 872 -30 872 -30 860 -30 c 0,8,9
 842 -30 842 -30 824.5 -25 c 0,10,11
 807 -20 807 -20 791.5 -3.5 c 0,12,13
 776 13 776 13 764 44 c 0,14,15
 752 75 752 75 745 126 c 0,16,17
 683 75 683 75 634.5 44 c 0,18,19
 586 13 586 13 546 -3.5 c 0,20,21
 506 -20 506 -20 473 -25 c 0,22,23
 440 -30 440 -30 408 -30 c 0,24,25
 361 -30 361 -30 315 -17 c 0,26,27
 269 -4 269 -4 232.5 30.5 c 0,28,29
 196 65 196 65 173 125 c 0,30,31
 150 185 150 185 150 279 c 0,32,-1
 150 681 l 0,33,34
 150 729 150 729 148.5 755.5 c 0,35,36
 147 782 147 782 136.5 795.5 c 0,37,38
 126 809 126 809 101.5 814 c 0,39,40
 77 819 77 819 31 824 c 0,41,-1
 31 904 l 0,42,43
 86 908 86 908 131 912.5 c 0,44,45
 176 917 176 917 217 923 c 0,46,47
 258 929 258 929 298 938 c 0,48,49
 338 947 338 947 382 960 c 0,50,-1
 420 911 l 0,51,-1
 420 344 l 0,52,53
 420 285 420 285 427 249 c 0,54,55
 434 213 434 213 447 193 c 0,56,57
 460 173 460 173 479 166.5 c 0,58,59
 498 160 498 160 523 160 c 0,60,61
 540 160 540 160 562 164 c 0,62,63
 584 168 584 168 611 179 c 0,64,65
 638 190 638 190 671.5 210 c 0,66,67
 705 230 705 230 745 262 c 0,68,-1
 745 681 l 0,69,70
 745 726 745 726 742 753 c 0,71,72
 739 780 739 780 726 795 c 0,73,74
 713 810 713 810 687 816 c 0,75,76
 661 822 661 822 615 824 c 0,77,-1
 615 904 l 0,78,79
 725 913 725 913 811 927.5 c 0,80,81
 897 942 897 942 975 960 c 0,82,-1
 1015 911 l 0,83,-1
 1015 294 l 0,84,85
 1015 263 1015 263 1016 244 c 0,86,87
 1017 225 1017 225 1019.5 213 c 0,88,89
 1022 201 1022 201 1026.5 195 c 0,90,91
 1031 189 1031 189 1038 184 c 0,92,93
 1044 180 1044 180 1051 179 c 0,94,95
 1058 178 1058 178 1069 180.5 c 0,96,97
 1080 183 1080 183 1096.5 189.5 c 0,98,99
 1113 196 1113 196 1139 207 c 0,100,-1
 1169 122 l 0,0,1
EndSplineSet
EndChar

StartChar: v
Encoding: 89 118 89
Width: 1050
Flags: W
LayerCount: 2
Fore
SplineSet
1039 847 m 0,0,1
 1009 840 1009 840 992 834 c 0,2,3
 975 828 975 828 965 820.5 c 0,4,5
 955 813 955 813 950 803 c 0,6,7
 945 793 945 793 939 779 c 0,8,-1
 656 89 l 0,9,10
 647 67 647 67 627.5 48 c 0,11,12
 608 29 608 29 582.5 14 c 0,13,14
 557 -1 557 -1 528 -12 c 0,15,16
 499 -23 499 -23 471 -30 c 0,17,-1
 111 779 l 0,18,19
 105 792 105 792 97.5 802.5 c 0,20,21
 90 813 90 813 79 821 c 0,22,23
 68 829 68 829 51.5 835 c 0,24,25
 35 841 35 841 10 847 c 0,26,-1
 10 930 l 0,27,-1
 486 930 l 0,28,-1
 486 847 l 0,29,30
 447 842 447 842 425 836.5 c 0,31,32
 403 831 403 831 393.5 823.5 c 0,33,34
 384 816 384 816 385 805.5 c 0,35,36
 386 795 386 795 393 779 c 0,37,-1
 597 322 l 0,38,-1
 790 779 l 0,39,40
 796 794 796 794 798 804.5 c 0,41,42
 800 815 800 815 792.5 822.5 c 0,43,44
 785 830 785 830 767 835.5 c 0,45,46
 749 841 749 841 716 847 c 0,47,-1
 716 930 l 0,48,-1
 1039 930 l 0,49,-1
 1039 847 l 0,0,1
EndSplineSet
EndChar

StartChar: w
Encoding: 90 119 90
Width: 1476
Flags: W
LayerCount: 2
Fore
SplineSet
1465 847 m 0,0,1
 1438 840 1438 840 1420.5 833.5 c 0,2,3
 1403 827 1403 827 1392 820.5 c 0,4,5
 1381 814 1381 814 1375 805.5 c 0,6,7
 1369 797 1369 797 1365 785 c 0,8,-1
 1144 59 l 0,9,10
 1138 37 1138 37 1119 21.5 c 0,11,12
 1100 6 1100 6 1077 -4.5 c 0,13,14
 1054 -15 1054 -15 1032 -21 c 0,15,16
 1010 -27 1010 -27 997 -30 c 0,17,-1
 736 525 l 0,18,-1
 534 59 l 0,19,20
 526 36 526 36 508 20.5 c 0,21,22
 490 5 490 5 468 -5.5 c 0,23,24
 446 -16 446 -16 425 -21.5 c 0,25,26
 404 -27 404 -27 391 -30 c 0,27,-1
 119 785 l 0,28,29
 113 803 113 803 86.5 819.5 c 0,30,31
 60 836 60 836 10 847 c 0,32,-1
 10 930 l 0,33,-1
 486 930 l 0,34,-1
 486 847 l 0,35,36
 445 842 445 842 422 835.5 c 0,37,38
 399 829 399 829 389 820.5 c 0,39,40
 379 812 379 812 378.5 803 c 0,41,42
 378 794 378 794 381 785 c 0,43,-1
 518 367 l 0,44,-1
 755 930 l 0,45,-1
 834 930 l 0,46,-1
 1083 367 l 0,47,-1
 1217 785 l 0,48,49
 1221 796 1221 796 1222 805 c 0,50,51
 1223 814 1223 814 1216.5 821.5 c 0,52,53
 1210 829 1210 829 1192 835 c 0,54,55
 1174 841 1174 841 1140 847 c 0,56,-1
 1140 930 l 0,57,-1
 1465 930 l 0,58,-1
 1465 847 l 0,0,1
EndSplineSet
EndChar

StartChar: x
Encoding: 91 120 91
Width: 1080
Flags: W
LayerCount: 2
Fore
SplineSet
544 0 m 0,0,-1
 544 83 l 0,1,2
 569 85 569 85 589.5 88 c 0,3,4
 610 91 610 91 620.5 99.5 c 0,5,6
 631 108 631 108 629 123.5 c 0,7,8
 627 139 627 139 608 166 c 0,9,-1
 477 348 l 0,10,-1
 331 166 l 0,11,12
 310 140 310 140 309.5 124.5 c 0,13,14
 309 109 309 109 321 100.5 c 0,15,16
 333 92 333 92 354 88.5 c 0,17,18
 375 85 375 85 399 83 c 0,19,-1
 399 0 l 0,20,-1
 10 0 l 0,21,-1
 10 83 l 0,22,23
 46 89 46 89 71.5 98 c 0,24,25
 97 107 97 107 115.5 118.5 c 0,26,27
 134 130 134 130 147.5 143.5 c 0,28,29
 161 157 161 157 173 172 c 0,30,-1
 399 457 l 0,31,-1
 181 762 l 0,32,33
 168 780 168 780 155 794.5 c 0,34,35
 142 809 142 809 124.5 819.5 c 0,36,37
 107 830 107 830 82.5 837 c 0,38,39
 58 844 58 844 21 847 c 0,40,-1
 21 930 l 0,41,-1
 541 930 l 0,42,-1
 541 847 l 0,43,44
 510 844 510 844 492.5 839.5 c 0,45,46
 475 835 475 835 469 826.5 c 0,47,48
 463 818 463 818 469.5 803 c 0,49,50
 476 788 476 788 493 764 c 0,51,-1
 590 628 l 0,52,-1
 698 764 l 0,53,54
 717 788 717 788 724 802.5 c 0,55,56
 731 817 731 817 725.5 826 c 0,57,58
 720 835 720 835 702.5 839.5 c 0,59,60
 685 844 685 844 654 847 c 0,61,-1
 654 930 l 0,62,-1
 1035 930 l 0,63,-1
 1035 847 l 0,64,65
 994 844 994 844 967 837 c 0,66,67
 940 830 940 830 920.5 819.5 c 0,68,69
 901 809 901 809 887 794.5 c 0,70,71
 873 780 873 780 859 762 c 0,72,-1
 667 520 l 0,73,-1
 916 172 l 0,74,75
 927 157 927 157 939.5 143 c 0,76,77
 952 129 952 129 969 117 c 0,78,79
 986 105 986 105 1009.5 96 c 0,80,81
 1033 87 1033 87 1066 83 c 0,82,-1
 1066 0 l 0,83,-1
 544 0 l 0,0,-1
EndSplineSet
EndChar

StartChar: y
Encoding: 92 121 92
Width: 1050
Flags: W
LayerCount: 2
Fore
SplineSet
1039 847 m 0,0,1
 1009 840 1009 840 990 834 c 0,2,3
 971 828 971 828 959.5 820.5 c 0,4,5
 948 813 948 813 941.5 803.5 c 0,6,7
 935 794 935 794 929 779 c 0,8,-1
 595 -72 l 0,9,10
 552 -182 552 -182 502.5 -261 c 0,11,12
 453 -340 453 -340 396.5 -391 c 0,13,14
 340 -442 340 -442 278 -466 c 0,15,16
 216 -490 216 -490 147 -490 c 0,17,18
 109 -490 109 -490 70.5 -482 c 0,19,20
 32 -474 32 -474 1.5 -463 c 0,21,22
 -29 -452 -29 -452 -48 -439 c 0,23,24
 -67 -426 -67 -426 -67 -417 c 0,25,26
 -67 -407 -67 -407 -48.5 -379 c 0,27,28
 -30 -351 -30 -351 -4.5 -319.5 c 0,29,30
 21 -288 21 -288 47.5 -260 c 0,31,32
 74 -232 74 -232 90 -222 c 0,33,34
 141 -257 141 -257 192 -265.5 c 0,35,36
 243 -274 243 -274 280 -260 c 0,37,38
 298 -254 298 -254 317.5 -243 c 0,39,40
 337 -232 337 -232 356 -213 c 0,41,42
 375 -194 375 -194 393.5 -164.5 c 0,43,44
 412 -135 412 -135 430 -92 c 0,45,-1
 459 -23 l 0,46,-1
 121 779 l 0,47,48
 110 806 110 806 85 821 c 0,49,50
 60 836 60 836 10 847 c 0,51,-1
 10 930 l 0,52,-1
 486 930 l 0,53,-1
 486 847 l 0,54,55
 447 842 447 842 427 836.5 c 0,56,57
 407 831 407 831 399.5 823.5 c 0,58,59
 392 816 392 816 394 805.5 c 0,60,61
 396 795 396 795 403 779 c 0,62,-1
 596 322 l 0,63,-1
 780 779 l 0,64,65
 786 794 786 794 789 804.5 c 0,66,67
 792 815 792 815 787 822.5 c 0,68,69
 782 830 782 830 765 835.5 c 0,70,71
 748 841 748 841 715 847 c 0,72,-1
 715 930 l 0,73,-1
 1039 930 l 0,74,-1
 1039 847 l 0,0,1
EndSplineSet
EndChar

StartChar: z
Encoding: 93 122 93
Width: 977
Flags: W
LayerCount: 2
Fore
SplineSet
899 358 m 0,0,1
 899 326 899 326 898 273 c 0,2,3
 897 220 897 220 895.5 165 c 0,4,5
 894 110 894 110 892 64 c 0,6,7
 890 18 890 18 887 0 c 0,8,-1
 82 0 l 0,9,-1
 56 45 l 0,10,-1
 576 800 l 0,11,-1
 345 800 l 0,12,13
 297 800 297 800 256.5 742.5 c 0,14,15
 216 685 216 685 188 570 c 0,16,-1
 109 592 l 0,17,-1
 137 946 l 0,18,19
 159 940 159 940 177 936.5 c 0,20,21
 195 933 195 933 214.5 931.5 c 0,22,23
 234 930 234 930 257 930 c 0,24,-1
 895 930 l 0,25,-1
 917 887 l 0,26,-1
 395 130 l 0,27,-1
 712 130 l 0,28,29
 732 130 732 130 746 147.5 c 0,30,31
 760 165 760 165 772 197.5 c 0,32,33
 784 230 784 230 795.5 275.5 c 0,34,35
 807 321 807 321 822 378 c 0,36,-1
 899 358 l 0,0,1
EndSplineSet
EndChar

StartChar: braceleft
Encoding: 94 123 94
Width: 727
Flags: W
LayerCount: 2
Fore
SplineSet
707 1513 m 0,0,1
 629 1464 629 1464 581 1401 c 0,2,3
 533 1338 533 1338 533 1272 c 0,4,5
 533 1221 533 1221 539.5 1179.5 c 0,6,7
 546 1138 546 1138 553.5 1097.5 c 0,8,9
 561 1057 561 1057 567.5 1015.5 c 0,10,11
 574 974 574 974 574 923 c 0,12,13
 574 881 574 881 558.5 840.5 c 0,14,15
 543 800 543 800 516 764.5 c 0,16,17
 489 729 489 729 452.5 700 c 0,18,19
 416 671 416 671 374 653 c 0,20,21
 474 635 474 635 524 565.5 c 0,22,23
 574 496 574 496 574 385 c 0,24,25
 574 332 574 332 567.5 285 c 0,26,27
 561 238 561 238 553.5 194 c 0,28,29
 546 150 546 150 539.5 107.5 c 0,30,31
 533 65 533 65 533 23 c 0,32,33
 533 -13 533 -13 539 -44 c 0,34,35
 545 -75 545 -75 562.5 -103 c 0,36,37
 580 -131 580 -131 612 -158 c 0,38,39
 644 -185 644 -185 697 -214 c 0,40,-1
 654 -315 l 0,41,42
 559 -281 559 -281 483.5 -246.5 c 0,43,44
 408 -212 408 -212 355.5 -170 c 0,45,46
 303 -128 303 -128 275 -74 c 0,47,48
 247 -20 247 -20 247 52 c 0,49,50
 247 103 247 103 253.5 147 c 0,51,52
 260 191 260 191 267.5 233.5 c 0,53,54
 275 276 275 276 281.5 321.5 c 0,55,56
 288 367 288 367 288 422 c 0,57,58
 288 503 288 503 255 534.5 c 0,59,60
 222 566 222 566 162 566 c 0,61,-1
 141 566 l 0,62,63
 135 566 135 566 130 565.5 c 0,64,65
 125 565 125 565 118.5 563.5 c 0,66,67
 112 562 112 562 97 560 c 0,68,-1
 80 653 l 0,69,70
 190 684 190 684 239 736 c 0,71,72
 288 788 288 788 288 863 c 0,73,74
 288 916 288 916 281.5 957.5 c 0,75,76
 275 999 275 999 267.5 1038 c 0,77,78
 260 1077 260 1077 253.5 1119 c 0,79,80
 247 1161 247 1161 247 1215 c 0,81,82
 247 1282 247 1282 279.5 1338 c 0,83,84
 312 1394 312 1394 368 1441 c 0,85,86
 424 1488 424 1488 499.5 1527 c 0,87,88
 575 1566 575 1566 661 1600 c 0,89,-1
 707 1513 l 0,0,1
EndSplineSet
EndChar

StartChar: bar
Encoding: 95 124 95
Width: 470
Flags: W
LayerCount: 2
Fore
SplineSet
340 -343 m 0,0,1
 331 -351 331 -351 313.5 -360 c 0,2,3
 296 -369 296 -369 276 -377.5 c 0,4,5
 256 -386 256 -386 236.5 -393.5 c 0,6,7
 217 -401 217 -401 205 -405 c 0,8,-1
 160 -372 l 0,9,-1
 160 1611 l 0,10,11
 174 1619 174 1619 191 1628 c 0,12,13
 208 1637 208 1637 226 1645 c 0,14,15
 244 1653 244 1653 261.5 1659.5 c 0,16,17
 279 1666 279 1666 294 1670 c 0,18,-1
 340 1638 l 0,19,-1
 340 -343 l 0,0,1
EndSplineSet
EndChar

StartChar: braceright
Encoding: 96 125 96
Width: 727
Flags: W
LayerCount: 2
Fore
SplineSet
647 631 m 0,0,1
 537 600 537 600 488 548 c 0,2,3
 439 496 439 496 439 421 c 0,4,5
 439 368 439 368 445.5 326.5 c 0,6,7
 452 285 452 285 459.5 246 c 0,8,9
 467 207 467 207 473.5 165 c 0,10,11
 480 123 480 123 480 69 c 0,12,13
 480 1 480 1 447.5 -54.5 c 0,14,15
 415 -110 415 -110 359 -157 c 0,16,17
 303 -204 303 -204 227.5 -243 c 0,18,19
 152 -282 152 -282 66 -316 c 0,20,-1
 20 -229 l 0,21,22
 98 -180 98 -180 146 -117 c 0,23,24
 194 -54 194 -54 194 12 c 0,25,26
 194 63 194 63 187.5 104.5 c 0,27,28
 181 146 181 146 173.5 186.5 c 0,29,30
 166 227 166 227 159.5 268.5 c 0,31,32
 153 310 153 310 153 361 c 0,33,34
 153 403 153 403 168.5 443.5 c 0,35,36
 184 484 184 484 211 519.5 c 0,37,38
 238 555 238 555 274.5 584 c 0,39,40
 311 613 311 613 353 631 c 0,41,42
 253 649 253 649 203 718.5 c 0,43,44
 153 788 153 788 153 899 c 0,45,46
 153 951 153 951 159.5 998.5 c 0,47,48
 166 1046 166 1046 173.5 1090 c 0,49,50
 181 1134 181 1134 187.5 1176.5 c 0,51,52
 194 1219 194 1219 194 1261 c 0,53,54
 194 1297 194 1297 188 1328 c 0,55,56
 182 1359 182 1359 164.5 1387 c 0,57,58
 147 1415 147 1415 115 1442 c 0,59,60
 83 1469 83 1469 30 1498 c 0,61,-1
 73 1599 l 0,62,63
 168 1565 168 1565 243.5 1530.5 c 0,64,65
 319 1496 319 1496 371.5 1454 c 0,66,67
 424 1412 424 1412 452 1358 c 0,68,69
 480 1304 480 1304 480 1232 c 0,70,71
 480 1181 480 1181 473.5 1137 c 0,72,73
 467 1093 467 1093 459.5 1050.5 c 0,74,75
 452 1008 452 1008 445.5 962.5 c 0,76,77
 439 917 439 917 439 862 c 0,78,79
 439 781 439 781 472 749.5 c 0,80,81
 505 718 505 718 565 718 c 0,82,-1
 585 718 l 0,83,84
 592 718 592 718 597 718.5 c 0,85,86
 602 719 602 719 608.5 720.5 c 0,87,88
 615 722 615 722 630 724 c 0,89,-1
 647 631 l 0,0,1
EndSplineSet
EndChar

StartChar: asciitilde
Encoding: 97 126 97
Width: 999
Flags: W
LayerCount: 2
Fore
SplineSet
950 774 m 0,0,1
 929 725 929 725 897 672.5 c 0,2,3
 865 620 865 620 825.5 576.5 c 0,4,5
 786 533 786 533 740.5 505 c 0,6,7
 695 477 695 477 647 477 c 0,8,9
 605 477 605 477 558 502 c 0,10,11
 511 527 511 527 462.5 557 c 0,12,13
 414 587 414 587 366.5 612 c 0,14,15
 319 637 319 637 276 637 c 0,16,17
 227 637 227 637 185.5 598 c 0,18,19
 144 559 144 559 102 475 c 0,20,-1
 49 502 l 0,21,22
 70 551 70 551 102.5 603.5 c 0,23,24
 135 656 135 656 174.5 699.5 c 0,25,26
 214 743 214 743 259 771 c 0,27,28
 304 799 304 799 352 799 c 0,29,30
 398 799 398 799 446.5 774 c 0,31,32
 495 749 495 749 542.5 719 c 0,33,34
 590 689 590 689 635.5 664 c 0,35,36
 681 639 681 639 721 639 c 0,37,38
 769 639 769 639 812 678 c 0,39,40
 855 717 855 717 897 799 c 0,41,-1
 950 774 l 0,0,1
EndSplineSet
EndChar

StartChar: exclam.taml
Encoding: 99 -1 99
Width: 956
Flags: W
LayerCount: 2
Fore
SplineSet
678 1061 m 1,0,1
 641 807 641 807 602 481 c 0,2,3
 588 366 588 366 569 182 c 1,4,-1
 496 182 l 1,5,6
 488 254 488 254 476.5 351.5 c 128,-1,7
 465 449 465 449 438.5 656.5 c 128,-1,8
 412 864 412 864 383 1061 c 0,9,10
 381 1077 381 1077 381 1108 c 0,11,12
 381 1190 381 1190 422 1242 c 128,-1,13
 463 1294 463 1294 530 1294 c 0,14,15
 682 1294 682 1294 678 1061 c 1,0,1
680 -72 m 0,16,17
 680 -138 680 -138 640 -180.5 c 128,-1,18
 600 -223 600 -223 532 -223 c 0,19,20
 473 -223 473 -223 430 -180 c 128,-1,21
 387 -137 387 -137 387 -72 c 0,22,23
 387 -15 387 -15 430 25.5 c 128,-1,24
 473 66 473 66 530 66 c 0,25,26
 589 66 589 66 634.5 25.5 c 128,-1,27
 680 -15 680 -15 680 -72 c 0,16,17
EndSplineSet
EndChar

StartChar: quoteleft.taml
Encoding: 100 -1 100
Width: 798
Flags: W
LayerCount: 2
Fore
SplineSet
633 1837 m 1,0,1
 475 1786 475 1786 388 1671 c 128,-1,2
 301 1556 301 1556 334 1534 c 0,3,4
 348 1524 348 1524 367 1524 c 256,5,6
 385 1524 385 1524 425 1547.5 c 128,-1,7
 465 1571 465 1571 489 1571 c 0,8,9
 522 1571 522 1571 545 1554 c 0,10,11
 641 1493 641 1493 641 1382 c 0,12,13
 641 1323 641 1323 610 1280 c 0,14,15
 585 1237 585 1237 541.5 1215.5 c 128,-1,16
 498 1194 498 1194 440 1194 c 0,17,18
 422 1194 422 1194 353.5 1202 c 128,-1,19
 285 1210 285 1210 230.5 1293 c 128,-1,20
 176 1376 176 1376 176 1479 c 0,21,22
 176 1516 176 1516 184 1546 c 0,23,24
 227 1749 227 1749 430 1866 c 0,25,26
 496 1903 496 1903 627 1942 c 1,27,-1
 633 1837 l 1,0,1
EndSplineSet
EndChar

StartChar: u20A8
Encoding: 101 8360 101
Width: 2326
Flags: W
LayerCount: 2
Fore
SplineSet
2107 256 m 0,0,1
 2107 133 2107 133 2010 47 c 128,-1,2
 1913 -39 1913 -39 1788 -39 c 0,3,4
 1737 -39 1737 -39 1664 -17.5 c 128,-1,5
 1591 4 1591 4 1583 4 c 0,6,7
 1552 4 1552 4 1542 -25 c 1,8,-1
 1466 -25 l 1,9,-1
 1466 342 l 1,10,-1
 1546 342 l 1,11,12
 1583 190 1583 190 1644.5 133 c 128,-1,13
 1706 76 1706 76 1794 76 c 0,14,15
 1841 76 1841 76 1875 106.5 c 128,-1,16
 1909 137 1909 137 1909 180 c 0,17,18
 1909 239 1909 239 1847 283 c 0,19,20
 1824 299 1824 299 1706 352 c 0,21,22
 1597 409 1597 409 1567 432 c 0,23,24
 1465 506 1465 506 1464 631 c 0,25,26
 1464 750 1464 750 1544 826.5 c 128,-1,27
 1624 903 1624 903 1749 903 c 0,28,29
 1796 903 1796 903 1864 881 c 0,30,31
 1907 867 1907 867 1915 866 c 0,32,33
 1946 866 1946 866 1954 903 c 1,34,-1
 2042 903 l 1,35,-1
 2042 557 l 1,36,-1
 1954 557 l 1,37,38
 1923 690 1923 690 1876 740.5 c 128,-1,39
 1829 791 1829 791 1743 791 c 0,40,41
 1698 791 1698 791 1665 771.5 c 128,-1,42
 1632 752 1632 752 1632 709 c 0,43,44
 1632 648 1632 648 1704 604 c 1,45,46
 1804 557 1804 557 1862 532 c 0,47,48
 1985 471 1985 471 2032 426 c 0,49,50
 2107 354 2107 354 2107 256 c 0,0,1
1368 -12 m 1,51,-1
 979 -10 l 1,52,-1
 545 571 l 1,53,-1
 461 571 l 1,54,-1
 461 240 l 2,55,56
 461 142 461 142 480.5 111 c 128,-1,57
 500 80 500 80 557 80 c 2,58,-1
 643 80 l 1,59,-1
 643 -8 l 1,60,-1
 33 -8 l 1,61,-1
 33 80 l 1,62,-1
 106 80 l 2,63,64
 159 80 159 80 185 112.5 c 128,-1,65
 211 145 211 145 211 242 c 2,66,-1
 211 1055 l 2,67,68
 211 1139 211 1139 187.5 1169.5 c 128,-1,69
 164 1200 164 1200 109 1200 c 2,70,-1
 35 1200 l 1,71,-1
 35 1288 l 1,72,-1
 524 1288 l 2,73,74
 819 1288 819 1288 957.5 1212.5 c 128,-1,75
 1096 1137 1096 1137 1096 948 c 0,76,77
 1096 829 1096 829 1030 750 c 0,78,79
 956 660 956 660 791 612 c 1,80,81
 924 442 924 442 1004 340 c 0,82,83
 1156 150 1156 150 1181 137.5 c 128,-1,84
 1206 125 1206 125 1253 109.5 c 128,-1,85
 1300 94 1300 94 1368 84 c 1,86,-1
 1368 -12 l 1,51,-1
819 928 m 0,87,88
 819 1028 819 1028 766 1087 c 0,89,90
 698 1163 698 1163 553 1163 c 0,91,92
 496 1163 496 1163 463 1159 c 1,93,-1
 463 702 l 1,94,95
 623 702 623 702 723 765 c 128,-1,96
 823 828 823 828 819 928 c 0,87,88
EndSplineSet
EndChar

StartChar: percent.taml
Encoding: 102 -1 102
Width: 1699
Flags: W
LayerCount: 2
Fore
SplineSet
1477 455 m 0,0,1
 1477 240 1477 240 1368 125 c 0,2,3
 1280 31 1280 31 1157 31 c 0,4,5
 1063 31 1063 31 1004 78 c 0,6,7
 895 166 895 166 895 395 c 0,8,9
 895 626 895 626 1010 743 c 0,10,11
 1098 831 1098 831 1202 831 c 256,12,13
 1306 831 1306 831 1374 766 c 0,14,15
 1475 670 1475 670 1477 455 c 0,0,1
1286 1446 m 1,16,-1
 428 23 l 1,17,-1
 246 20 l 1,18,-1
 1106 1444 l 1,19,-1
 1286 1446 l 1,16,-1
659 1081 m 0,20,21
 659 850 659 850 543 731 c 0,22,23
 455 643 455 643 350 643 c 0,24,25
 248 643 248 643 180 711 c 0,26,27
 84 807 84 807 84 1022 c 0,28,29
 84 1241 84 1241 188 1352 c 0,30,31
 274 1442 274 1442 397 1442 c 0,32,33
 465 1442 465 1442 506 1423 c 0,34,35
 659 1351 659 1351 659 1081 c 0,20,21
1303 352 m 0,36,37
 1303 499 1303 499 1257.5 565 c 128,-1,38
 1212 631 1212 631 1137 631 c 0,39,40
 1100 631 1100 631 1087.5 609.5 c 128,-1,41
 1075 588 1075 588 1075 526 c 0,42,43
 1075 225 1075 225 1243 225 c 0,44,45
 1305 225 1305 225 1303 352 c 0,36,37
485 946 m 0,46,47
 485 1093 485 1093 440 1167 c 128,-1,48
 395 1241 395 1241 315 1241 c 0,49,50
 256 1241 256 1241 256 1118 c 0,51,52
 256 973 256 973 301 903.5 c 128,-1,53
 346 834 346 834 418 834 c 0,54,55
 457 834 457 834 471 859.5 c 128,-1,56
 485 885 485 885 485 946 c 0,46,47
EndSplineSet
EndChar

StartChar: ampersand.taml
Encoding: 103 -1 103
Width: 1441
Flags: W
LayerCount: 2
Fore
SplineSet
1378 272 m 1,0,1
 1339 133 1339 133 1263.5 64.5 c 128,-1,2
 1188 -4 1188 -4 1079 -4 c 0,3,4
 997 -4 997 -4 915 35 c 0,5,6
 872 60 872 60 831.5 94.5 c 128,-1,7
 791 129 791 129 768 152 c 1,8,9
 578 -8 578 -8 383 -8 c 0,10,11
 244 -8 244 -8 141 76 c 0,12,13
 51 160 51 160 51 279 c 0,14,15
 51 388 51 388 131 502 c 0,16,17
 168 553 168 553 236.5 607.5 c 128,-1,18
 305 662 305 662 408 715 c 1,19,20
 340 869 340 869 340 963 c 0,21,22
 340 1106 340 1106 435 1193 c 128,-1,23
 530 1280 530 1280 672 1280 c 0,24,25
 783 1280 783 1280 856.5 1211.5 c 128,-1,26
 930 1143 930 1143 930 1042 c 0,27,28
 930 944 930 944 870.5 870.5 c 128,-1,29
 811 797 811 797 651 715 c 1,30,31
 710 619 710 619 748 559 c 0,32,33
 805 471 805 471 850 410 c 1,34,35
 909 492 909 492 942 558.5 c 128,-1,36
 975 625 975 625 975 676 c 0,37,38
 975 715 975 715 955.5 729 c 128,-1,39
 936 743 936 743 895 752 c 1,40,-1
 895 831 l 1,41,-1
 1315 831 l 1,42,-1
 1315 750 l 1,43,44
 1268 750 1268 750 1239 742.5 c 128,-1,45
 1210 735 1210 735 1183.5 713.5 c 128,-1,46
 1157 692 1157 692 1092 561 c 0,47,48
 1022 436 1022 436 928 317 c 1,49,50
 953 288 953 288 986.5 258.5 c 128,-1,51
 1020 229 1020 229 1044 213 c 0,52,53
 1097 184 1097 184 1149 184 c 0,54,55
 1202 184 1202 184 1240 219 c 128,-1,56
 1278 254 1278 254 1296 326 c 1,57,-1
 1378 272 l 1,0,1
776 1053 m 0,58,59
 776 1098 776 1098 743.5 1131.5 c 128,-1,60
 711 1165 711 1165 666 1169 c 0,61,62
 609 1169 609 1169 575 1126 c 128,-1,63
 541 1083 541 1083 541 1036 c 0,64,65
 541 991 541 991 552 948 c 128,-1,66
 563 905 563 905 600 825 c 1,67,68
 776 920 776 920 776 1053 c 0,58,59
686 244 m 1,69,70
 590 381 590 381 545 453.5 c 128,-1,71
 500 526 500 526 455 608 c 1,72,73
 408 579 408 579 378 553.5 c 128,-1,74
 348 528 348 528 332 504 c 0,75,76
 285 432 285 432 285 358 c 0,77,78
 285 276 285 276 344 209.5 c 128,-1,79
 403 143 403 143 477 143 c 0,80,81
 522 143 522 143 573.5 167 c 128,-1,82
 625 191 625 191 686 244 c 1,69,70
EndSplineSet
EndChar

StartChar: quoteright.taml
Encoding: 104 -1 104
Width: 798
Flags: W
LayerCount: 2
Fore
SplineSet
567 1565 m 0,0,1
 522 1362 522 1362 322 1243 c 0,2,3
 256 1204 256 1204 131 1165 c 1,4,-1
 131 1270 l 1,5,6
 285 1321 285 1321 375 1444 c 0,7,8
 455 1548 455 1548 422 1573 c 0,9,10
 408 1583 408 1583 389 1583 c 256,11,12
 371 1583 371 1583 331 1557.5 c 128,-1,13
 291 1532 291 1532 262 1532 c 0,14,15
 239 1532 239 1532 209 1548 c 0,16,17
 113 1609 113 1609 113 1724 c 0,18,19
 113 1783 113 1783 143 1827 c 0,20,21
 194 1909 194 1909 311 1909 c 0,22,23
 329 1909 329 1909 396 1901.5 c 128,-1,24
 463 1894 463 1894 520.5 1810 c 128,-1,25
 578 1726 578 1726 578 1626 c 0,26,27
 577 1594 577 1594 567 1565 c 0,0,1
EndSplineSet
EndChar

StartChar: parenleft.taml
Encoding: 105 -1 105
Width: 841
Flags: W
LayerCount: 2
Fore
SplineSet
928 1757 m 1,0,1
 682 1569 682 1569 551 1244.5 c 128,-1,2
 420 920 420 920 420 547 c 0,3,4
 420 180 420 180 547 -139.5 c 128,-1,5
 674 -459 674 -459 926 -662 c 1,6,-1
 872 -729 l 1,7,8
 501 -524 501 -524 313 -182 c 0,9,10
 137 137 137 137 137 539 c 0,11,12
 137 945 137 945 311 1262 c 0,13,14
 499 1608 499 1608 872 1812 c 1,15,-1
 928 1757 l 1,0,1
EndSplineSet
EndChar

StartChar: parenright.taml
Encoding: 106 -1 106
Width: 841
Flags: W
LayerCount: 2
Fore
SplineSet
596 539 m 0,0,1
 596 138 596 138 420 -182 c 0,2,3
 230 -524 230 -524 -143 -729 c 1,4,-1
 -201 -670 l 1,5,6
 45 -469 45 -469 178 -131 c 0,7,8
 303 186 303 186 303 549 c 0,9,10
 303 922 303 922 175 1245.5 c 128,-1,11
 47 1569 47 1569 -199 1757 c 1,12,-1
 -145 1815 l 1,13,14
 224 1612 224 1612 414 1268 c 0,15,16
 594 945 594 945 596 539 c 0,0,1
EndSplineSet
EndChar

StartChar: asterisk.taml
Encoding: 107 -1 107
Width: 1757
Flags: W
LayerCount: 2
Fore
SplineSet
1294 936 m 0,0,1
 1280 911 1280 911 1250.5 896 c 128,-1,2
 1221 881 1221 881 1188 881 c 0,3,4
 1151 881 1151 881 1120 905 c 0,5,6
 1077 942 1077 942 1015.5 1000.5 c 128,-1,7
 954 1059 954 1059 924 1081 c 1,8,9
 932 1030 932 1030 946 979 c 0,10,11
 971 893 971 893 987 831 c 1,12,13
 987 772 987 772 954.5 734 c 128,-1,14
 922 696 922 696 877 696 c 0,15,16
 826 700 826 700 793 736 c 128,-1,17
 760 772 760 772 760 831 c 1,18,19
 774 905 774 905 795.5 988 c 128,-1,20
 817 1071 817 1071 819 1085 c 1,21,22
 790 1062 790 1062 739 1012 c 0,23,24
 663 932 663 932 633.5 905.5 c 128,-1,25
 604 879 604 879 551 879 c 0,26,27
 479 879 479 879 453 932 c 0,28,29
 437 957 437 957 436 985 c 0,30,31
 436 1067 436 1067 518 1096 c 0,32,33
 551 1106 551 1106 688 1139 c 0,34,35
 733 1149 733 1149 766 1163 c 1,36,37
 727 1177 727 1177 646 1197 c 128,-1,38
 565 1217 565 1217 522 1231 c 128,-1,39
 479 1245 479 1245 459.5 1279 c 128,-1,40
 440 1313 440 1313 440 1346 c 0,41,42
 440 1375 440 1375 449 1397 c 0,43,44
 482 1450 482 1450 555 1450 c 0,45,46
 600 1450 600 1450 631 1425 c 0,47,48
 682 1378 682 1378 736.5 1324 c 128,-1,49
 791 1270 791 1270 819 1245 c 1,50,51
 815 1288 815 1288 805 1327 c 0,52,53
 768 1466 768 1466 764 1503 c 0,54,55
 764 1560 764 1560 797.5 1594 c 128,-1,56
 831 1628 831 1628 879 1628 c 256,57,58
 926 1628 926 1628 956.5 1592 c 128,-1,59
 987 1556 987 1556 987 1497 c 1,60,61
 969 1423 969 1423 949.5 1349.5 c 128,-1,62
 930 1276 930 1276 926 1245 c 1,63,64
 957 1268 957 1268 1032 1343 c 0,65,66
 1075 1386 1075 1386 1120 1425 c 0,67,68
 1143 1443 1143 1443 1186 1444 c 0,69,70
 1260 1444 1260 1444 1296 1393 c 0,71,72
 1306 1370 1306 1370 1307 1339 c 0,73,74
 1307 1249 1307 1249 1231 1231 c 0,75,76
 1223 1229 1223 1229 1127.5 1206.5 c 128,-1,77
 1032 1184 1032 1184 981 1165 c 1,78,79
 1014 1151 1014 1151 1089.5 1132.5 c 128,-1,80
 1165 1114 1165 1114 1237 1092.5 c 128,-1,81
 1309 1071 1309 1071 1309 985 c 0,82,83
 1308 956 1308 956 1294 936 c 0,0,1
EndSplineSet
EndChar

StartChar: plus.taml
Encoding: 108 -1 108
Width: 1241
Flags: W
LayerCount: 2
Fore
SplineSet
940 520 m 1,0,-1
 725 520 l 1,1,-1
 725 303 l 1,2,-1
 471 303 l 1,3,-1
 471 520 l 1,4,-1
 260 520 l 1,5,-1
 260 760 l 1,6,-1
 471 760 l 1,7,-1
 471 979 l 1,8,-1
 725 979 l 1,9,-1
 725 760 l 1,10,-1
 940 760 l 1,11,-1
 940 520 l 1,0,-1
EndSplineSet
EndChar

StartChar: comma.taml
Encoding: 109 -1 109
Width: 798
Flags: W
LayerCount: 2
Fore
SplineSet
662 94 m 0,0,1
 662 -72 662 -72 537 -190 c 0,2,3
 371 -350 371 -350 225 -350 c 1,4,-1
 225 -248 l 1,5,6
 286 -244 286 -244 383 -160 c 0,7,8
 498 -60 498 -60 498 37 c 1,9,10
 475 39 475 39 434 13.5 c 128,-1,11
 393 -12 393 -12 371 -12 c 0,12,13
 318 -12 318 -12 262.5 49.5 c 128,-1,14
 207 111 207 111 207 178 c 0,15,16
 207 252 207 252 265.5 307 c 128,-1,17
 324 362 324 362 399 362 c 0,18,19
 514 362 514 362 588 278 c 128,-1,20
 662 194 662 194 662 94 c 0,0,1
EndSplineSet
EndChar

StartChar: hyphen.taml
Encoding: 110 -1 110
Width: 1241
Flags: W
LayerCount: 2
Fore
SplineSet
911 518 m 1,0,-1
 61 518 l 1,1,-1
 61 770 l 1,2,-1
 911 770 l 1,3,-1
 911 518 l 1,0,-1
EndSplineSet
EndChar

StartChar: period.taml
Encoding: 111 -1 111
Width: 704
Flags: W
LayerCount: 2
Fore
SplineSet
510 174 m 0,0,1
 510 104 510 104 445.5 49 c 128,-1,2
 381 -6 381 -6 295 -6 c 256,3,4
 209 -6 209 -6 149.5 48 c 128,-1,5
 90 102 90 102 90 176 c 0,6,7
 90 252 90 252 151.5 307 c 128,-1,8
 213 362 213 362 295 362 c 0,9,10
 381 362 381 362 445.5 307 c 128,-1,11
 510 252 510 252 510 174 c 0,0,1
EndSplineSet
EndChar

StartChar: uni2215
Encoding: 113 8725 113
Width: 784
Flags: W
LayerCount: 2
Fore
SplineSet
805 1763 m 1,0,-1
 102 -276 l 1,1,-1
 -78 -276 l 1,2,-1
 629 1763 l 1,3,-1
 805 1763 l 1,0,-1
EndSplineSet
EndChar

StartChar: zero.taml
Encoding: 114 -1 114
Width: 987
Flags: W
LayerCount: 2
Fore
SplineSet
956 627 m 0,0,1
 956 394 956 394 866 211 c 0,2,3
 743 -31 743 -31 498 -31 c 256,4,5
 252 -31 252 -31 129 211 c 0,6,7
 39 393 39 393 39 627 c 0,8,9
 39 871 39 871 127 1047 c 0,10,11
 250 1293 250 1293 498 1292 c 0,12,13
 744 1292 744 1292 866 1047 c 0,14,15
 956 865 956 865 956 627 c 0,0,1
713 627 m 0,16,17
 713 838 713 838 690 946 c 0,18,19
 643 1179 643 1179 498 1180 c 0,20,21
 355 1180 355 1180 307 948 c 0,22,23
 284 837 284 837 285 627 c 0,24,25
 285 396 285 396 303 299 c 0,26,27
 348 74 348 74 496 74 c 0,28,29
 639 74 639 74 686 299 c 0,30,31
 711 416 711 416 713 627 c 0,16,17
EndSplineSet
EndChar

StartChar: one.taml
Encoding: 115 -1 115
Width: 987
Flags: W
LayerCount: 2
Fore
SplineSet
799 -8 m 1,0,-1
 215 -8 l 1,1,-1
 215 78 l 1,2,3
 297 78 297 78 322 82 c 0,4,5
 394 96 394 96 393 186 c 2,6,-1
 393 1014 l 2,7,8
 393 1030 393 1030 393 1049 c 0,9,10
 389 1067 389 1067 358 1067 c 0,11,12
 344 1067 344 1067 331.5 1063 c 128,-1,13
 319 1059 319 1059 207 1016 c 1,14,-1
 207 1104 l 1,15,-1
 575 1286 l 1,16,-1
 623 1268 l 1,17,-1
 623 150 l 2,18,19
 623 99 623 99 655.5 84.5 c 128,-1,20
 688 70 688 70 799 70 c 1,21,-1
 799 -8 l 1,0,-1
EndSplineSet
EndChar

StartChar: two.taml
Encoding: 116 -1 116
Width: 987
Flags: W
LayerCount: 2
Fore
SplineSet
965 291 m 1,0,-1
 836 -8 l 1,1,-1
 45 -8 l 1,2,-1
 47 57 l 1,3,-1
 391 412 l 2,4,5
 631 660 631 660 631 862 c 0,6,7
 631 948 631 948 586 1008 c 0,8,9
 525 1090 525 1090 391 1090 c 0,10,11
 305 1090 305 1090 253 1047 c 128,-1,12
 201 1004 201 1004 143 856 c 1,13,-1
 53 872 l 1,14,15
 96 1095 96 1095 225 1200 c 0,16,17
 334 1288 334 1288 485 1288 c 0,18,19
 632 1288 632 1288 745 1186.5 c 128,-1,20
 858 1085 858 1085 858 926 c 0,21,22
 858 793 858 793 768 653 c 0,23,24
 717 573 717 573 608 463 c 2,25,-1
 336 190 l 1,26,-1
 719 190 l 2,27,28
 770 190 770 190 799.5 209.5 c 128,-1,29
 829 229 829 229 889 311 c 1,30,-1
 965 291 l 1,0,-1
EndSplineSet
EndChar

StartChar: three.taml
Encoding: 117 -1 117
Width: 987
Flags: W
LayerCount: 2
Fore
SplineSet
870 418 m 0,0,1
 870 215 870 215 714.5 91 c 128,-1,2
 559 -33 559 -33 315 -33 c 0,3,4
 239 -33 239 -33 178 -10 c 0,5,6
 80 27 80 27 80 100 c 0,7,8
 80 147 80 147 110.5 170 c 128,-1,9
 141 193 141 193 178 193 c 0,10,11
 217 193 217 193 274 162 c 0,12,13
 403 90 403 90 449 90 c 0,14,15
 558 90 558 90 616 166 c 128,-1,16
 674 242 674 242 674 342 c 0,17,18
 674 438 674 438 614 498 c 0,19,20
 518 594 518 594 281 594 c 1,21,-1
 281 670 l 1,22,23
 435 715 435 715 506 772 c 0,24,25
 594 844 594 844 594 952 c 0,26,27
 594 1018 594 1018 549 1066 c 128,-1,28
 504 1114 504 1114 420 1114 c 0,29,30
 318 1114 318 1114 244 1042 c 0,31,32
 219 1017 219 1017 158 922 c 1,33,-1
 78 940 l 1,34,35
 139 1135 139 1135 262 1221 c 0,36,37
 356 1287 356 1287 481 1286 c 0,38,39
 661 1286 661 1286 750 1178 c 0,40,41
 811 1102 811 1102 811 1008 c 0,42,43
 811 871 811 871 666 756 c 1,44,45
 752 713 752 713 799 651 c 0,46,47
 872 557 872 557 870 418 c 0,0,1
EndSplineSet
EndChar

StartChar: four.taml
Encoding: 118 -1 118
Width: 987
Flags: W
LayerCount: 2
Fore
SplineSet
948 295 m 1,0,-1
 754 295 l 1,1,-1
 754 -8 l 1,2,-1
 549 -8 l 1,3,-1
 549 295 l 1,4,-1
 16 295 l 1,5,-1
 16 455 l 1,6,-1
 623 1290 l 1,7,-1
 754 1292 l 1,8,-1
 754 475 l 1,9,-1
 948 475 l 1,10,-1
 948 295 l 1,0,-1
596 1038 m 1,11,12
 582 1038 582 1038 350 715 c 0,13,14
 317 668 317 668 178 477 c 1,15,-1
 547 477 l 1,16,-1
 547 1065 l 2,17,18
 543 1075 543 1075 548 1084.5 c 128,-1,19
 553 1094 553 1094 598 1094 c 1,20,-1
 596 1038 l 1,11,12
EndSplineSet
EndChar

StartChar: five.taml
Encoding: 119 -1 119
Width: 987
Flags: W
LayerCount: 2
Fore
SplineSet
893 1276 m 1,0,-1
 807 1096 l 2,1,2
 793 1053 793 1053 735 1053 c 2,3,-1
 383 1053 l 1,4,-1
 330 950 l 1,5,6
 506 925 506 925 604 874 c 0,7,8
 684 835 684 835 748.5 761.5 c 128,-1,9
 813 688 813 688 834.5 626.5 c 128,-1,10
 856 565 856 565 856 436 c 0,11,12
 856 239 856 239 705.5 106 c 128,-1,13
 555 -27 555 -27 315 -27 c 0,14,15
 190 -27 190 -27 118.5 13 c 128,-1,16
 47 53 47 53 47 113 c 0,17,18
 47 166 47 166 72.5 188.5 c 128,-1,19
 98 211 98 211 156 211 c 256,20,21
 213 211 213 211 266 178 c 0,22,23
 395 98 395 98 426 98 c 0,24,25
 520 98 520 98 589.5 174 c 128,-1,26
 659 250 659 250 659 393 c 0,27,28
 659 575 659 575 477 672 c 0,29,30
 332 748 332 748 152 748 c 0,31,32
 91 748 91 748 113 809 c 2,33,-1
 328 1255 l 1,34,-1
 745 1255 l 2,35,36
 768 1255 768 1255 784 1272 c 0,37,38
 788 1276 788 1276 825 1319 c 1,39,-1
 893 1276 l 1,0,-1
EndSplineSet
EndChar

StartChar: six.taml
Encoding: 120 -1 120
Width: 987
Flags: W
LayerCount: 2
Fore
SplineSet
940 424 m 0,0,1
 940 264 940 264 858 141 c 0,2,3
 741 -33 741 -33 504 -33 c 0,4,5
 314 -33 314 -33 195 106 c 0,6,7
 64 260 64 260 63 555 c 0,8,9
 63 858 63 858 289 1075 c 0,10,11
 531 1306 531 1306 899 1307 c 1,12,-1
 907 1221 l 1,13,14
 684 1184 684 1184 537 1057 c 0,15,16
 408 942 408 942 360 780 c 1,17,18
 450 837 450 837 561 838 c 0,19,20
 729 838 729 838 834.5 729.5 c 128,-1,21
 940 621 940 621 940 424 c 0,0,1
709 348 m 0,22,23
 709 502 709 502 666 584 c 0,24,25
 613 688 613 688 483 688 c 0,26,27
 379 688 379 688 326 645 c 1,28,29
 297 608 297 608 297 489 c 0,30,31
 297 286 297 286 362.5 182 c 128,-1,32
 428 78 428 78 532 78 c 0,33,34
 709 78 709 78 709 348 c 0,22,23
EndSplineSet
EndChar

StartChar: seven.taml
Encoding: 121 -1 121
Width: 987
Flags: W
LayerCount: 2
Fore
SplineSet
905 1266 m 1,0,-1
 903 1208 l 1,1,-1
 494 -25 l 1,2,-1
 303 -25 l 1,3,4
 342 94 342 94 385 213 c 0,5,6
 471 455 471 455 555 698 c 0,7,8
 659 1003 659 1003 678 1063 c 1,9,-1
 309 1063 l 2,10,11
 235 1063 235 1063 193 1026 c 0,12,13
 168 1003 168 1003 102 909 c 1,14,-1
 20 942 l 1,15,-1
 150 1257 l 1,16,-1
 905 1266 l 1,0,-1
EndSplineSet
EndChar

StartChar: eight.taml
Encoding: 122 -1 122
Width: 987
Flags: W
LayerCount: 2
Fore
SplineSet
897 297 m 0,0,1
 897 180 897 180 823 92 c 0,2,3
 719 -33 719 -33 489 -33 c 0,4,5
 307 -33 307 -33 202.5 62.5 c 128,-1,6
 98 158 98 158 98 287 c 0,7,8
 98 406 98 406 152 477 c 0,9,10
 189 528 189 528 328 629 c 1,11,12
 205 733 205 733 162 793 c 0,13,14
 109 873 109 873 109 975 c 0,15,16
 109 1114 109 1114 228.5 1201 c 128,-1,17
 348 1288 348 1288 496 1288 c 0,18,19
 664 1288 664 1288 764 1200 c 0,20,21
 854 1120 854 1120 854 995 c 0,22,23
 854 915 854 915 811 850 c 0,24,25
 758 768 758 768 629 696 c 1,26,27
 789 579 789 579 848 479 c 0,28,29
 893 403 893 403 897 297 c 0,0,1
662 1010 m 0,30,31
 662 1080 662 1080 616.5 1128 c 128,-1,32
 571 1176 571 1176 481 1176 c 0,33,34
 395 1176 395 1176 352 1133 c 128,-1,35
 309 1090 309 1090 309 1024 c 0,36,37
 309 942 309 942 383 868 c 0,38,39
 426 825 426 825 514 768 c 1,40,41
 575 807 575 807 608 852 c 0,42,43
 660 918 660 918 662 1010 c 0,30,31
684 250 m 0,44,45
 684 365 684 365 422 549 c 1,46,47
 369 510 369 510 340 463 c 0,48,49
 301 397 301 397 301 307 c 0,50,51
 301 207 301 207 353.5 141.5 c 128,-1,52
 406 76 406 76 506 76 c 0,53,54
 586 76 586 76 636 123 c 128,-1,55
 686 170 686 170 684 250 c 0,44,45
EndSplineSet
EndChar

StartChar: nine.taml
Encoding: 123 -1 123
Width: 987
Flags: W
LayerCount: 2
Fore
SplineSet
922 748 m 0,0,1
 922 424 922 424 713 195 c 0,2,3
 486 -53 486 -53 109 -53 c 1,4,-1
 98 43 l 1,5,6
 393 90 393 90 559 309 c 0,7,8
 604 368 604 368 678 549 c 1,9,-1
 721 532 l 1,10,11
 653 479 653 479 579.5 452.5 c 128,-1,12
 506 426 506 426 424 426 c 0,13,14
 240 426 240 426 139 559 c 0,15,16
 57 670 57 670 57 815 c 0,17,18
 57 1016 57 1016 174 1153 c 128,-1,19
 291 1290 291 1290 481 1290 c 0,20,21
 669 1290 669 1290 798.5 1139 c 128,-1,22
 928 988 928 988 922 748 c 0,0,1
684 670 m 2,23,-1
 684 741 l 2,24,25
 684 966 684 966 637 1063 c 0,26,27
 580 1174 580 1174 463 1174 c 0,28,29
 367 1174 367 1174 324 1079 c 0,30,31
 293 1007 293 1007 293 883 c 0,32,33
 293 715 293 715 354 633 c 0,34,35
 407 561 407 561 502 561 c 0,36,37
 541 561 541 561 585 577.5 c 128,-1,38
 629 594 629 594 655.5 613.5 c 128,-1,39
 682 633 682 633 684 670 c 2,23,-1
EndSplineSet
EndChar

StartChar: colon.taml
Encoding: 124 -1 124
Width: 704
Flags: W
LayerCount: 2
Fore
SplineSet
469 930 m 256,0,1
 469 848 469 848 406.5 790.5 c 128,-1,2
 344 733 344 733 258 733 c 0,3,4
 176 733 176 733 113.5 790.5 c 128,-1,5
 51 848 51 848 51 930 c 256,6,7
 51 1012 51 1012 113.5 1071 c 128,-1,8
 176 1130 176 1130 258 1130 c 0,9,10
 344 1130 344 1130 406.5 1071 c 128,-1,11
 469 1012 469 1012 469 930 c 256,0,1
469 158 m 256,12,13
 469 76 469 76 406.5 18.5 c 128,-1,14
 344 -39 344 -39 258 -39 c 0,15,16
 176 -39 176 -39 113.5 18.5 c 128,-1,17
 51 76 51 76 51 158 c 256,18,19
 51 240 51 240 113.5 299 c 128,-1,20
 176 358 176 358 258 358 c 0,21,22
 344 358 344 358 406.5 299 c 128,-1,23
 469 240 469 240 469 158 c 256,12,13
EndSplineSet
EndChar

StartChar: semicolon.taml
Encoding: 125 -1 125
Width: 704
Flags: W
LayerCount: 2
Fore
SplineSet
549 930 m 0,0,1
 549 848 549 848 485.5 789.5 c 128,-1,2
 422 731 422 731 334 731 c 0,3,4
 252 731 252 731 192.5 788.5 c 128,-1,5
 133 846 133 846 133 930 c 0,6,7
 133 1012 133 1012 192.5 1071 c 128,-1,8
 252 1130 252 1130 334 1130 c 0,9,10
 420 1130 420 1130 485.5 1071 c 128,-1,11
 551 1012 551 1012 549 930 c 0,0,1
551 104 m 0,12,13
 551 -68 551 -68 428 -190 c 0,14,15
 262 -352 262 -352 117 -352 c 1,16,-1
 117 -248 l 1,17,18
 176 -248 176 -248 272 -158 c 0,19,20
 387 -54 387 -54 387 47 c 1,21,22
 369 47 369 47 329 21.5 c 128,-1,23
 289 -4 289 -4 260 -4 c 0,24,25
 207 -4 207 -4 151.5 58.5 c 128,-1,26
 96 121 96 121 96 193 c 0,27,28
 96 269 96 269 154.5 327 c 128,-1,29
 213 385 213 385 289 385 c 0,30,31
 404 385 404 385 477.5 297.5 c 128,-1,32
 551 210 551 210 551 104 c 0,12,13
EndSplineSet
EndChar

StartChar: less.taml
Encoding: 126 -1 126
Width: 1548
Flags: W
LayerCount: 2
Fore
SplineSet
1270 -33 m 1,0,-1
 57 494 l 1,1,-1
 57 664 l 1,2,-1
 1270 1184 l 1,3,-1
 1270 971 l 1,4,-1
 354 575 l 1,5,-1
 1270 180 l 1,6,-1
 1270 -33 l 1,0,-1
EndSplineSet
EndChar

StartChar: equal.taml
Encoding: 127 -1 127
Width: 1652
Flags: W
LayerCount: 2
Fore
SplineSet
1434 834 m 1,0,-1
 219 834 l 1,1,-1
 219 1034 l 1,2,-1
 1434 1034 l 1,3,-1
 1434 834 l 1,0,-1
1434 410 m 1,4,-1
 219 410 l 1,5,-1
 219 606 l 1,6,-1
 1434 606 l 1,7,-1
 1434 410 l 1,4,-1
EndSplineSet
EndChar

StartChar: greater.taml
Encoding: 128 -1 128
Width: 1548
Flags: W
LayerCount: 2
Fore
SplineSet
1270 492 m 1,0,-1
 57 -35 l 1,1,-1
 57 178 l 1,2,-1
 971 573 l 1,3,-1
 57 969 l 1,4,-1
 57 1182 l 1,5,-1
 1270 662 l 1,6,-1
 1270 492 l 1,0,-1
EndSplineSet
EndChar

StartChar: question.taml
Encoding: 129 -1 129
Width: 1179
Flags: W
LayerCount: 2
Fore
SplineSet
930 899 m 0,0,1
 930 819 930 819 868 702 c 0,2,3
 817 606 817 606 752 532 c 0,4,5
 658 423 658 423 618 348 c 0,6,7
 571 258 571 258 543 106 c 1,8,-1
 449 106 l 1,9,10
 449 217 449 217 475 334 c 0,11,12
 483 365 483 365 514 461 c 1,13,-1
 580 606 l 2,14,15
 609 667 609 667 635.5 762.5 c 128,-1,16
 662 858 662 858 662 915 c 0,17,18
 662 1013 662 1013 610 1081 c 0,19,20
 551 1163 551 1163 442 1163 c 0,21,22
 376 1163 376 1163 320 1133.5 c 128,-1,23
 264 1104 264 1104 264 1061 c 0,24,25
 264 1036 264 1036 306 988 c 128,-1,26
 348 940 348 940 348 897 c 0,27,28
 348 850 348 850 324 819 c 0,29,30
 291 776 291 776 231 776 c 0,31,32
 155 776 155 776 121.5 823 c 128,-1,33
 88 870 88 870 88 944 c 0,34,35
 88 1112 88 1112 225 1208 c 0,36,37
 342 1290 342 1290 489 1290 c 0,38,39
 587 1290 587 1290 690 1249 c 128,-1,40
 793 1208 793 1208 844 1151 c 128,-1,41
 895 1094 895 1094 913.5 1041.5 c 128,-1,42
 932 989 932 989 930 899 c 0,0,1
655 -133 m 0,43,44
 655 -201 655 -201 607 -241 c 128,-1,45
 559 -281 559 -281 504 -281 c 0,46,47
 451 -281 451 -281 408 -250 c 0,48,49
 355 -211 355 -211 354 -135 c 0,50,51
 354 -76 354 -76 398 -35 c 128,-1,52
 442 6 442 6 504 6 c 256,53,54
 565 6 565 6 610 -37 c 128,-1,55
 655 -80 655 -80 655 -133 c 0,43,44
EndSplineSet
EndChar

StartChar: uni0952
Encoding: 133 2386 133
Width: 28
Flags: W
LayerCount: 2
Fore
SplineSet
-301 -334 m 1,0,-1
 -1587 -330 l 1,1,-1
 -1718 -121 l 1,2,-1
 -434 -123 l 1,3,-1
 -301 -334 l 1,0,-1
6 717 m 1,4,-1
 2 721 l 1,5,-1
 6 717 l 1,4,-1
6 717 m 1,6,-1
 2 721 l 1,7,-1
 6 717 l 1,6,-1
EndSplineSet
EndChar

StartChar: u0B83
Encoding: 136 2947 136
Width: 1458
Flags: W
LayerCount: 2
Fore
SplineSet
770 1094 m 0,0,1
 770 1020 770 1020 718 964.5 c 128,-1,2
 666 909 666 909 590 909 c 256,3,4
 514 909 514 909 460 963.5 c 128,-1,5
 406 1018 406 1018 406 1094 c 0,6,7
 406 1168 406 1168 460 1222 c 128,-1,8
 514 1276 514 1276 590 1276 c 0,9,10
 664 1276 664 1276 718 1222 c 128,-1,11
 772 1168 772 1168 770 1094 c 0,0,1
1184 188 m 0,12,13
 1184 114 1184 114 1129.5 60 c 128,-1,14
 1075 6 1075 6 1001 6 c 256,15,16
 927 6 927 6 872 58.5 c 128,-1,17
 817 111 817 111 817 186 c 0,18,19
 817 260 817 260 871.5 317.5 c 128,-1,20
 926 375 926 375 1001 375 c 0,21,22
 1075 375 1075 375 1129.5 317.5 c 128,-1,23
 1184 260 1184 260 1184 188 c 0,12,13
362 186 m 256,24,25
 362 112 362 112 308 58 c 128,-1,26
 254 4 254 4 178 4 c 0,27,28
 104 4 104 4 50 58.5 c 128,-1,29
 -4 113 -4 113 -4 186 c 256,30,31
 -4 260 -4 260 50 317.5 c 128,-1,32
 104 375 104 375 178 375 c 0,33,34
 250 375 250 375 306 317.5 c 128,-1,35
 362 260 362 260 362 186 c 256,24,25
EndSplineSet
EndChar

StartChar: u0B85
Encoding: 137 2949 137
Width: 2336
Flags: HW
AnchorPoint: "V" 1034 1283.98 basechar 0
AnchorPoint: "N" 1034 -217 basechar 0
LayerCount: 2
Fore
SplineSet
2060 -217 m 1,0,-1
 1798 -217 l 1,1,-1
 1798 367 l 1,2,-1
 1573 367 l 1,3,4
 1458 191 1458 191 1245 92.5 c 128,-1,5
 1032 -6 1032 -6 766 -6 c 0,6,7
 440 -6 440 -6 242 119 c 0,8,9
 103 207 103 207 14 362 c 0,10,11
 2 385 2 385 2 416 c 0,12,13
 2 453 2 453 29.5 481.5 c 128,-1,14
 57 510 57 510 117 510 c 2,15,-1
 1386 510 l 1,16,17
 1454 641 1454 641 1454 778 c 0,18,19
 1454 895 1454 895 1407 967.5 c 128,-1,20
 1360 1040 1360 1040 1270 1083 c 1,21,22
 1317 1009 1317 1009 1317 881 c 0,23,24
 1317 742 1317 742 1251 662 c 0,25,26
 1175 568 1175 568 1010 567 c 0,27,28
 867 567 867 567 788 669.5 c 128,-1,29
 709 772 709 772 709 926 c 256,30,31
 709 1080 709 1080 813.5 1184 c 128,-1,32
 918 1288 918 1288 1104 1288 c 0,33,34
 1372 1288 1372 1288 1527.5 1140.5 c 128,-1,35
 1683 993 1683 993 1683 721 c 0,36,37
 1683 617 1683 617 1653 508 c 1,38,-1
 1804 508 l 1,39,-1
 1804 1290 l 1,40,-1
 2066 1290 l 1,41,-1
 2060 -217 l 1,0,-1
1104 903 m 0,42,43
 1104 977 1104 977 1077.5 1029 c 128,-1,44
 1051 1081 1051 1081 1014 1100 c 1,45,46
 948 1110 948 1110 903 1052.5 c 128,-1,47
 858 995 858 995 858 920 c 256,48,49
 858 844 858 844 896 803 c 128,-1,50
 934 762 934 762 981 762 c 0,51,52
 1038 762 1038 762 1071 806 c 128,-1,53
 1104 850 1104 850 1104 903 c 0,42,43
1278 360 m 1,54,-1
 201 360 l 2,55,56
 185 360 185 360 176.5 355 c 128,-1,57
 168 350 168 350 172 342 c 0,58,59
 238 252 238 252 356 201 c 0,60,61
 501 140 501 140 713 139 c 0,62,63
 1065 139 1065 139 1278 360 c 1,54,-1
EndSplineSet
EndChar

StartChar: u0B86
Encoding: 138 2950 138
Width: 2848
Flags: HW
AnchorPoint: "V" 1292 1263.56 basechar 0
AnchorPoint: "N" 1292 -705 basechar 0
LayerCount: 2
Fore
SplineSet
2574 145 m 0,0,1
 2574 -265 2574 -265 2312 -489 c 0,2,3
 2064 -704 2064 -704 1649 -705 c 0,4,5
 1276 -705 1276 -705 1071 -602.5 c 128,-1,6
 866 -500 866 -500 866 -319 c 0,7,8
 866 -192 866 -192 975.5 -123.5 c 128,-1,9
 1085 -55 1085 -55 1245 -55 c 0,10,11
 1360 -55 1360 -55 1467.5 -96 c 128,-1,12
 1575 -137 1575 -137 1657 -209 c 1,13,-1
 1604 -303 l 1,14,15
 1524 -242 1524 -242 1426.5 -212 c 128,-1,16
 1329 -182 1329 -182 1233 -182 c 0,17,18
 1131 -182 1131 -182 1072.5 -218 c 128,-1,19
 1014 -254 1014 -254 1014 -319 c 0,20,21
 1014 -448 1014 -448 1190 -510 c 0,22,23
 1329 -557 1329 -557 1561 -557 c 0,24,25
 1893 -557 1893 -557 2102.5 -358.5 c 128,-1,26
 2312 -160 2312 -160 2312 129 c 0,27,28
 2312 285 2312 285 2253.5 364.5 c 128,-1,29
 2195 444 2195 444 2120 444 c 0,30,31
 2089 444 2089 444 2064 428 c 1,32,-1
 2064 -221 l 1,33,-1
 1802 -221 l 1,34,-1
 1802 362 l 1,35,-1
 1577 362 l 1,36,37
 1462 186 1462 186 1249 88 c 128,-1,38
 1036 -10 1036 -10 770 -10 c 0,39,40
 444 -10 444 -10 246 115 c 0,41,42
 107 203 107 203 18 358 c 0,43,44
 6 381 6 381 6 412 c 0,45,46
 6 449 6 449 33.5 477.5 c 128,-1,47
 61 506 61 506 121 506 c 2,48,-1
 1391 506 l 1,49,50
 1459 637 1459 637 1458 774 c 0,51,52
 1458 891 1458 891 1411 963.5 c 128,-1,53
 1364 1036 1364 1036 1274 1079 c 1,54,55
 1321 1005 1321 1005 1321 877 c 0,56,57
 1321 738 1321 738 1255 657 c 0,58,59
 1179 563 1179 563 1014 563 c 0,60,61
 871 563 871 563 792 665.5 c 128,-1,62
 713 768 713 768 713 922 c 256,63,64
 713 1076 713 1076 817.5 1180 c 128,-1,65
 922 1284 922 1284 1108 1284 c 0,66,67
 1376 1284 1376 1284 1532 1136.5 c 128,-1,68
 1688 989 1688 989 1688 717 c 0,69,70
 1688 613 1688 613 1657 504 c 1,71,-1
 1808 504 l 1,72,-1
 1808 1286 l 1,73,-1
 2071 1286 l 1,74,-1
 2071 584 l 1,75,76
 2128 617 2128 617 2204 616 c 0,77,78
 2358 616 2358 616 2462 498 c 0,79,80
 2578 364 2578 364 2574 145 c 0,0,1
1104 899 m 0,81,82
 1104 973 1104 973 1077.5 1025 c 128,-1,83
 1051 1077 1051 1077 1014 1096 c 1,84,85
 948 1106 948 1106 903 1048.5 c 128,-1,86
 858 991 858 991 858 915 c 256,87,88
 858 839 858 839 896 798.5 c 128,-1,89
 934 758 934 758 981 758 c 0,90,91
 1038 758 1038 758 1071 802 c 128,-1,92
 1104 846 1104 846 1104 899 c 0,81,82
1278 356 m 1,93,-1
 201 356 l 2,94,95
 185 356 185 356 176.5 351 c 128,-1,96
 168 346 168 346 172 338 c 0,97,98
 238 248 238 248 356 197 c 0,99,100
 501 136 501 136 713 135 c 0,101,102
 1065 135 1065 135 1278 356 c 1,93,-1
EndSplineSet
EndChar

StartChar: u0B87
Encoding: 139 2951 139
Width: 2209
Flags: HW
AnchorPoint: "V" 971.5 1836.8 basechar 0
AnchorPoint: "N" 971.5 -266 basechar 0
LayerCount: 2
Fore
SplineSet
1933 705 m 0,0,1
 1933 402 1933 402 1847 96 c 0,2,3
 1792 -105 1792 -105 1712 -266 c 1,4,-1
 1589 -215 l 1,5,6
 1663 -76 1663 -76 1714 115 c 0,7,8
 1786 375 1786 375 1786 641 c 0,9,10
 1786 1071 1786 1071 1549.5 1327 c 128,-1,11
 1313 1583 1313 1583 942 1583 c 0,12,13
 602 1583 602 1583 373.5 1391.5 c 128,-1,14
 145 1200 145 1200 145 918 c 0,15,16
 145 801 145 801 181 674 c 128,-1,17
 217 547 217 547 289 416 c 1,18,19
 420 482 420 482 564.5 515.5 c 128,-1,20
 709 549 709 549 854 549 c 0,21,22
 893 549 893 549 955.5 544 c 128,-1,23
 1018 539 1018 539 1061 535 c 1,24,25
 1086 635 1086 635 1085 729 c 0,26,27
 1085 881 1085 881 1040 967 c 128,-1,28
 995 1053 995 1053 901 1096 c 1,29,30
 948 1016 948 1016 948 891 c 0,31,32
 948 754 948 754 881 672 c 0,33,34
 801 578 801 578 641 578 c 0,35,36
 502 578 502 578 422 682 c 128,-1,37
 342 786 342 786 342 938 c 0,38,39
 342 1096 342 1096 443.5 1198 c 128,-1,40
 545 1300 545 1300 733 1300 c 0,41,42
 1007 1300 1007 1300 1163 1153 c 128,-1,43
 1319 1006 1319 1006 1319 733 c 0,44,45
 1319 602 1319 602 1286 477 c 1,46,47
 1433 420 1433 420 1513 336 c 128,-1,48
 1593 252 1593 252 1593 133 c 0,49,50
 1593 -55 1593 -55 1452 -152.5 c 128,-1,51
 1311 -250 1311 -250 1073 -250 c 0,52,53
 979 -250 979 -250 898 -234.5 c 128,-1,54
 817 -219 817 -219 729 -186 c 1,55,56
 561 -252 561 -252 391 -252 c 0,57,58
 211 -252 211 -252 113 -180 c 0,59,60
 2 -100 2 -100 2 57 c 0,61,62
 2 139 2 139 43 207.5 c 128,-1,63
 84 276 84 276 164 338 c 1,64,65
 82 485 82 485 42 638 c 128,-1,66
 2 791 2 791 2 932 c 0,67,68
 2 1362 2 1362 285 1608 c 0,69,70
 547 1837 547 1837 948 1837 c 0,71,72
 1401 1837 1401 1837 1671 1536 c 128,-1,73
 1941 1235 1941 1235 1933 705 c 0,0,1
741 909 m 0,74,75
 741 983 741 983 714.5 1037.5 c 128,-1,76
 688 1092 688 1092 651 1108 c 1,77,78
 585 1118 585 1118 542.5 1063 c 128,-1,79
 500 1008 500 1008 500 928 c 0,80,81
 500 854 500 854 536.5 811 c 128,-1,82
 573 768 573 768 621 768 c 0,83,84
 674 768 674 768 706.5 812 c 128,-1,85
 739 856 739 856 741 909 c 0,74,75
1352 129 m 0,86,87
 1352 174 1352 174 1321 219 c 128,-1,88
 1290 264 1290 264 1237 297 c 1,89,90
 1178 174 1178 174 1098 77 c 128,-1,91
 1018 -20 1018 -20 915 -94 c 1,92,93
 954 -104 954 -104 992 -106.5 c 128,-1,94
 1030 -109 1030 -109 1077 -109 c 0,95,96
 1208 -109 1208 -109 1280 -40 c 128,-1,97
 1352 29 1352 29 1352 129 c 0,86,87
1014 387 m 1,98,99
 938 403 938 403 854 403 c 0,100,101
 610 403 610 403 379 281 c 1,102,103
 408 244 408 244 426 221.5 c 128,-1,104
 444 199 444 199 469 176 c 0,105,106
 578 63 578 63 694 -2 c 1,107,108
 794 64 794 64 878.5 165 c 128,-1,109
 963 266 963 266 1014 387 c 1,98,99
530 -82 m 1,110,111
 471 -37 471 -37 428 -4 c 0,112,113
 375 39 375 39 336 84 c 2,114,-1
 250 201 l 1,115,116
 150 119 150 119 150 39 c 0,117,118
 150 -27 150 -27 215.5 -66.5 c 128,-1,119
 281 -106 281 -106 381 -106 c 0,120,121
 460 -107 460 -107 530 -82 c 1,110,111
EndSplineSet
EndChar

StartChar: u0B88
Encoding: 140 2952 140
Width: 1476
Flags: HW
AnchorPoint: "V" 597 1292 basechar 0
AnchorPoint: "N" 597 -12 basechar 0
LayerCount: 2
Fore
SplineSet
1198 641 m 256,0,1
 1198 584 1198 584 1155 539 c 128,-1,2
 1112 494 1112 494 1053 494 c 0,3,4
 992 494 992 494 949.5 536 c 128,-1,5
 907 578 907 578 907 639 c 0,6,7
 907 698 907 698 949 743 c 128,-1,8
 991 788 991 788 1053 788 c 0,9,10
 1112 788 1112 788 1155 743 c 128,-1,11
 1198 698 1198 698 1198 641 c 256,0,1
1112 1139 m 1,12,-1
 836 1139 l 1,13,-1
 836 -12 l 1,14,-1
 578 -12 l 1,15,-1
 578 1139 l 1,16,-1
 143 1139 l 1,17,-1
 143 -12 l 1,18,-1
 -4 -12 l 1,19,-1
 -4 1292 l 1,20,-1
 1116 1292 l 1,21,-1
 1112 1139 l 1,12,-1
510 639 m 256,22,23
 510 582 510 582 467 537 c 128,-1,24
 424 492 424 492 365 492 c 0,25,26
 299 492 299 492 257 533.5 c 128,-1,27
 215 575 215 575 215 637 c 0,28,29
 215 696 215 696 257 741 c 128,-1,30
 299 786 299 786 365 786 c 0,31,32
 424 786 424 786 467 741 c 128,-1,33
 510 696 510 696 510 639 c 256,22,23
EndSplineSet
EndChar

StartChar: u0B89
Encoding: 141 2953 141
Width: 2283
Flags: HW
AnchorPoint: "V" 1080.5 881.694 basechar 0
AnchorPoint: "N" 1080.5 -8 basechar 0
LayerCount: 2
Fore
SplineSet
2060 -8 m 2,0,-1
 238 -8 l 2,1,2
 121 -8 121 -8 54.5 51.5 c 128,-1,3
 -12 111 -12 111 -12 193 c 256,4,5
 -12 275 -12 275 52.5 334 c 128,-1,6
 117 393 117 393 240 393 c 2,7,-1
 588 393 l 2,8,9
 705 393 705 393 778 504 c 0,10,11
 844 600 844 600 844 725 c 0,12,13
 844 926 844 926 764 1022 c 0,14,15
 674 1133 674 1133 471 1133 c 0,16,17
 383 1133 383 1133 306 1099 c 128,-1,18
 229 1065 229 1065 184 1008 c 1,19,20
 250 1047 250 1047 330 1047 c 0,21,22
 455 1047 455 1047 534.5 952.5 c 128,-1,23
 614 858 614 858 614 727 c 0,24,25
 614 582 614 582 529 499 c 128,-1,26
 444 416 444 416 305 416 c 0,27,28
 143 416 143 416 63 549 c 0,29,30
 -3 660 -3 660 -2 848 c 0,31,32
 -2 1018 -2 1018 131 1143 c 0,33,34
 276 1280 276 1280 514 1280 c 0,35,36
 797 1280 797 1280 950 1126 c 0,37,38
 1095 981 1095 981 1096 733 c 0,39,40
 1096 223 1096 223 592 223 c 2,41,-1
 317 223 l 2,42,43
 278 223 278 223 258 208 c 128,-1,44
 238 193 238 193 238 170 c 0,45,46
 238 117 238 117 317 117 c 2,47,-1
 2064 117 l 2,48,49
 2173 117 2173 117 2173 49 c 0,50,51
 2173 24 2173 24 2146 5 c 128,-1,52
 2119 -14 2119 -14 2060 -8 c 2,0,-1
385 776 m 0,53,54
 377 815 377 815 344 840.5 c 128,-1,55
 311 866 311 866 272 866 c 0,56,57
 239 866 239 866 206.5 847.5 c 128,-1,58
 174 829 174 829 150 793 c 1,59,60
 150 705 150 705 185.5 649.5 c 128,-1,61
 221 594 221 594 283 594 c 0,62,63
 334 594 334 594 363.5 638 c 128,-1,64
 393 682 393 682 393 733 c 0,65,66
 393 747 393 747 385 776 c 0,53,54
EndSplineSet
EndChar

StartChar: u0B8A
Encoding: 142 2954 142
Width: 3682
Flags: HW
AnchorPoint: "V" 1699 1251.53 basechar 0
AnchorPoint: "N" 1699 -12 basechar 0
LayerCount: 2
Fore
SplineSet
3408 1143 m 1,0,-1
 3131 1143 l 1,1,-1
 3131 160 l 1,2,-1
 2871 160 l 1,3,-1
 2871 1143 l 1,4,-1
 2605 1143 l 1,5,-1
 2605 160 l 1,6,-1
 2345 160 l 1,7,-1
 2345 887 l 2,8,9
 2345 1000 2345 1000 2246.5 1069.5 c 128,-1,10
 2148 1139 2148 1139 1976 1139 c 0,11,12
 1818 1139 1818 1139 1686 1073 c 0,13,14
 1569 1016 1569 1016 1518 934 c 1,15,16
 1606 981 1606 981 1731 981 c 0,17,18
 1891 981 1891 981 1996 869.5 c 128,-1,19
 2101 758 2101 758 2101 582 c 0,20,21
 2101 385 2101 385 2018 272.5 c 128,-1,22
 1935 160 1935 160 1776 160 c 0,23,24
 1575 160 1575 160 1453 311.5 c 128,-1,25
 1331 463 1331 463 1331 725 c 256,26,27
 1331 987 1331 987 1503 1138.5 c 128,-1,28
 1675 1290 1675 1290 1950 1290 c 0,29,30
 2153 1290 2153 1290 2276.5 1250 c 128,-1,31
 2400 1210 2400 1210 2466 1149 c 1,32,-1
 2466 1292 l 1,33,-1
 3408 1292 l 1,34,-1
 3408 1143 l 1,0,-1
3283 -12 m 1,35,-1
 240 -12 l 2,36,37
 123 -12 123 -12 56.5 47 c 128,-1,38
 -10 106 -10 106 -10 188 c 256,39,40
 -10 270 -10 270 54.5 329.5 c 128,-1,41
 119 389 119 389 242 389 c 2,42,-1
 590 389 l 2,43,44
 707 389 707 389 780 500 c 0,45,46
 846 596 846 596 846 721 c 0,47,48
 846 922 846 922 766 1018 c 0,49,50
 676 1129 676 1129 473 1128 c 0,51,52
 385 1128 385 1128 308 1094.5 c 128,-1,53
 231 1061 231 1061 186 1004 c 1,54,55
 252 1043 252 1043 332 1042 c 0,56,57
 457 1042 457 1042 536.5 948 c 128,-1,58
 616 854 616 854 616 723 c 0,59,60
 616 578 616 578 531 495 c 128,-1,61
 446 412 446 412 307 412 c 0,62,63
 145 412 145 412 66 545 c 0,64,65
 0 656 0 656 0 844 c 0,66,67
 0 1014 0 1014 133 1139 c 0,68,69
 278 1276 278 1276 516 1276 c 0,70,71
 799 1276 799 1276 952 1122 c 0,72,73
 1097 977 1097 977 1098 729 c 0,74,75
 1098 219 1098 219 594 219 c 2,76,-1
 319 219 l 2,77,78
 280 219 280 219 260 203.5 c 128,-1,79
 240 188 240 188 240 166 c 0,80,81
 240 113 240 113 319 113 c 2,82,-1
 3289 113 l 2,83,84
 3400 113 3400 113 3400 45 c 0,85,86
 3400 -20 3400 -20 3283 -12 c 1,35,-1
1835 575 m 0,87,88
 1835 655 1835 655 1784 720.5 c 128,-1,89
 1733 786 1733 786 1659 786 c 0,90,91
 1593 786 1593 786 1545 750.5 c 128,-1,92
 1497 715 1497 715 1487 668 c 1,93,94
 1487 566 1487 566 1539 470.5 c 128,-1,95
 1591 375 1591 375 1679 375 c 0,96,97
 1755 375 1755 375 1795 433 c 128,-1,98
 1835 491 1835 491 1835 575 c 0,87,88
387 772 m 0,99,100
 379 811 379 811 346 836.5 c 128,-1,101
 313 862 313 862 274 862 c 0,102,103
 241 862 241 862 208.5 843.5 c 128,-1,104
 176 825 176 825 152 788 c 1,105,106
 152 700 152 700 187.5 645 c 128,-1,107
 223 590 223 590 285 590 c 0,108,109
 336 590 336 590 365.5 634 c 128,-1,110
 395 678 395 678 395 729 c 0,111,112
 395 743 395 743 387 772 c 0,99,100
EndSplineSet
EndChar

StartChar: u0B8E
Encoding: 143 2958 143
Width: 1822
Flags: HW
AnchorPoint: "V" 776 1294 basechar 0
AnchorPoint: "N" 776 -8 basechar 0
LayerCount: 2
Fore
SplineSet
1548 1143 m 1,0,-1
 1268 1143 l 1,1,-1
 1268 -8 l 1,2,-1
 1008 -8 l 1,3,-1
 1008 1143 l 1,4,-1
 639 1143 l 2,5,6
 434 1143 434 1143 303 1032 c 0,7,8
 192 938 192 938 162 801 c 1,9,10
 262 867 262 867 391 866 c 0,11,12
 565 866 565 866 673.5 749.5 c 128,-1,13
 782 633 782 633 782 446 c 0,14,15
 782 237 782 237 699 115.5 c 128,-1,16
 616 -6 616 -6 444 -6 c 0,17,18
 233 -6 233 -6 116.5 150.5 c 128,-1,19
 0 307 0 307 0 596 c 0,20,21
 0 920 0 920 167 1107 c 128,-1,22
 334 1294 334 1294 616 1294 c 2,23,-1
 1552 1294 l 1,24,-1
 1548 1143 l 1,0,-1
520 440 m 0,25,26
 520 524 520 524 461.5 600 c 128,-1,27
 403 676 403 676 332 676 c 256,28,29
 260 676 260 676 212 636 c 128,-1,30
 164 596 164 596 147 537 c 1,31,32
 147 392 147 392 198.5 300.5 c 128,-1,33
 250 209 250 209 358 209 c 0,34,35
 438 209 438 209 483 283 c 0,36,37
 520 344 520 344 520 440 c 0,25,26
EndSplineSet
EndChar

StartChar: u0B8F
Encoding: 144 2959 144
Width: 1822
Flags: HW
AnchorPoint: "V" 776 1296 basechar 0
AnchorPoint: "N" 776 -395 basechar 0
LayerCount: 2
Fore
SplineSet
1548 1143 m 1,0,-1
 1268 1143 l 1,1,-1
 1266 6 l 1,2,-1
 793 -391 l 1,3,-1
 553 -395 l 1,4,-1
 1008 31 l 1,5,-1
 1008 1145 l 1,6,-1
 639 1145 l 2,7,8
 434 1145 434 1145 303 1034 c 0,9,10
 192 940 192 940 162 803 c 1,11,12
 262 869 262 869 391 868 c 0,13,14
 565 868 565 868 673.5 751.5 c 128,-1,15
 782 635 782 635 782 449 c 0,16,17
 782 240 782 240 699 118 c 128,-1,18
 616 -4 616 -4 444 -4 c 0,19,20
 233 -4 233 -4 116.5 152.5 c 128,-1,21
 0 309 0 309 0 598 c 0,22,23
 0 922 0 922 167 1109 c 128,-1,24
 334 1296 334 1296 616 1296 c 2,25,-1
 1552 1296 l 1,26,-1
 1548 1143 l 1,0,-1
520 442 m 0,27,28
 520 526 520 526 461.5 602 c 128,-1,29
 403 678 403 678 332 678 c 256,30,31
 260 678 260 678 212 638 c 128,-1,32
 164 598 164 598 147 539 c 1,33,34
 147 394 147 394 198.5 302.5 c 128,-1,35
 250 211 250 211 358 211 c 0,36,37
 438 211 438 211 483 285 c 0,38,39
 520 346 520 346 520 442 c 0,27,28
EndSplineSet
EndChar

StartChar: u0B90
Encoding: 145 2960 145
Width: 1845
Flags: HW
AnchorPoint: "V" 789.5 1240.04 basechar 0
AnchorPoint: "N" 789.5 -485.008 basechar 0
LayerCount: 2
Fore
SplineSet
1571 827 m 0,0,1
 1571 684 1571 684 1524 567 c 0,2,3
 1465 422 1465 422 1348 360 c 0,4,5
 1203 286 1203 286 883 270 c 128,-1,6
 563 254 563 254 455 211 c 0,7,8
 402 195 402 195 356 135 c 0,9,10
 299 59 299 59 299 -49 c 0,11,12
 299 -174 299 -174 349 -255 c 128,-1,13
 399 -336 399 -336 502 -336 c 0,14,15
 584 -336 584 -336 650.5 -266.5 c 128,-1,16
 717 -197 717 -197 717 -129 c 2,17,-1
 717 74 l 1,18,-1
 963 74 l 1,19,-1
 963 -123 l 2,20,21
 963 -203 963 -203 1016 -264 c 0,22,23
 1082 -340 1082 -340 1184 -340 c 0,24,25
 1272 -340 1272 -340 1315 -281.5 c 128,-1,26
 1358 -223 1358 -223 1358 -133 c 0,27,28
 1358 25 1358 25 1270 133 c 1,29,-1
 1444 213 l 1,30,31
 1538 76 1538 76 1538 -100 c 0,32,33
 1538 -266 1538 -266 1452 -369 c 0,34,35
 1356 -486 1356 -486 1167 -485 c 0,36,37
 1058 -485 1058 -485 981.5 -449.5 c 128,-1,38
 905 -414 905 -414 862 -356 c 1,39,40
 815 -413 815 -413 728 -449 c 128,-1,41
 641 -485 641 -485 532 -485 c 0,42,43
 294 -485 294 -485 173.5 -366.5 c 128,-1,44
 53 -248 53 -248 53 -45 c 0,45,46
 53 109 53 109 127 209 c 0,47,48
 188 295 188 295 297 334 c 0,49,50
 451 393 451 393 899 426 c 0,51,52
 1087 440 1087 440 1184 487 c 0,53,54
 1264 524 1264 524 1300 664 c 0,55,56
 1325 758 1325 758 1325 854 c 0,57,58
 1325 983 1325 983 1271 1064 c 128,-1,59
 1217 1145 1217 1145 1100 1145 c 0,60,61
 1030 1145 1030 1145 991 1075 c 0,62,63
 962 1024 962 1024 963 965 c 2,64,-1
 963 594 l 1,65,-1
 717 594 l 1,66,-1
 717 950 l 2,67,68
 717 1018 717 1018 670 1071 c 0,69,70
 602 1145 602 1145 477 1145 c 0,71,72
 389 1145 389 1145 312.5 1111 c 128,-1,73
 236 1077 236 1077 190 1020 c 1,74,75
 256 1059 256 1059 336 1059 c 0,76,77
 461 1059 461 1059 541 964.5 c 128,-1,78
 621 870 621 870 621 739 c 0,79,80
 621 594 621 594 536 511 c 128,-1,81
 451 428 451 428 311 428 c 0,82,83
 149 428 149 428 70 561 c 0,84,85
 4 672 4 672 4 860 c 0,86,87
 4 1036 4 1036 135 1159 c 0,88,89
 278 1292 278 1292 522 1292 c 0,90,91
 667 1292 667 1292 750.5 1258.5 c 128,-1,92
 834 1225 834 1225 872 1165 c 1,93,94
 909 1222 909 1222 961 1253 c 0,95,96
 1029 1292 1029 1292 1133 1292 c 0,97,98
 1350 1292 1350 1292 1462.5 1170 c 128,-1,99
 1575 1048 1575 1048 1571 827 c 0,0,1
385 780 m 0,100,101
 377 819 377 819 344 844.5 c 128,-1,102
 311 870 311 870 272 870 c 0,103,104
 239 870 239 870 206.5 852 c 128,-1,105
 174 834 174 834 150 797 c 1,106,107
 150 709 150 709 185.5 653.5 c 128,-1,108
 221 598 221 598 283 598 c 0,109,110
 334 598 334 598 363.5 642 c 128,-1,111
 393 686 393 686 393 737 c 0,112,113
 393 751 393 751 385 780 c 0,100,101
EndSplineSet
EndChar

StartChar: u0B92
Encoding: 146 2962 146
Width: 1902
Flags: HW
AnchorPoint: "V" 812 1291.95 basechar 0
AnchorPoint: "N" 812 -698 basechar 0
LayerCount: 2
Fore
SplineSet
1628 606 m 0,0,1
 1628 389 1628 389 1533 268 c 128,-1,2
 1438 147 1438 147 1276 147 c 0,3,4
 1180 147 1180 147 1124.5 183 c 128,-1,5
 1069 219 1069 219 1040 289 c 1,6,7
 1040 185 1040 185 1126 141 c 0,8,9
 1194 108 1194 108 1327 109 c 2,10,-1
 1565 109 l 1,11,-1
 1565 -49 l 1,12,-1
 1382 -49 l 2,13,14
 1288 -49 1288 -49 1245 -168 c 0,15,16
 1208 -291 1208 -291 1176 -416 c 1,17,18
 1129 -553 1129 -553 1023.5 -625.5 c 128,-1,19
 918 -698 918 -698 717 -698 c 0,20,21
 486 -698 486 -698 352.5 -588.5 c 128,-1,22
 219 -479 219 -479 219 -313 c 0,23,24
 219 -166 219 -166 296 -71.5 c 128,-1,25
 373 23 373 23 512 23 c 1,26,-1
 559 -143 l 1,27,28
 369 -143 369 -143 369 -313 c 0,29,30
 369 -413 369 -413 466 -482 c 128,-1,31
 563 -551 563 -551 737 -551 c 0,32,33
 882 -551 882 -551 936 -438 c 0,34,35
 952 -401 952 -401 989 -205 c 0,36,37
 1005 -125 1005 -125 1027 -78 c 128,-1,38
 1049 -31 1049 -31 1094 2 c 1,39,40
 1006 41 1006 41 964 125 c 128,-1,41
 922 209 922 209 922 313 c 0,42,43
 922 456 922 456 987.5 593.5 c 128,-1,44
 1053 731 1053 731 1135 760 c 1,45,-1
 1237 709 l 1,46,47
 1192 672 1192 672 1165.5 606.5 c 128,-1,48
 1139 541 1139 541 1139 479 c 0,49,50
 1139 422 1139 422 1161.5 382 c 128,-1,51
 1184 342 1184 342 1227 342 c 0,52,53
 1307 342 1307 342 1336.5 405.5 c 128,-1,54
 1366 469 1366 469 1366 598 c 0,55,56
 1366 827 1366 827 1181.5 983 c 128,-1,57
 997 1139 997 1139 774 1139 c 0,58,59
 555 1139 555 1139 400.5 1065 c 128,-1,60
 246 991 246 991 180 834 c 1,61,62
 256 877 256 877 356 877 c 0,63,64
 516 877 516 877 613.5 779.5 c 128,-1,65
 711 682 711 682 711 530 c 0,66,67
 711 358 711 358 631 259 c 128,-1,68
 551 160 551 160 393 160 c 0,69,70
 211 160 211 160 103.5 294 c 128,-1,71
 -4 428 -4 428 -4 616 c 0,72,73
 -4 931 -4 931 186 1104 c 0,74,75
 395 1292 395 1292 799 1292 c 0,76,77
 1205 1292 1205 1292 1427 1083 c 0,78,79
 1628 895 1628 895 1628 606 c 0,0,1
449 526 m 0,80,81
 449 600 449 600 409 657.5 c 128,-1,82
 369 715 369 715 303 715 c 0,83,84
 178 715 178 715 145 606 c 1,85,86
 145 518 145 518 195.5 438 c 128,-1,87
 246 358 246 358 334 358 c 0,88,89
 391 358 391 358 421 408 c 128,-1,90
 451 458 451 458 449 526 c 0,80,81
EndSplineSet
EndChar

StartChar: u0B93
Encoding: 147 2963 147
Width: 1902
Flags: HW
AnchorPoint: "V" 816 1293.95 basechar 0
AnchorPoint: "N" 816 -700 basechar 0
LayerCount: 2
Fore
SplineSet
1628 606 m 0,0,1
 1628 389 1628 389 1533 268 c 128,-1,2
 1438 147 1438 147 1276 147 c 0,3,4
 1180 147 1180 147 1122.5 185 c 128,-1,5
 1065 223 1065 223 1040 291 c 1,6,7
 1040 189 1040 189 1126 143 c 0,8,9
 1198 106 1198 106 1329 106 c 2,10,-1
 1567 106 l 1,11,-1
 1567 -51 l 1,12,-1
 1384 -51 l 2,13,14
 1290 -51 1290 -51 1247 -170 c 0,15,16
 1210 -293 1210 -293 1178 -418 c 1,17,18
 1131 -555 1131 -555 1025.5 -627.5 c 128,-1,19
 920 -700 920 -700 719 -700 c 0,20,21
 492 -700 492 -700 357.5 -590.5 c 128,-1,22
 223 -481 223 -481 223 -315 c 0,23,24
 223 -168 223 -168 300 -78 c 128,-1,25
 377 12 377 12 524 12 c 0,26,27
 669 12 669 12 753.5 -58.5 c 128,-1,28
 838 -129 838 -129 838 -229 c 0,29,30
 838 -290 838 -290 814.5 -349 c 128,-1,31
 791 -408 791 -408 731 -461 c 1,32,-1
 586 -381 l 1,33,34
 623 -338 623 -338 641 -301 c 128,-1,35
 659 -264 659 -264 659 -240 c 0,36,37
 659 -201 659 -201 621.5 -172 c 128,-1,38
 584 -143 584 -143 530 -143 c 0,39,40
 376 -143 376 -143 377 -313 c 0,41,42
 377 -413 377 -413 474 -482 c 128,-1,43
 571 -551 571 -551 745 -551 c 0,44,45
 925 -551 925 -551 973 -356 c 0,46,47
 991 -258 991 -258 1010 -158 c 0,48,49
 1020 -103 1020 -103 1039.5 -65 c 128,-1,50
 1059 -27 1059 -27 1098 2 c 1,51,52
 1010 41 1010 41 968 124 c 128,-1,53
 926 207 926 207 926 315 c 0,54,55
 926 458 926 458 991.5 595.5 c 128,-1,56
 1057 733 1057 733 1139 762 c 1,57,-1
 1241 711 l 1,58,59
 1196 674 1196 674 1169.5 608.5 c 128,-1,60
 1143 543 1143 543 1143 481 c 0,61,62
 1143 424 1143 424 1165.5 384 c 128,-1,63
 1188 344 1188 344 1231 344 c 0,64,65
 1311 344 1311 344 1340.5 407.5 c 128,-1,66
 1370 471 1370 471 1370 600 c 0,67,68
 1370 829 1370 829 1185.5 985 c 128,-1,69
 1001 1141 1001 1141 778 1141 c 0,70,71
 559 1141 559 1141 404.5 1067 c 128,-1,72
 250 993 250 993 184 836 c 1,73,74
 260 879 260 879 360 879 c 0,75,76
 520 879 520 879 617.5 781.5 c 128,-1,77
 715 684 715 684 715 532 c 0,78,79
 715 360 715 360 635 261 c 128,-1,80
 555 162 555 162 397 162 c 0,81,82
 215 162 215 162 107.5 296 c 128,-1,83
 0 430 0 430 0 618 c 0,84,85
 0 933 0 933 190 1106 c 0,86,87
 399 1294 399 1294 803 1294 c 0,88,89
 1209 1294 1209 1294 1432 1085 c 0,90,91
 1632 897 1632 897 1628 606 c 0,0,1
453 528 m 0,92,93
 453 602 453 602 413 659.5 c 128,-1,94
 373 717 373 717 307 717 c 0,95,96
 182 717 182 717 150 608 c 1,97,98
 150 520 150 520 200 440 c 128,-1,99
 250 360 250 360 338 360 c 0,100,101
 395 360 395 360 425 410 c 128,-1,102
 455 460 455 460 453 528 c 0,92,93
EndSplineSet
EndChar

StartChar: u0B95
Encoding: 149 2965 149
Width: 1765
Flags: HW
AnchorPoint: "V" 689 1292 basechar 0
AnchorPoint: "N" 689 -8 basechar 0
LayerCount: 2
Fore
SplineSet
1491 354 m 0,0,1
 1491 180 1491 180 1390.5 86 c 128,-1,2
 1290 -8 1290 -8 1124 -8 c 0,3,4
 993 -8 993 -8 920.5 25.5 c 128,-1,5
 848 59 848 59 817 117 c 1,6,7
 756 66 756 66 661.5 29 c 128,-1,8
 567 -8 567 -8 453 -8 c 0,9,10
 248 -8 248 -8 129 92 c 0,11,12
 0 201 0 201 0 410 c 0,13,14
 0 562 0 562 94 664 c 0,15,16
 168 744 168 744 250 758 c 1,17,-1
 250 1292 l 1,18,-1
 1204 1292 l 1,19,-1
 1204 1141 l 1,20,-1
 928 1141 l 1,21,-1
 928 764 l 1,22,23
 1200 764 1200 764 1323 698 c 0,24,25
 1497 604 1497 604 1491 354 c 0,0,1
670 764 m 1,26,-1
 670 1141 l 1,27,-1
 401 1141 l 1,28,-1
 401 764 l 1,29,-1
 670 764 l 1,26,-1
1249 346 m 0,30,31
 1249 518 1249 518 1159 575 c 0,32,33
 1093 614 1093 614 932 614 c 1,34,-1
 932 311 l 2,35,36
 932 139 932 139 1083 139 c 0,37,38
 1151 139 1151 139 1201 191.5 c 128,-1,39
 1251 244 1251 244 1249 346 c 0,30,31
674 297 m 2,40,-1
 674 612 l 1,41,-1
 336 612 l 2,42,43
 254 612 254 612 204 543.5 c 128,-1,44
 154 475 154 475 154 381 c 0,45,46
 154 137 154 137 428 137 c 0,47,48
 502 137 502 137 588 187.5 c 128,-1,49
 674 238 674 238 674 297 c 2,40,-1
EndSplineSet
EndChar

StartChar: u0B95_u0BBF
Encoding: 150 -1 150
Width: 2068
Flags: HW
AnchorPoint: "V" 689 2036.06 basechar 0
AnchorPoint: "N" 689 -8 basechar 0
LayerCount: 2
Fore
SplineSet
1794 -8 m 1,0,-1
 1661 -8 l 1,1,-1
 1661 1272 l 2,2,3
 1661 1501 1661 1501 1456 1648.5 c 128,-1,4
 1251 1796 1251 1796 942 1796 c 0,5,6
 539 1796 539 1796 336 1642 c 0,7,8
 146 1497 146 1497 145 1239 c 0,9,10
 145 1139 145 1139 172 1034.5 c 128,-1,11
 199 930 199 930 246 862 c 1,12,-1
 246 1296 l 1,13,-1
 1200 1296 l 1,14,-1
 1200 1145 l 1,15,-1
 924 1145 l 1,16,-1
 924 768 l 1,17,18
 1196 768 1196 768 1319 702 c 0,19,20
 1493 608 1493 608 1493 360 c 0,21,22
 1493 186 1493 186 1392.5 92 c 128,-1,23
 1292 -2 1292 -2 1126 -2 c 0,24,25
 995 -2 995 -2 922.5 32 c 128,-1,26
 850 66 850 66 819 123 c 1,27,28
 758 72 758 72 663.5 35 c 128,-1,29
 569 -2 569 -2 455 -2 c 0,30,31
 250 -2 250 -2 131 98 c 0,32,33
 2 207 2 207 2 416 c 0,34,35
 2 535 2 535 55 621 c 0,36,37
 98 689 98 689 174 733 c 1,38,39
 80 823 80 823 40 949 c 128,-1,40
 0 1075 0 1075 0 1223 c 0,41,42
 0 1583 0 1583 211 1802 c 0,43,44
 457 2056 457 2056 942 2056 c 0,45,46
 1380 2056 1380 2056 1589 1854.5 c 128,-1,47
 1798 1653 1798 1653 1798 1249 c 2,48,-1
 1794 -8 l 1,0,-1
666 762 m 1,49,-1
 666 1139 l 1,50,-1
 397 1139 l 1,51,-1
 397 762 l 1,52,-1
 666 762 l 1,49,-1
1245 344 m 0,53,54
 1245 516 1245 516 1155 573 c 0,55,56
 1089 612 1089 612 928 612 c 1,57,-1
 928 309 l 2,58,59
 928 137 928 137 1079 137 c 0,60,61
 1147 137 1147 137 1197 189.5 c 128,-1,62
 1247 242 1247 242 1245 344 c 0,53,54
670 295 m 2,63,-1
 670 610 l 1,64,-1
 332 610 l 2,65,66
 250 610 250 610 200 541.5 c 128,-1,67
 150 473 150 473 150 379 c 0,68,69
 150 135 150 135 424 135 c 0,70,71
 498 135 498 135 584 185.5 c 128,-1,72
 670 236 670 236 670 295 c 2,63,-1
EndSplineSet
EndChar

StartChar: u0B95_u0BC0
Encoding: 151 -1 151
Width: 1765
Flags: HW
AnchorPoint: "V" 689 2098.15 basechar 0
AnchorPoint: "N" 689 -8 basechar 0
LayerCount: 2
Fore
SplineSet
1491 354 m 0,0,1
 1491 180 1491 180 1390.5 86 c 128,-1,2
 1290 -8 1290 -8 1124 -8 c 0,3,4
 993 -8 993 -8 920.5 25.5 c 128,-1,5
 848 59 848 59 817 117 c 1,6,7
 756 66 756 66 661.5 29 c 128,-1,8
 567 -8 567 -8 453 -8 c 0,9,10
 248 -8 248 -8 129 92 c 0,11,12
 0 201 0 201 0 410 c 0,13,14
 0 529 0 529 53 614 c 0,15,16
 96 682 96 682 172 727 c 1,17,18
 78 817 78 817 38 943 c 128,-1,19
 -2 1069 -2 1069 -2 1217 c 0,20,21
 -2 1618 -2 1618 254 1869 c 128,-1,22
 510 2120 510 2120 915 2120 c 0,23,24
 1128 2120 1128 2120 1266 2044 c 0,25,26
 1454 1940 1454 1940 1454 1720 c 0,27,28
 1454 1583 1454 1583 1361 1488 c 128,-1,29
 1268 1393 1268 1393 1114 1393 c 0,30,31
 969 1393 969 1393 882 1480 c 128,-1,32
 795 1567 795 1567 795 1686 c 0,33,34
 795 1747 795 1747 816.5 1805.5 c 128,-1,35
 838 1864 838 1864 877 1903 c 1,36,-1
 838 1905 l 1,37,38
 537 1905 537 1905 332 1686 c 0,39,40
 146 1485 146 1485 145 1233 c 0,41,42
 145 1133 145 1133 172 1028.5 c 128,-1,43
 199 924 199 924 246 856 c 1,44,-1
 246 1290 l 1,45,-1
 1200 1290 l 1,46,-1
 1200 1139 l 1,47,-1
 924 1139 l 1,48,-1
 924 762 l 1,49,50
 1196 762 1196 762 1319 696 c 0,51,52
 1493 602 1493 602 1491 354 c 0,0,1
1241 1686 m 0,53,54
 1241 1758 1241 1758 1194 1808 c 128,-1,55
 1147 1858 1147 1858 1079 1858 c 1,56,57
 1018 1848 1018 1848 980 1799.5 c 128,-1,58
 942 1751 942 1751 942 1686 c 0,59,60
 942 1627 942 1627 985 1581.5 c 128,-1,61
 1028 1536 1028 1536 1090 1536 c 0,62,63
 1156 1536 1156 1536 1199.5 1580.5 c 128,-1,64
 1243 1625 1243 1625 1241 1686 c 0,53,54
668 768 m 1,65,-1
 668 1145 l 1,66,-1
 399 1145 l 1,67,-1
 399 768 l 1,68,-1
 668 768 l 1,65,-1
1247 350 m 0,69,70
 1247 522 1247 522 1157 580 c 0,71,72
 1091 619 1091 619 930 618 c 1,73,-1
 930 315 l 2,74,75
 930 143 930 143 1081 143 c 0,76,77
 1149 143 1149 143 1199 195.5 c 128,-1,78
 1249 248 1249 248 1247 350 c 0,69,70
672 301 m 2,79,-1
 672 616 l 1,80,-1
 334 616 l 2,81,82
 252 616 252 616 202 547.5 c 128,-1,83
 152 479 152 479 152 385 c 0,84,85
 152 141 152 141 426 141 c 0,86,87
 500 141 500 141 586 191.5 c 128,-1,88
 672 242 672 242 672 301 c 2,79,-1
EndSplineSet
EndChar

StartChar: u0B95_u0BC1
Encoding: 152 -1 152
Width: 2224
Flags: HW
AnchorPoint: "V" 689 1288 basechar 0
AnchorPoint: "N" 689 -8 basechar 0
LayerCount: 2
Fore
SplineSet
1948 303 m 0,0,1
 1948 -96 1948 -96 1767 -299 c 0,2,3
 1534 -565 1534 -565 961 -565 c 0,4,5
 480 -565 480 -565 227 -289 c 0,6,7
 -6 -29 -6 -29 -6 432 c 0,8,9
 -6 713 -6 713 74 940 c 128,-1,10
 154 1167 154 1167 301 1300 c 1,11,-1
 403 1214 l 1,12,13
 266 1077 266 1077 203.5 872.5 c 128,-1,14
 141 668 141 668 141 426 c 0,15,16
 141 39 141 39 348 -188.5 c 128,-1,17
 555 -416 555 -416 938 -416 c 0,18,19
 1372 -416 1372 -416 1548 -190 c 0,20,21
 1679 -22 1679 -22 1679 297 c 0,22,23
 1679 449 1679 449 1612 524 c 0,24,25
 1536 610 1536 610 1362 610 c 1,26,-1
 1362 307 l 2,27,28
 1362 205 1362 205 1239 106 c 0,29,30
 1094 -11 1094 -11 893 -10 c 0,31,32
 684 -10 684 -10 565 90 c 0,33,34
 438 199 438 199 438 408 c 0,35,36
 438 555 438 555 532 657 c 0,37,38
 606 737 606 737 688 754 c 1,39,-1
 688 1288 l 1,40,-1
 1645 1288 l 1,41,-1
 1645 1137 l 1,42,-1
 1364 1137 l 1,43,-1
 1364 760 l 1,44,45
 1659 760 1659 760 1792 666 c 0,46,47
 1946 557 1946 557 1948 303 c 0,0,1
1104 760 m 1,48,-1
 1104 1137 l 1,49,-1
 836 1137 l 1,50,-1
 836 760 l 1,51,-1
 1104 760 l 1,48,-1
1104 297 m 2,52,-1
 1104 612 l 1,53,-1
 766 612 l 2,54,55
 684 612 684 612 634 543.5 c 128,-1,56
 584 475 584 475 584 381 c 0,57,58
 584 262 584 262 656.5 200.5 c 128,-1,59
 729 139 729 139 858 139 c 0,60,61
 932 139 932 139 1018 189.5 c 128,-1,62
 1104 240 1104 240 1104 297 c 2,52,-1
EndSplineSet
EndChar

StartChar: u0B95_u0BC2
Encoding: 153 -1 153
Width: 2695
Flags: HW
AnchorPoint: "V" 689 1317 basechar 0
AnchorPoint: "N" 689 -8 basechar 0
LayerCount: 2
Fore
SplineSet
319 624 m 0,0,1
 294 624 294 624 264.5 612.5 c 0,2,3
 235 601 235 601 203.5 576 c 0,4,5
 172 551 172 551 151 501 c 0,6,7
 130 451 130 451 130 384 c 0,8,9
 130 263 130 263 197 197 c 0,10,11
 264 131 264 131 417 131 c 0,12,13
 461.005859375 131 461.005859375 131 507.293945312 147.353515625 c 0,14,15
 553.581054688 163.708007812 553.581054688 163.708007812 588.399414062 188.3515625 c 0,16,17
 623.217773438 212.995117188 623.217773438 212.995117188 645.818359375 243.01171875 c 0,18,19
 668.419921875 273.028320312 668.419921875 273.028320312 669.002929688 299.27734375 c 0,20,-1
 669 624 l 0,21,-1
 319 624 l 0,0,1
669 774 m 0,22,-1
 669 1167 l 0,23,-1
 389 1167 l 0,24,-1
 389 774 l 0,25,-1
 669 774 l 0,22,-1
1227 124 m 0,26,27
 1250 124 1250 124 1271 134 c 0,28,29
 1292 144 1292 144 1313 168.5 c 0,30,31
 1334 193 1334 193 1347 244.5 c 0,32,33
 1360 296 1360 296 1360 369 c 0,34,35
 1360 447.1015625 1360 447.1015625 1318.25878906 508.413085938 c 0,36,37
 1276.51660156 569.723632812 1276.51660156 569.723632812 1229.54980469 591.478515625 c 0,38,39
 1227.26757812 589.653320312 1227.26757812 589.653320312 1222.6875 586.01171875 c 0,40,41
 1200.02148438 567.994140625 1200.02148438 567.994140625 1188.38085938 557.466796875 c 0,42,43
 1176.74121094 546.940429688 1176.74121094 546.940429688 1158.59667969 523.388671875 c 0,44,45
 1140.45214844 499.837890625 1140.45214844 499.837890625 1131.41503906 474.775390625 c 0,46,47
 1122.37695312 449.712890625 1122.37695312 449.712890625 1115.18847656 408.313476562 c 0,48,49
 1108 366.913085938 1108 366.913085938 1108 315 c 0,50,51
 1108 256 1108 256 1120.5 215 c 0,52,53
 1133 174 1133 174 1153.5 156 c 0,54,55
 1174 138 1174 138 1191.5 131 c 0,56,57
 1209 124 1209 124 1227 124 c 0,26,27
1225.43945312 774 m 0,58,59
 1374.55273438 857 1374.55273438 857 1542 857 c 0,60,61
 1642 857 1642 857 1724.5 839 c 0,62,63
 1807 821 1807 821 1861.5 792.5 c 0,64,65
 1916 764 1916 764 1957.5 724.5 c 0,66,67
 1999 685 1999 685 2021.5 647 c 0,68,69
 2044 609 2044 609 2058 566 c 0,70,71
 2072 523 2072 523 2076 492.5 c 0,72,73
 2080 462 2080 462 2080 434 c 0,74,75
 2080 260.890625 2080 260.890625 1917.20996094 124 c 0,76,-1
 2326 124 l 0,77,-1
 2326 -26 l 0,78,-1
 1522 -26 l 0,79,-1
 1522 113.7265625 l 0,80,-1
 1534.87988281 120.865234375 l 0,81,82
 1815 276.12890625 1815 276.12890625 1815 422 c 0,83,84
 1815 548 1815 548 1747.5 619 c 0,85,86
 1680 690 1680 690 1572 690 c 0,87,88
 1451.8671875 690 1451.8671875 690 1399.96972656 673.357421875 c 0,89,90
 1420.79492188 654.828125 1420.79492188 654.828125 1430.10351562 646.24609375 c 0,91,92
 1439.41210938 637.6640625 1439.41210938 637.6640625 1460.50488281 615.421875 c 0,93,94
 1481.59667969 593.1796875 1481.59667969 593.1796875 1492.7265625 576.53515625 c 0,95,96
 1503.85546875 559.889648438 1503.85546875 559.889648438 1519.91796875 531.317382812 c 0,97,98
 1535.98046875 502.744140625 1535.98046875 502.744140625 1544.19335938 475.013671875 c 0,99,100
 1552.40722656 447.283203125 1552.40722656 447.283203125 1558.703125 409.357421875 c 0,101,102
 1565 371.432617188 1565 371.432617188 1565 330 c 0,103,104
 1565 242 1565 242 1528 161 c 0,105,106
 1491 80 1491 80 1420.5 26.5 c 0,107,108
 1350 -27 1350 -27 1263 -27 c 0,109,110
 1224 -27 1224 -27 1185 -18.5 c 0,111,112
 1146 -10 1146 -10 1104 13 c 0,113,114
 1062 36 1062 36 1031 71.5 c 0,115,116
 1000 107 1000 107 979.5 166 c 0,117,118
 959 225 959 225 959 300 c 0,119,120
 961.544921875 494.037109375 961.544921875 494.037109375 1047.58984375 621 c 0,121,-1
 934 621 l 0,122,-1
 934 305 l 0,123,124
 934 220 934 220 863 143.5 c 0,125,126
 792 67 792 67 680 22.5 c 0,127,128
 568 -22 568 -22 450 -22 c 0,129,130
 235 -22 235 -22 107.5 87.5 c 0,131,132
 -20 197 -20 197 -20 407 c 0,133,134
 -20 474.440429688 -20 474.440429688 -1.287109375 533.05859375 c 0,135,136
 17.42578125 591.676757812 17.42578125 591.676757812 45.939453125 630.974609375 c 0,137,138
 74.453125 670.272460938 74.453125 670.272460938 110.629882812 700.330078125 c 0,139,140
 146.805664062 730.38671875 146.805664062 730.38671875 179.333007812 745.885742188 c 0,141,142
 211.861328125 761.384765625 211.861328125 761.384765625 241 767.22265625 c 0,143,-1
 241 1317 l 0,144,-1
 1222 1317 l 0,145,-1
 1222 1167 l 0,146,-1
 935 1167 l 0,147,-1
 935 774 l 0,148,-1
 1225.43945312 774 l 0,58,59
EndSplineSet
EndChar

StartChar: u0B95_u0BC2.old
Encoding: 154 -1 154
Width: 2654
Flags: HW
AnchorPoint: "V" 689 1290 basechar 0
AnchorPoint: "N" 689 -8 basechar 0
LayerCount: 2
Fore
SplineSet
2380 -8 m 1,0,-1
 1595 -8 l 1,1,-1
 1597 129 l 1,2,3
 1706 190 1706 190 1757 238 c 0,4,5
 1851 326 1851 326 1851 422 c 0,6,7
 1851 504 1851 504 1792 558 c 128,-1,8
 1733 612 1733 612 1645 612 c 0,9,10
 1549 612 1549 612 1486 586.5 c 128,-1,11
 1423 561 1423 561 1413 514 c 1,12,-1
 1413 -12 l 1,13,-1
 1151 -12 l 1,14,-1
 1151 612 l 1,15,-1
 928 612 l 1,16,-1
 928 309 l 2,17,18
 928 186 928 186 777.5 88 c 128,-1,19
 627 -10 627 -10 455 -10 c 0,20,21
 250 -10 250 -10 131 90 c 0,22,23
 2 199 2 199 2 408 c 0,24,25
 2 560 2 560 96 662 c 0,26,27
 170 742 170 742 252 756 c 1,28,-1
 252 1290 l 1,29,-1
 1206 1290 l 1,30,-1
 1206 1139 l 1,31,-1
 930 1139 l 1,32,-1
 930 762 l 1,33,-1
 1247 762 l 2,34,35
 1272 762 1272 762 1309 745.5 c 128,-1,36
 1346 729 1346 729 1362 700 c 1,37,38
 1409 739 1409 739 1497 762.5 c 128,-1,39
 1585 786 1585 786 1716 786 c 0,40,41
 1888 786 1888 786 2005 705 c 0,42,43
 2142 609 2142 609 2142 440 c 0,44,45
 2142 354 2142 354 2098 277.5 c 128,-1,46
 2054 201 2054 201 1987 141 c 1,47,-1
 2382 141 l 1,48,-1
 2380 -8 l 1,0,-1
666 766 m 1,49,-1
 666 1143 l 1,50,-1
 397 1143 l 1,51,-1
 397 766 l 1,52,-1
 666 766 l 1,49,-1
666 303 m 2,53,-1
 666 618 l 1,54,-1
 328 618 l 2,55,56
 246 618 246 618 195.5 549.5 c 128,-1,57
 145 481 145 481 145 387 c 0,58,59
 145 143 145 143 420 143 c 0,60,61
 494 143 494 143 580 193.5 c 128,-1,62
 666 244 666 244 666 303 c 2,53,-1
EndSplineSet
EndChar

